SplineFontDB: 3.0
FontName: CheyenneSans-SemiBoldItalic
FullName: Cheyenne Sans SemiBold Italic
FamilyName: Cheyenne Sans SemiBold
Weight: Demi
Version: 1.000; ttfautohint (v1.8.2)
ItalicAngle: -8
UnderlinePosition: -150
UnderlineWidth: 50
Ascent: 800
Descent: 200
InvalidEm: 0
sfntRevision: 0x00010000
LayerCount: 2
Layer: 0 1 "Back" 1
Layer: 1 1 "Fore" 0
XUID: [1021 646 1163163066 3642202]
StyleMap: 0x0001
FSType: 0
OS2Version: 3
OS2_WeightWidthSlopeOnly: 0
OS2_UseTypoMetrics: 0
CreationTime: 1513572760
ModificationTime: 1544464494
PfmFamily: 81
TTFWeight: 600
TTFWidth: 5
LineGap: 0
VLineGap: 0
Panose: 0 0 7 0 0 0 0 0 0 0
OS2TypoAscent: 743
OS2TypoAOffset: 0
OS2TypoDescent: -161
OS2TypoDOffset: 0
OS2TypoLinegap: 0
OS2WinAscent: 822
OS2WinAOffset: 0
OS2WinDescent: 178
OS2WinDOffset: 0
HheadAscent: 822
HheadAOffset: 0
HheadDescent: -178
HheadDOffset: 0
OS2SubXSize: 650
OS2SubYSize: 600
OS2SubXOff: 0
OS2SubYOff: 75
OS2SupXSize: 650
OS2SupYSize: 600
OS2SupXOff: 0
OS2SupYOff: 350
OS2StrikeYSize: 50
OS2StrikeYPos: 310
OS2CapHeight: 723
OS2XHeight: 517
OS2Vendor: 'IMPA'
OS2CodePages: 20000193.00000000
OS2UnicodeRanges: 00000007.00000000.00000000.00000000
Lookup: 1 0 0 "'aalt' Access All Alternates in Latin lookup 0" { "'aalt' Access All Alternates in Latin lookup 0 subtable"  } ['aalt' ('DFLT' <'dflt' > 'latn' <'AZE ' 'CAT ' 'CRT ' 'KAZ ' 'MOL ' 'ROM ' 'TAT ' 'TRK ' 'dflt' > ) ]
Lookup: 3 0 0 "'aalt' Access All Alternates in Latin lookup 1" { "'aalt' Access All Alternates in Latin lookup 1 subtable"  } ['aalt' ('DFLT' <'dflt' > 'latn' <'AZE ' 'CAT ' 'CRT ' 'KAZ ' 'MOL ' 'ROM ' 'TAT ' 'TRK ' 'dflt' > ) ]
Lookup: 6 0 0 "'ccmp' Glyph Composition/Decomposition in Latin lookup 2" { "'ccmp' Glyph Composition/Decomposition in Latin lookup 2 contextual 0"  "'ccmp' Glyph Composition/Decomposition in Latin lookup 2 contextual 1"  } ['ccmp' ('DFLT' <'dflt' > 'latn' <'AZE ' 'CAT ' 'CRT ' 'KAZ ' 'MOL ' 'ROM ' 'TAT ' 'TRK ' 'dflt' > ) ]

StartChar: .notdef
Encoding: 65536 -1 0
Width: 667
Flags: W
LayerCount: 2
Fore
SplineSet
645.5 820.5 m 128,-1,1
 650 815 650 815 648 805 c 2,2,-1
 516 -133 l 2,3,4
 514 -148 514 -148 505 -154.5 c 128,-1,5
 496 -161 496 -161 479 -161 c 2,6,-1
 43 -161 l 2,7,8
 28 -161 28 -161 23 -155.5 c 128,-1,9
 18 -150 18 -150 20 -137 c 2,10,-1
 152 803 l 2,11,12
 154 814 154 814 159.5 820 c 128,-1,13
 165 826 165 826 174 826 c 2,14,-1
 633 826 l 2,15,0
 641 826 641 826 645.5 820.5 c 128,-1,1
588.5 772.5 m 128,-1,17
 585 777 585 777 578 777 c 2,18,-1
 235 777 l 1,19,-1
 476 -57 l 1,20,-1
 591 760 l 2,21,16
 592 768 592 768 588.5 772.5 c 128,-1,17
80 -107 m 128,-1,23
 84 -112 84 -112 96 -112 c 2,24,-1
 432 -112 l 1,25,-1
 191 716 l 1,26,-1
 77 -92 l 2,27,22
 76 -102 76 -102 80 -107 c 128,-1,23
EndSplineSet
EndChar

StartChar: exclam
Encoding: 33 33 4
Width: 266
GlyphClass: 2
Flags: W
LayerCount: 2
Fore
SplineSet
152 205 m 1,0,-1
 74 205 l 1,1,-1
 113 723 l 1,2,-1
 257 723 l 1,3,-1
 152 205 l 1,0,-1
151 0 m 1,4,-1
 14 0 l 1,5,-1
 33 138 l 1,6,-1
 170 138 l 1,7,-1
 151 0 l 1,4,-1
EndSplineSet
EndChar

StartChar: quotedbl
Encoding: 34 34 5
Width: 449
GlyphClass: 2
Flags: W
LayerCount: 2
Fore
SplineSet
385 464 m 1,0,-1
 321 464 l 1,1,-1
 325 723 l 1,2,-1
 457 723 l 1,3,-1
 385 464 l 1,0,-1
186 464 m 1,4,-1
 122 464 l 1,5,-1
 126 723 l 1,6,-1
 258 723 l 1,7,-1
 186 464 l 1,4,-1
EndSplineSet
EndChar

StartChar: numbersign
Encoding: 35 35 6
Width: 603
GlyphClass: 2
Flags: W
LayerCount: 2
Fore
SplineSet
467 434 m 1,0,-1
 427 296 l 1,1,-1
 534 296 l 1,2,-1
 524 229 l 1,3,-1
 407 229 l 1,4,-1
 341 -2 l 1,5,-1
 274 7 l 1,6,-1
 338 229 l 1,7,-1
 198 229 l 1,8,-1
 132 -2 l 1,9,-1
 66 7 l 1,10,-1
 130 229 l 1,11,-1
 15 229 l 1,12,-1
 25 296 l 1,13,-1
 150 296 l 1,14,-1
 190 434 l 1,15,-1
 76 434 l 1,16,-1
 85 501 l 1,17,-1
 209 501 l 1,18,-1
 274 725 l 1,19,-1
 340 717 l 1,20,-1
 277 501 l 1,21,-1
 417 501 l 1,22,-1
 483 725 l 1,23,-1
 549 717 l 1,24,-1
 486 501 l 1,25,-1
 594 501 l 1,26,-1
 585 434 l 1,27,-1
 467 434 l 1,0,-1
398 434 m 1,28,-1
 258 434 l 1,29,-1
 218 296 l 1,30,-1
 358 296 l 1,31,-1
 398 434 l 1,28,-1
EndSplineSet
EndChar

StartChar: dollar
Encoding: 36 36 7
Width: 631
GlyphClass: 2
Flags: W
LayerCount: 2
Fore
SplineSet
528 97.5 m 128,-1,1
 495 53 495 53 443.5 26 c 128,-1,2
 392 -1 392 -1 328 -5 c 0,3,4
 319 -6 319 -6 315.5 -8.5 c 128,-1,5
 312 -11 312 -11 311 -19 c 2,6,-1
 303 -80 l 1,7,-1
 221 -80 l 1,8,-1
 231 -6 l 1,9,10
 149 -2 149 -2 92.5 25.5 c 128,-1,11
 36 53 36 53 -6 108 c 1,12,-1
 76 181 l 1,13,14
 108 138 108 138 148 114 c 128,-1,15
 188 90 188 90 245 85 c 1,16,-1
 277 308 l 1,17,18
 159 340 159 340 114.5 392 c 128,-1,19
 70 444 70 444 81 522 c 128,-1,20
 92 600 92 600 155.5 654 c 128,-1,21
 219 708 219 708 319 724 c 0,22,23
 325 725 325 725 330.5 728.5 c 128,-1,24
 336 732 336 732 337 738 c 2,25,-1
 344 791 l 1,26,-1
 425 791 l 1,27,-1
 416 727 l 1,28,29
 529 704 529 704 601 637 c 1,30,-1
 525 559 l 1,31,32
 508 583 508 583 478 602 c 128,-1,33
 448 621 448 621 413 630 c 2,34,-1
 410 631 l 2,35,36
 406 631 406 631 403.5 628.5 c 128,-1,37
 401 626 401 626 401 623 c 2,38,-1
 371 413 l 1,39,-1
 428 396 l 1,40,41
 504 368 504 368 541.5 318 c 128,-1,42
 579 268 579 268 569 197 c 0,43,0
 561 142 561 142 528 97.5 c 128,-1,1
324 634 m 1,44,45
 299 634 299 634 269 622.5 c 128,-1,46
 239 611 239 611 216 588 c 128,-1,47
 193 565 193 565 189 534 c 0,48,49
 183 489 183 489 213.5 465 c 128,-1,50
 244 441 244 441 293 427 c 1,51,-1
 324 634 l 1,44,45
417.5 115 m 128,-1,53
 454 142 454 142 459 181 c 128,-1,54
 464 220 464 220 440 247 c 128,-1,55
 416 274 416 274 355 293 c 1,56,-1
 326 85 l 1,57,52
 381 88 381 88 417.5 115 c 128,-1,53
EndSplineSet
EndChar

StartChar: percent
Encoding: 37 37 8
Width: 922
GlyphClass: 2
Flags: W
LayerCount: 2
Fore
SplineSet
370.5 707.5 m 128,-1,1
 407 681 407 681 423 633.5 c 128,-1,2
 439 586 439 586 431 527 c 128,-1,3
 423 468 423 468 393.5 421.5 c 128,-1,4
 364 375 364 375 320 349 c 128,-1,5
 276 323 276 323 226 323 c 0,6,7
 175 323 175 323 138.5 349 c 128,-1,8
 102 375 102 375 85.5 421.5 c 128,-1,9
 69 468 69 468 77 527 c 128,-1,10
 85 586 85 586 115.5 633.5 c 128,-1,11
 146 681 146 681 190 707.5 c 128,-1,12
 234 734 234 734 284 734 c 128,-1,0
 334 734 334 734 370.5 707.5 c 128,-1,1
221 -4 m 1,13,-1
 147 -3 l 1,14,-1
 738 731 l 1,15,-1
 811 731 l 1,16,-1
 221 -4 l 1,13,-1
303.5 424 m 128,-1,18
 331 461 331 461 340 527 c 0,19,20
 349 594 349 594 332 632 c 128,-1,21
 315 670 315 670 274 670 c 0,22,23
 232 670 232 670 204.5 632 c 128,-1,24
 177 594 177 594 168 527 c 0,25,26
 159 462 159 462 175.5 424.5 c 128,-1,27
 192 387 192 387 234 387 c 128,-1,17
 276 387 276 387 303.5 424 c 128,-1,18
788 375.5 m 128,-1,29
 825 349 825 349 841.5 301.5 c 128,-1,30
 858 254 858 254 849 195 c 0,31,32
 841 136 841 136 811.5 89 c 128,-1,33
 782 42 782 42 738 16 c 128,-1,34
 694 -10 694 -10 644 -10 c 128,-1,35
 594 -10 594 -10 556.5 16 c 128,-1,36
 519 42 519 42 502.5 89 c 128,-1,37
 486 136 486 136 494 195 c 128,-1,38
 502 254 502 254 532.5 301.5 c 128,-1,39
 563 349 563 349 607 375.5 c 128,-1,40
 651 402 651 402 701 402 c 128,-1,28
 751 402 751 402 788 375.5 c 128,-1,29
720.5 92.5 m 128,-1,42
 748 130 748 130 757 194 c 0,43,44
 766 260 766 260 749.5 299 c 128,-1,45
 733 338 733 338 692 338 c 0,46,47
 652 338 652 338 623.5 298.5 c 128,-1,48
 595 259 595 259 586 194 c 0,49,50
 577 130 577 130 594.5 92.5 c 128,-1,51
 612 55 612 55 652 55 c 0,52,41
 693 55 693 55 720.5 92.5 c 128,-1,42
EndSplineSet
EndChar

StartChar: ampersand
Encoding: 38 38 9
Width: 746
GlyphClass: 2
Flags: W
LayerCount: 2
Fore
SplineSet
493.5 714.5 m 128,-1,1
 539 695 539 695 562.5 659.5 c 128,-1,2
 586 624 586 624 579 578 c 0,3,4
 573 532 573 532 526.5 482 c 128,-1,5
 480 432 480 432 387 384 c 1,6,-1
 498 227 l 1,7,8
 558 315 558 315 578 401 c 1,9,-1
 701 401 l 1,10,11
 679 339 679 339 644 287 c 128,-1,12
 609 235 609 235 547 156 c 1,13,-1
 658 0 l 1,14,-1
 518 0 l 1,15,-1
 463 75 l 1,16,17
 349 -5 349 -5 222 -5 c 0,18,19
 112 -5 112 -5 61 45.5 c 128,-1,20
 10 96 10 96 22 181 c 0,21,22
 32 252 32 252 82 303 c 128,-1,23
 132 354 132 354 231 403 c 1,24,25
 192 453 192 453 176 489.5 c 128,-1,26
 160 526 160 526 166 570 c 0,27,28
 172 616 172 616 203 653.5 c 128,-1,29
 234 691 234 691 283 712.5 c 128,-1,30
 332 734 332 734 390 734 c 128,-1,0
 448 734 448 734 493.5 714.5 c 128,-1,1
319.5 634.5 m 128,-1,32
 293 612 293 612 288 578 c 0,33,34
 284 550 284 550 296.5 520.5 c 128,-1,35
 309 491 309 491 328 468 c 2,36,-1
 344 447 l 1,37,38
 411 485 411 485 438.5 514 c 128,-1,39
 466 543 466 543 471 574 c 0,40,41
 477 615 477 615 452 636 c 128,-1,42
 427 657 427 657 387 657 c 0,43,31
 346 657 346 657 319.5 634.5 c 128,-1,32
197 272 m 128,-1,45
 164 238 164 238 159 197 c 0,46,47
 152 149 152 149 184 119 c 128,-1,48
 216 89 216 89 265 89 c 0,49,50
 300 89 300 89 340.5 105 c 128,-1,51
 381 121 381 121 414 148 c 1,52,-1
 281 332 l 1,53,44
 230 306 230 306 197 272 c 128,-1,45
EndSplineSet
EndChar

StartChar: quotesingle
Encoding: 39 39 10
Width: 253
GlyphClass: 2
Flags: W
LayerCount: 2
Fore
SplineSet
176 464 m 1,0,-1
 112 464 l 1,1,-1
 116 723 l 1,2,-1
 248 723 l 1,3,-1
 176 464 l 1,0,-1
EndSplineSet
EndChar

StartChar: parenleft
Encoding: 40 40 11
Width: 316
GlyphClass: 2
Flags: W
LayerCount: 2
Fore
SplineSet
230 506.5 m 128,-1,1
 183 392 183 392 167 277 c 0,2,3
 152 167 152 167 164.5 61.5 c 128,-1,4
 177 -44 177 -44 215 -161 c 1,5,-1
 131 -161 l 1,6,7
 79 -43 79 -43 58.5 57.5 c 128,-1,8
 38 158 38 158 55 278 c 128,-1,9
 72 398 72 398 126 512 c 128,-1,10
 180 626 180 626 261 723 c 1,11,-1
 346 723 l 1,12,0
 277 621 277 621 230 506.5 c 128,-1,1
EndSplineSet
EndChar

StartChar: parenright
Encoding: 41 41 12
Width: 316
GlyphClass: 2
Flags: WO
LayerCount: 2
Fore
SplineSet
111.400390625 55.5 m 128,-1,1
 158.400390625 170 158.400390625 170 174.400390625 285 c 0,2,3
 189.400390625 395 189.400390625 395 176.900390625 500.5 c 128,-1,4
 164.400390625 606 164.400390625 606 126.400390625 723 c 1,5,-1
 210.400390625 723 l 1,6,7
 262.400390625 605 262.400390625 605 282.900390625 504.5 c 128,-1,8
 303.400390625 404 303.400390625 404 286.400390625 284 c 128,-1,9
 269.400390625 164 269.400390625 164 215.400390625 50 c 128,-1,10
 161.400390625 -64 161.400390625 -64 80.400390625 -161 c 1,11,-1
 -4.599609375 -161 l 1,12,0
 64.400390625 -59 64.400390625 -59 111.400390625 55.5 c 128,-1,1
EndSplineSet
EndChar

StartChar: asterisk
Encoding: 42 42 13
Width: 435
GlyphClass: 2
Flags: W
LayerCount: 2
Fore
SplineSet
240 486 m 1,0,-1
 139 351 l 1,1,-1
 78 398 l 1,2,-1
 194 518 l 1,3,-1
 60 558 l 1,4,-1
 97 631 l 1,5,-1
 222 575 l 1,6,-1
 232 723 l 1,7,-1
 315 723 l 1,8,-1
 283 574 l 1,9,-1
 426 633 l 1,10,-1
 439 560 l 1,11,-1
 297 519 l 1,12,-1
 377 402 l 1,13,-1
 303 354 l 1,14,-1
 240 486 l 1,0,-1
EndSplineSet
EndChar

StartChar: plus
Encoding: 43 43 14
Width: 571
GlyphClass: 2
Flags: W
LayerCount: 2
Fore
SplineSet
509 318 m 1,0,-1
 328 318 l 1,1,-1
 302 137 l 1,2,-1
 212 137 l 1,3,-1
 238 318 l 1,4,-1
 55 318 l 1,5,-1
 67 409 l 1,6,-1
 249 409 l 1,7,-1
 275 591 l 1,8,-1
 366 591 l 1,9,-1
 340 409 l 1,10,-1
 521 409 l 1,11,-1
 509 318 l 1,0,-1
EndSplineSet
EndChar

StartChar: comma
Encoding: 44 44 15
Width: 257
GlyphClass: 2
Flags: W
LayerCount: 2
Fore
SplineSet
54 -3 m 1,0,-1
 6 1 l 1,1,-1
 24 128 l 1,2,-1
 157 128 l 1,3,-1
 141 16 l 1,4,-1
 27 -133 l 1,5,-1
 -22 -133 l 1,6,-1
 54 -3 l 1,0,-1
EndSplineSet
Substitution2: "'tnum' Tabular Numbers in Latin lookup 23 subtable" comma.tf
Substitution2: "'aalt' Access All Alternates in Latin lookup 0 subtable" comma.tf
EndChar

StartChar: hyphen
Encoding: 45 45 16
Width: 387
GlyphClass: 2
Flags: W
LayerCount: 2
Fore
SplineSet
307 212 m 1,0,-1
 42 212 l 1,1,-1
 55 303 l 1,2,-1
 320 303 l 1,3,-1
 307 212 l 1,0,-1
EndSplineSet
EndChar

StartChar: period
Encoding: 46 46 17
Width: 249
GlyphClass: 2
Flags: W
LayerCount: 2
Fore
SplineSet
143 0 m 1,0,-1
 5 0 l 1,1,-1
 25 140 l 1,2,-1
 163 140 l 1,3,-1
 143 0 l 1,0,-1
EndSplineSet
Substitution2: "'tnum' Tabular Numbers in Latin lookup 23 subtable" period.tf
Substitution2: "'aalt' Access All Alternates in Latin lookup 0 subtable" period.tf
EndChar

StartChar: slash
Encoding: 47 47 18
Width: 363
GlyphClass: 2
Flags: W
LayerCount: 2
Fore
SplineSet
317 723 m 1,0,-1
 405 723 l 1,1,-1
 47 -28 l 1,2,-1
 -41 -28 l 1,3,-1
 317 723 l 1,0,-1
EndSplineSet
Substitution2: "'frac' Diagonal Fractions in Latin lookup 16 subtable" fraction
Substitution2: "'aalt' Access All Alternates in Latin lookup 0 subtable" fraction
EndChar

StartChar: zero
Encoding: 48 48 19
Width: 651
GlyphClass: 2
Flags: W
LayerCount: 2
Fore
SplineSet
524 690.5 m 128,-1,1
 582 647 582 647 606 563 c 128,-1,2
 630 479 630 479 614 360 c 0,3,4
 597 242 597 242 550 159 c 128,-1,5
 503 76 503 76 433 33.5 c 128,-1,6
 363 -9 363 -9 279 -9 c 0,7,8
 194 -9 194 -9 136 33 c 128,-1,9
 78 75 78 75 54 158 c 128,-1,10
 30 241 30 241 46 359 c 0,11,12
 63 478 63 478 111 562.5 c 128,-1,13
 159 647 159 647 229.5 690.5 c 128,-1,14
 300 734 300 734 383 734 c 128,-1,0
 466 734 466 734 524 690.5 c 128,-1,1
413 155 m 128,-1,16
 460 219 460 219 479 359 c 0,17,18
 518 635 518 635 368 635 c 0,19,20
 296 635 296 635 248 568 c 128,-1,21
 200 501 200 501 180 359 c 0,22,23
 142 91 142 91 293 91 c 0,24,15
 366 91 366 91 413 155 c 128,-1,16
EndSplineSet
Substitution2: "'onum' Oldstyle Figures in Latin lookup 24 subtable" zero.osf
Substitution2: "'tnum' Tabular Numbers in Latin lookup 23 subtable" zero.tf
Substitution2: "'frac' Diagonal Fractions in Latin lookup 17 subtable" zero.numr
Substitution2: "'dnom' Denominators in Latin lookup 15 subtable" zero.dnom
Substitution2: "'numr' Numerators in Latin lookup 14 subtable" zero.numr
Substitution2: "'sups' Superscript in Latin lookup 13 subtable" uni2070
Substitution2: "'sinf' Scientific Inferiors in Latin lookup 12 subtable" zero.subs
Substitution2: "'subs' Subscript in Latin lookup 11 subtable" zero.subs
AlternateSubs2: "'aalt' Access All Alternates in Latin lookup 1 subtable" zero.subs uni2070 zero.numr zero.dnom zero.tf zero.osf
EndChar

StartChar: one
Encoding: 49 49 20
Width: 397
GlyphClass: 2
Flags: W
LayerCount: 2
Fore
SplineSet
200 585 m 1,0,-1
 60 543 l 1,1,-1
 72 629 l 1,2,-1
 273 723 l 1,3,-1
 344 723 l 1,4,-1
 242 0 l 1,5,-1
 118 0 l 1,6,-1
 200 585 l 1,0,-1
EndSplineSet
Substitution2: "'onum' Oldstyle Figures in Latin lookup 24 subtable" one.osf
Substitution2: "'tnum' Tabular Numbers in Latin lookup 23 subtable" one.tf
Substitution2: "'frac' Diagonal Fractions in Latin lookup 17 subtable" one.numr
Substitution2: "'dnom' Denominators in Latin lookup 15 subtable" one.dnom
Substitution2: "'numr' Numerators in Latin lookup 14 subtable" one.numr
Substitution2: "'sups' Superscript in Latin lookup 13 subtable" uni00B9
Substitution2: "'sinf' Scientific Inferiors in Latin lookup 12 subtable" one.subs
Substitution2: "'subs' Subscript in Latin lookup 11 subtable" one.subs
AlternateSubs2: "'aalt' Access All Alternates in Latin lookup 1 subtable" one.subs uni00B9 one.numr one.dnom one.tf one.osf
EndChar

StartChar: two
Encoding: 50 50 21
Width: 599
GlyphClass: 2
Flags: W
LayerCount: 2
Fore
SplineSet
6 96 m 1,0,-1
 266 309 l 2,1,2
 336 365 336 365 372 399 c 128,-1,3
 408 433 408 433 425.5 460.5 c 128,-1,4
 443 488 443 488 447 520 c 0,5,6
 455 574 455 574 422.5 602 c 128,-1,7
 390 630 390 630 339 630 c 0,8,9
 289 630 289 630 245 605 c 128,-1,10
 201 580 201 580 172 526 c 1,11,-1
 63 539 l 1,12,13
 95 629 95 629 170.5 681 c 128,-1,14
 246 733 246 733 357 733 c 0,15,16
 469 733 469 733 529 676 c 128,-1,17
 589 619 589 619 575 520 c 0,18,19
 566 462 566 462 528.5 413.5 c 128,-1,20
 491 365 491 365 400 286 c 2,21,-1
 188 104 l 1,22,-1
 524 104 l 1,23,-1
 509 0 l 1,24,-1
 -7 0 l 1,25,-1
 6 96 l 1,0,-1
EndSplineSet
Substitution2: "'onum' Oldstyle Figures in Latin lookup 24 subtable" two.osf
Substitution2: "'tnum' Tabular Numbers in Latin lookup 23 subtable" two.tf
Substitution2: "'frac' Diagonal Fractions in Latin lookup 17 subtable" two.numr
Substitution2: "'dnom' Denominators in Latin lookup 15 subtable" two.dnom
Substitution2: "'numr' Numerators in Latin lookup 14 subtable" two.numr
Substitution2: "'sups' Superscript in Latin lookup 13 subtable" uni00B2
Substitution2: "'sinf' Scientific Inferiors in Latin lookup 12 subtable" two.subs
Substitution2: "'subs' Subscript in Latin lookup 11 subtable" two.subs
AlternateSubs2: "'aalt' Access All Alternates in Latin lookup 1 subtable" two.subs uni00B2 two.numr two.dnom two.tf two.osf
EndChar

StartChar: three
Encoding: 51 51 22
Width: 652
GlyphClass: 2
Flags: W
LayerCount: 2
Fore
SplineSet
192.5 690.5 m 128,-1,1
 276 733 276 733 383 733 c 0,2,3
 458 733 458 733 514.5 709 c 128,-1,4
 571 685 571 685 599 642.5 c 128,-1,5
 627 600 627 600 620 547 c 0,6,7
 604 434 604 434 461 386 c 1,8,9
 527 368 527 368 565.5 321 c 128,-1,10
 604 274 604 274 594 205 c 0,11,12
 585 141 585 141 538.5 92 c 128,-1,13
 492 43 492 43 422 16.5 c 128,-1,14
 352 -10 352 -10 273 -10 c 0,15,16
 154 -10 154 -10 87.5 30 c 128,-1,17
 21 70 21 70 12 168 c 1,18,-1
 126 181 l 1,19,20
 143 132 143 132 184.5 111 c 128,-1,21
 226 90 226 90 281 90 c 0,22,23
 355 90 355 90 403.5 122 c 128,-1,24
 452 154 452 154 459 204 c 0,25,26
 466 257 466 257 426 290.5 c 128,-1,27
 386 324 386 324 322 324 c 2,28,-1
 224 325 l 1,29,-1
 237 423 l 1,30,-1
 321 426 l 2,31,32
 387 427 387 427 434 459 c 128,-1,33
 481 491 481 491 488 538 c 0,34,35
 494 580 494 580 458 608 c 128,-1,36
 422 636 422 636 366 636 c 0,37,38
 306 636 306 636 261.5 615.5 c 128,-1,39
 217 595 217 595 191 545 c 1,40,-1
 81 558 l 1,41,0
 109 648 109 648 192.5 690.5 c 128,-1,1
EndSplineSet
Substitution2: "'onum' Oldstyle Figures in Latin lookup 24 subtable" three.osf
Substitution2: "'tnum' Tabular Numbers in Latin lookup 23 subtable" three.tf
Substitution2: "'frac' Diagonal Fractions in Latin lookup 17 subtable" three.numr
Substitution2: "'dnom' Denominators in Latin lookup 15 subtable" three.dnom
Substitution2: "'numr' Numerators in Latin lookup 14 subtable" three.numr
Substitution2: "'sups' Superscript in Latin lookup 13 subtable" uni00B3
Substitution2: "'sinf' Scientific Inferiors in Latin lookup 12 subtable" three.subs
Substitution2: "'subs' Subscript in Latin lookup 11 subtable" three.subs
AlternateSubs2: "'aalt' Access All Alternates in Latin lookup 1 subtable" three.subs uni00B3 three.numr three.dnom three.tf three.osf
EndChar

StartChar: four
Encoding: 52 52 23
Width: 625
GlyphClass: 2
Flags: W
LayerCount: 2
Fore
SplineSet
543 723 m 1,0,-1
 480 278 l 1,1,-1
 590 278 l 1,2,-1
 575 171 l 1,3,-1
 465 171 l 1,4,-1
 441 0 l 1,5,-1
 319 0 l 1,6,-1
 343 171 l 1,7,-1
 12 171 l 1,8,-1
 27 278 l 1,9,-1
 420 723 l 1,10,-1
 543 723 l 1,0,-1
357 278 m 1,11,-1
 395 551 l 1,12,-1
 154 278 l 1,13,-1
 357 278 l 1,11,-1
EndSplineSet
Substitution2: "'onum' Oldstyle Figures in Latin lookup 24 subtable" four.osf
Substitution2: "'tnum' Tabular Numbers in Latin lookup 23 subtable" four.tf
Substitution2: "'frac' Diagonal Fractions in Latin lookup 17 subtable" four.numr
Substitution2: "'dnom' Denominators in Latin lookup 15 subtable" four.dnom
Substitution2: "'numr' Numerators in Latin lookup 14 subtable" four.numr
Substitution2: "'sups' Superscript in Latin lookup 13 subtable" uni2074
Substitution2: "'sinf' Scientific Inferiors in Latin lookup 12 subtable" four.subs
Substitution2: "'subs' Subscript in Latin lookup 11 subtable" four.subs
AlternateSubs2: "'aalt' Access All Alternates in Latin lookup 1 subtable" four.subs uni2074 four.numr four.dnom four.tf four.osf
EndChar

StartChar: five
Encoding: 53 53 24
Width: 656
GlyphClass: 2
Flags: W
LayerCount: 2
Fore
SplineSet
624 723 m 1,0,-1
 602 621 l 1,1,-1
 254 621 l 1,2,-1
 209 420 l 1,3,4
 267 443 267 443 300.5 453 c 128,-1,5
 334 463 334 463 378 463 c 0,6,7
 449 463 449 463 502 437.5 c 128,-1,8
 555 412 555 412 580.5 360.5 c 128,-1,9
 606 309 606 309 596 236 c 0,10,11
 585 160 585 160 542 104.5 c 128,-1,12
 499 49 499 49 430.5 19.5 c 128,-1,13
 362 -10 362 -10 277 -10 c 0,14,15
 188 -10 188 -10 117.5 24 c 128,-1,16
 47 58 47 58 11 118 c 1,17,-1
 111 184 l 1,18,19
 148 135 148 135 183 112 c 128,-1,20
 218 89 218 89 276 89 c 0,21,22
 354 89 354 89 404 129 c 128,-1,23
 454 169 454 169 463 232 c 0,24,25
 472 293 472 293 436.5 328 c 128,-1,26
 401 363 401 363 335 363 c 0,27,28
 298 363 298 363 264.5 351 c 128,-1,29
 231 339 231 339 185 316 c 0,30,31
 177 312 177 312 175 312 c 128,-1,32
 173 312 173 312 170 314 c 128,-1,33
 167 316 167 316 165 317 c 2,34,-1
 88 364 l 1,35,-1
 170 723 l 1,36,-1
 624 723 l 1,0,-1
EndSplineSet
Substitution2: "'onum' Oldstyle Figures in Latin lookup 24 subtable" five.osf
Substitution2: "'tnum' Tabular Numbers in Latin lookup 23 subtable" five.tf
Substitution2: "'frac' Diagonal Fractions in Latin lookup 17 subtable" five.numr
Substitution2: "'dnom' Denominators in Latin lookup 15 subtable" five.dnom
Substitution2: "'numr' Numerators in Latin lookup 14 subtable" five.numr
Substitution2: "'sups' Superscript in Latin lookup 13 subtable" uni2075
Substitution2: "'sinf' Scientific Inferiors in Latin lookup 12 subtable" five.subs
Substitution2: "'subs' Subscript in Latin lookup 11 subtable" five.subs
AlternateSubs2: "'aalt' Access All Alternates in Latin lookup 1 subtable" five.subs uni2075 five.numr five.dnom five.tf five.osf
EndChar

StartChar: six
Encoding: 54 54 25
Width: 632
GlyphClass: 2
Flags: W
LayerCount: 2
Fore
SplineSet
553.5 690.5 m 128,-1,1
 613 644 613 644 614 567 c 1,2,-1
 506 552 l 1,3,4
 491 595 491 595 464 617 c 128,-1,5
 437 639 437 639 387 639 c 0,6,7
 308 639 308 639 254.5 573.5 c 128,-1,8
 201 508 201 508 185 392 c 0,9,10
 181 365 181 365 180 350 c 1,11,12
 209 394 209 394 260 418.5 c 128,-1,13
 311 443 311 443 369 443 c 0,14,15
 442 443 442 443 491.5 414.5 c 128,-1,16
 541 386 541 386 562.5 337 c 128,-1,17
 584 288 584 288 576 226 c 0,18,19
 567 159 567 159 525.5 106.5 c 128,-1,20
 484 54 484 54 419.5 25 c 128,-1,21
 355 -4 355 -4 280 -4 c 0,22,23
 191 -4 191 -4 132.5 39 c 128,-1,24
 74 82 74 82 51 162.5 c 128,-1,25
 28 243 28 243 44 353 c 0,26,27
 61 472 61 472 109 558.5 c 128,-1,28
 157 645 157 645 231.5 691 c 128,-1,29
 306 737 306 737 398 737 c 0,30,0
 494 737 494 737 553.5 690.5 c 128,-1,1
259 335 m 128,-1,32
 224 321 224 321 200.5 297 c 128,-1,33
 177 273 177 273 173 244 c 0,34,35
 171 168 171 168 202 129 c 128,-1,36
 233 90 233 90 291 90 c 128,-1,37
 349 90 349 90 393.5 127 c 128,-1,38
 438 164 438 164 446 220 c 0,39,40
 454 277 454 277 421.5 313 c 128,-1,41
 389 349 389 349 331 349 c 0,42,31
 294 349 294 349 259 335 c 128,-1,32
EndSplineSet
Substitution2: "'onum' Oldstyle Figures in Latin lookup 24 subtable" six.osf
Substitution2: "'tnum' Tabular Numbers in Latin lookup 23 subtable" six.tf
Substitution2: "'frac' Diagonal Fractions in Latin lookup 17 subtable" six.numr
Substitution2: "'dnom' Denominators in Latin lookup 15 subtable" six.dnom
Substitution2: "'numr' Numerators in Latin lookup 14 subtable" six.numr
Substitution2: "'sups' Superscript in Latin lookup 13 subtable" uni2076
Substitution2: "'sinf' Scientific Inferiors in Latin lookup 12 subtable" six.subs
Substitution2: "'subs' Subscript in Latin lookup 11 subtable" six.subs
AlternateSubs2: "'aalt' Access All Alternates in Latin lookup 1 subtable" six.subs uni2076 six.numr six.dnom six.tf six.osf
EndChar

StartChar: seven
Encoding: 55 55 26
Width: 581
GlyphClass: 2
Flags: W
LayerCount: 2
Fore
SplineSet
612 723 m 1,0,-1
 594 599 l 1,1,2
 523 520 523 520 448.5 409 c 128,-1,3
 374 298 374 298 318.5 187.5 c 128,-1,4
 263 77 263 77 247 0 c 1,5,-1
 114 0 l 1,6,7
 133 71 133 71 180 173.5 c 128,-1,8
 227 276 227 276 302.5 394.5 c 128,-1,9
 378 513 378 513 477 621 c 1,10,-1
 71 621 l 1,11,-1
 86 723 l 1,12,-1
 612 723 l 1,0,-1
EndSplineSet
Substitution2: "'onum' Oldstyle Figures in Latin lookup 24 subtable" seven.osf
Substitution2: "'tnum' Tabular Numbers in Latin lookup 23 subtable" seven.tf
Substitution2: "'frac' Diagonal Fractions in Latin lookup 17 subtable" seven.numr
Substitution2: "'dnom' Denominators in Latin lookup 15 subtable" seven.dnom
Substitution2: "'numr' Numerators in Latin lookup 14 subtable" seven.numr
Substitution2: "'sups' Superscript in Latin lookup 13 subtable" uni2077
Substitution2: "'sinf' Scientific Inferiors in Latin lookup 12 subtable" seven.subs
Substitution2: "'subs' Subscript in Latin lookup 11 subtable" seven.subs
AlternateSubs2: "'aalt' Access All Alternates in Latin lookup 1 subtable" seven.subs uni2077 seven.numr seven.dnom seven.tf seven.osf
EndChar

StartChar: eight
Encoding: 56 56 27
Width: 631
GlyphClass: 2
Flags: W
LayerCount: 2
Fore
SplineSet
498 707 m 128,-1,1
 552 681 552 681 577 635.5 c 128,-1,2
 602 590 602 590 594 532 c 0,3,4
 585 469 585 469 543 433 c 128,-1,5
 501 397 501 397 461 380 c 1,6,7
 467 377 467 377 504.5 358.5 c 128,-1,8
 542 340 542 340 564.5 298.5 c 128,-1,9
 587 257 587 257 579 199 c 0,10,11
 570 135 570 135 527.5 87.5 c 128,-1,12
 485 40 485 40 416.5 15 c 128,-1,13
 348 -10 348 -10 262 -10 c 0,14,15
 136 -10 136 -10 68.5 39.5 c 128,-1,16
 1 89 1 89 13 178 c 0,17,18
 21 235 21 235 62.5 279.5 c 128,-1,19
 104 324 104 324 171 352 c 1,20,21
 64 406 64 406 80 516 c 0,22,23
 88 576 88 576 127.5 625.5 c 128,-1,24
 167 675 167 675 230 704 c 128,-1,25
 293 733 293 733 370 733 c 0,26,0
 444 733 444 733 498 707 c 128,-1,1
261 608.5 m 128,-1,28
 219 578 219 578 213 531 c 0,29,30
 203 460 203 460 282 439 c 2,31,-1
 364 416 l 2,32,33
 367 415 367 415 372 415 c 0,34,35
 391 415 391 415 414.5 432.5 c 128,-1,36
 438 450 438 450 456.5 477 c 128,-1,37
 475 504 475 504 479 531 c 0,38,39
 486 578 486 578 453.5 608.5 c 128,-1,40
 421 639 421 639 359 639 c 0,41,27
 303 639 303 639 261 608.5 c 128,-1,28
394.5 113.5 m 128,-1,43
 438 142 438 142 445 190 c 0,44,45
 450 227 450 227 432.5 251 c 128,-1,46
 415 275 415 275 368 288 c 2,47,-1
 266 316 l 2,48,49
 258 318 258 318 256 318 c 0,50,51
 235 318 235 318 208 301.5 c 128,-1,52
 181 285 181 285 160 257.5 c 128,-1,53
 139 230 139 230 135 198 c 0,54,55
 127 144 127 144 164.5 114.5 c 128,-1,56
 202 85 202 85 283 85 c 0,57,42
 351 85 351 85 394.5 113.5 c 128,-1,43
EndSplineSet
Substitution2: "'onum' Oldstyle Figures in Latin lookup 24 subtable" eight.osf
Substitution2: "'tnum' Tabular Numbers in Latin lookup 23 subtable" eight.tf
Substitution2: "'frac' Diagonal Fractions in Latin lookup 17 subtable" eight.numr
Substitution2: "'dnom' Denominators in Latin lookup 15 subtable" eight.dnom
Substitution2: "'numr' Numerators in Latin lookup 14 subtable" eight.numr
Substitution2: "'sups' Superscript in Latin lookup 13 subtable" uni2078
Substitution2: "'sinf' Scientific Inferiors in Latin lookup 12 subtable" eight.subs
Substitution2: "'subs' Subscript in Latin lookup 11 subtable" eight.subs
AlternateSubs2: "'aalt' Access All Alternates in Latin lookup 1 subtable" eight.subs uni2078 eight.numr eight.dnom eight.tf eight.osf
EndChar

StartChar: nine
Encoding: 57 57 28
Width: 632
GlyphClass: 2
Flags: W
LayerCount: 2
Fore
SplineSet
130 13 m 128,-1,1
 81 35 81 35 53 73.5 c 128,-1,2
 25 112 25 112 24 161 c 1,3,-1
 137 175 l 1,4,5
 149 135 149 135 175.5 112 c 128,-1,6
 202 89 202 89 251 89 c 0,7,8
 335 89 335 89 392 152.5 c 128,-1,9
 449 216 449 216 467 345 c 0,10,11
 471 370 471 370 472 383 c 1,12,13
 445 335 445 335 393 307.5 c 128,-1,14
 341 280 341 280 277 280 c 0,15,16
 204 280 204 280 152.5 308.5 c 128,-1,17
 101 337 101 337 78 387.5 c 128,-1,18
 55 438 55 438 64 502 c 0,19,20
 74 570 74 570 115.5 622 c 128,-1,21
 157 674 157 674 221 703 c 128,-1,22
 285 732 285 732 360 732 c 0,23,24
 449 732 449 732 507.5 689 c 128,-1,25
 566 646 566 646 589 565.5 c 128,-1,26
 612 485 612 485 597 375 c 0,27,28
 571 187 571 187 477.5 89 c 128,-1,29
 384 -9 384 -9 242 -9 c 0,30,0
 179 -9 179 -9 130 13 c 128,-1,1
380 393.5 m 128,-1,32
 415 408 415 408 439 432 c 128,-1,33
 463 456 463 456 467 483 c 0,34,35
 469 560 469 560 438.5 599 c 128,-1,36
 408 638 408 638 350 638 c 128,-1,37
 292 638 292 638 249 601.5 c 128,-1,38
 206 565 206 565 198 508 c 0,39,40
 190 453 190 453 221 416 c 128,-1,41
 252 379 252 379 308 379 c 0,42,31
 345 379 345 379 380 393.5 c 128,-1,32
EndSplineSet
Substitution2: "'onum' Oldstyle Figures in Latin lookup 24 subtable" nine.osf
Substitution2: "'tnum' Tabular Numbers in Latin lookup 23 subtable" nine.tf
Substitution2: "'frac' Diagonal Fractions in Latin lookup 17 subtable" nine.numr
Substitution2: "'dnom' Denominators in Latin lookup 15 subtable" nine.dnom
Substitution2: "'numr' Numerators in Latin lookup 14 subtable" nine.numr
Substitution2: "'sups' Superscript in Latin lookup 13 subtable" uni2079
Substitution2: "'sinf' Scientific Inferiors in Latin lookup 12 subtable" nine.subs
Substitution2: "'subs' Subscript in Latin lookup 11 subtable" nine.subs
AlternateSubs2: "'aalt' Access All Alternates in Latin lookup 1 subtable" nine.subs uni2079 nine.numr nine.dnom nine.tf nine.osf
EndChar

StartChar: colon
Encoding: 58 58 29
Width: 249
GlyphClass: 2
Flags: W
LayerCount: 2
Fore
SplineSet
194 362 m 1,0,-1
 56 362 l 1,1,-1
 75 501 l 1,2,-1
 213 501 l 1,3,-1
 194 362 l 1,0,-1
143 3 m 1,4,-1
 5 3 l 1,5,-1
 25 141 l 1,6,-1
 163 141 l 1,7,-1
 143 3 l 1,4,-1
EndSplineSet
EndChar

StartChar: semicolon
Encoding: 59 59 30
Width: 263
GlyphClass: 2
Flags: W
LayerCount: 2
Fore
SplineSet
76 499 m 1,0,-1
 214 499 l 1,1,-1
 194 358 l 1,2,-1
 56 358 l 1,3,-1
 76 499 l 1,0,-1
59 0 m 1,4,-1
 9 0 l 1,5,-1
 29 139 l 1,6,-1
 166 139 l 1,7,-1
 148 16 l 1,8,-1
 27 -149 l 1,9,-1
 -24 -149 l 1,10,-1
 59 0 l 1,4,-1
EndSplineSet
EndChar

StartChar: less
Encoding: 60 60 31
Width: 567
GlyphClass: 2
Flags: W
LayerCount: 2
Fore
SplineSet
465 120 m 1,0,-1
 46 292 l 1,1,-1
 61 396 l 1,2,-1
 529 571 l 1,3,-1
 514 463 l 1,4,-1
 191 344 l 1,5,-1
 480 227 l 1,6,-1
 465 120 l 1,0,-1
EndSplineSet
EndChar

StartChar: equal
Encoding: 61 61 32
Width: 571
GlyphClass: 2
Flags: W
LayerCount: 2
Fore
SplineSet
522 414 m 1,0,-1
 68 414 l 1,1,-1
 81 505 l 1,2,-1
 535 505 l 1,3,-1
 522 414 l 1,0,-1
491 189 m 1,4,-1
 36 188 l 1,5,-1
 49 279 l 1,6,-1
 503 279 l 1,7,-1
 491 189 l 1,4,-1
EndSplineSet
EndChar

StartChar: greater
Encoding: 62 62 33
Width: 567
GlyphClass: 2
Flags: W
LayerCount: 2
Fore
SplineSet
375 344 m 1,0,-1
 85 463 l 1,1,-1
 100 571 l 1,2,-1
 520 396 l 1,3,-1
 505 292 l 1,4,-1
 38 120 l 1,5,-1
 53 227 l 1,6,-1
 375 344 l 1,0,-1
EndSplineSet
EndChar

StartChar: question
Encoding: 63 63 34
Width: 525
GlyphClass: 2
Flags: W
LayerCount: 2
Fore
SplineSet
163.5 692.5 m 128,-1,1
 233 733 233 733 320 733 c 0,2,3
 388 733 388 733 437.5 710.5 c 128,-1,4
 487 688 487 688 510 649 c 128,-1,5
 533 610 533 610 526 561 c 0,6,7
 521 522 521 522 503 490.5 c 128,-1,8
 485 459 485 459 461.5 435.5 c 128,-1,9
 438 412 438 412 400 380 c 0,10,11
 363 348 363 348 341.5 326 c 128,-1,12
 320 304 320 304 302.5 274.5 c 128,-1,13
 285 245 285 245 280 208 c 1,14,-1
 180 208 l 1,15,16
 187 257 187 257 207 295.5 c 128,-1,17
 227 334 227 334 251 361.5 c 128,-1,18
 275 389 275 389 313 425 c 0,19,20
 356 466 356 466 377 493.5 c 128,-1,21
 398 521 398 521 403 555 c 0,22,23
 409 597 409 597 382.5 621.5 c 128,-1,24
 356 646 356 646 307 646 c 0,25,26
 262 646 262 646 218 619 c 128,-1,27
 174 592 174 592 152 550 c 1,28,-1
 51 578 l 1,29,0
 94 652 94 652 163.5 692.5 c 128,-1,1
270 0 m 1,30,-1
 133 0 l 1,31,-1
 152 138 l 1,32,-1
 289 138 l 1,33,-1
 270 0 l 1,30,-1
EndSplineSet
EndChar

StartChar: at
Encoding: 64 64 35
Width: 826
GlyphClass: 2
Flags: W
LayerCount: 2
Fore
SplineSet
499 -89 m 128,-1,1
 435 -110 435 -110 364 -110 c 0,2,3
 248 -110 248 -110 168.5 -61.5 c 128,-1,4
 89 -13 89 -13 55 70.5 c 128,-1,5
 21 154 21 154 35 255 c 0,6,7
 50 360 50 360 112 449.5 c 128,-1,8
 174 539 174 539 272 591.5 c 128,-1,9
 370 644 370 644 487 644 c 0,10,11
 578 644 578 644 652.5 610.5 c 128,-1,12
 727 577 727 577 766.5 506.5 c 128,-1,13
 806 436 806 436 792 331 c 0,14,15
 782 258 782 258 749 200.5 c 128,-1,16
 716 143 716 143 668 111 c 128,-1,17
 620 79 620 79 565 79 c 0,18,19
 492 79 492 79 481 128 c 0,20,21
 479 134 479 134 476 134 c 128,-1,22
 473 134 473 134 468 128 c 0,23,24
 408 65 408 65 327 65 c 0,25,26
 288 65 288 65 258 86.5 c 128,-1,27
 228 108 228 108 214.5 146.5 c 128,-1,28
 201 185 201 185 208 236 c 0,29,30
 217 297 217 297 248 349 c 128,-1,31
 279 401 279 401 327.5 432 c 128,-1,32
 376 463 376 463 433 463 c 0,33,34
 471 463 471 463 495 448.5 c 128,-1,35
 519 434 519 434 534 408 c 0,36,37
 536 406 536 406 538 407 c 128,-1,38
 540 408 540 408 542 412 c 2,39,-1
 553 438 l 1,40,-1
 627 438 l 1,41,-1
 560 220 l 2,42,43
 555 205 555 205 553 193 c 0,44,45
 547 152 547 152 583 152 c 0,46,47
 610 152 610 152 637 172.5 c 128,-1,48
 664 193 664 193 684 232 c 128,-1,49
 704 271 704 271 712 325 c 0,50,51
 724 412 724 412 694 467.5 c 128,-1,52
 664 523 664 523 606.5 548 c 128,-1,53
 549 573 549 573 477 573 c 0,54,55
 375 573 375 573 297.5 530.5 c 128,-1,56
 220 488 220 488 174 415.5 c 128,-1,57
 128 343 128 343 116 255 c 0,58,59
 103 166 103 166 130.5 99 c 128,-1,60
 158 32 158 32 224 -5 c 128,-1,61
 290 -42 290 -42 388 -42 c 0,62,63
 449 -42 449 -42 488.5 -27.5 c 128,-1,64
 528 -13 528 -13 578 19 c 1,65,-1
 611 -34 l 1,66,0
 563 -68 563 -68 499 -89 c 128,-1,1
309 171 m 128,-1,68
 324 143 324 143 359 143 c 0,69,70
 403 143 403 143 441 180.5 c 128,-1,71
 479 218 479 218 491 268 c 0,72,73
 493 275 493 275 494 287 c 0,74,75
 500 332 500 332 481.5 358.5 c 128,-1,76
 463 385 463 385 429 385 c 0,77,78
 382 385 382 385 345.5 344.5 c 128,-1,79
 309 304 309 304 300 245 c 0,80,67
 294 199 294 199 309 171 c 128,-1,68
EndSplineSet
EndChar

StartChar: A
Encoding: 65 65 36
Width: 705
GlyphClass: 2
Flags: W
AnchorPoint: "Anchor-5" -46 0 basechar 0
AnchorPoint: "Anchor-4" -46 0 basechar 0
AnchorPoint: "Anchor-3" 315 723 basechar 0
AnchorPoint: "Anchor-2" 629 10 basechar 0
LayerCount: 2
Fore
SplineSet
343 723 m 1,0,-1
 475 723 l 1,1,-1
 633 0 l 1,2,-1
 510 0 l 1,3,-1
 471 181 l 1,4,-1
 195 181 l 1,5,-1
 104 0 l 1,6,-1
 -19 0 l 1,7,-1
 343 723 l 1,0,-1
457 290 m 1,8,-1
 393 605 l 1,9,-1
 239 290 l 1,10,-1
 457 290 l 1,8,-1
EndSplineSet
Substitution2: "Single Substitution lookup 30 subtable" ordfeminine
Substitution2: "'aalt' Access All Alternates in Latin lookup 0 subtable" ordfeminine
EndChar

StartChar: B
Encoding: 66 66 37
Width: 677
GlyphClass: 2
Flags: W
LayerCount: 2
Fore
SplineSet
141 723 m 1,0,-1
 390 723 l 2,1,2
 526 723 526 723 588 674.5 c 128,-1,3
 650 626 650 626 637 534 c 0,4,5
 629 476 629 476 594 436.5 c 128,-1,6
 559 397 559 397 485 370 c 1,7,8
 563 350 563 350 589 304 c 128,-1,9
 615 258 615 258 606 195 c 0,10,11
 592 96 592 96 516.5 48 c 128,-1,12
 441 0 441 0 298 0 c 2,13,-1
 39 0 l 1,14,-1
 141 723 l 1,0,-1
366 415 m 2,15,16
 423 415 423 415 466 440 c 128,-1,17
 509 465 509 465 517 518 c 0,18,19
 524 571 524 571 488 599 c 128,-1,20
 452 627 452 627 385 627 c 2,21,-1
 249 627 l 1,22,-1
 219 415 l 1,23,-1
 366 415 l 2,15,16
313 97 m 2,24,25
 390 97 390 97 433.5 124.5 c 128,-1,26
 477 152 477 152 485 205 c 0,27,28
 493 260 493 260 455.5 288 c 128,-1,29
 418 316 418 316 352 316 c 2,30,-1
 205 316 l 1,31,-1
 175 97 l 1,32,-1
 313 97 l 2,24,25
EndSplineSet
EndChar

StartChar: C
Encoding: 67 67 38
Width: 698
GlyphClass: 2
Flags: W
AnchorPoint: "Anchor-5" -46 0 basechar 0
AnchorPoint: "Anchor-4" 321 0 basechar 0
AnchorPoint: "Anchor-3" 321 723 basechar 0
AnchorPoint: "Anchor-2" -46 0 basechar 0
LayerCount: 2
Fore
SplineSet
557 702.5 m 128,-1,1
 615 672 615 672 646 619 c 128,-1,2
 677 566 677 566 675 500 c 1,3,-1
 547 497 l 1,4,5
 544 559 544 559 507.5 595 c 128,-1,6
 471 631 471 631 403 631 c 0,7,8
 224 631 224 631 186 364 c 0,9,10
 167 228 167 228 204 160 c 128,-1,11
 241 92 241 92 331 92 c 0,12,13
 391 92 391 92 439 130 c 128,-1,14
 487 168 487 168 507 230 c 1,15,-1
 635 225 l 1,16,17
 607 121 607 121 527 55.5 c 128,-1,18
 447 -10 447 -10 320 -10 c 0,19,20
 222 -10 222 -10 156 36 c 128,-1,21
 90 82 90 82 63 167 c 128,-1,22
 36 252 36 252 52 365 c 128,-1,23
 68 478 68 478 118 561 c 128,-1,24
 168 644 168 644 245 688.5 c 128,-1,25
 322 733 322 733 420 733 c 0,26,0
 499 733 499 733 557 702.5 c 128,-1,1
EndSplineSet
EndChar

StartChar: D
Encoding: 68 68 39
Width: 702
GlyphClass: 2
Flags: W
AnchorPoint: "Anchor-5" -46 0 basechar 0
AnchorPoint: "Anchor-4" -46 0 basechar 0
AnchorPoint: "Anchor-3" 301 723 basechar 0
AnchorPoint: "Anchor-2" -46 0 basechar 0
LayerCount: 2
Fore
SplineSet
335 722 m 0,0,1
 527 718 527 718 605.5 627 c 128,-1,2
 684 536 684 536 660 365 c 0,3,4
 635 188 635 188 526.5 94 c 128,-1,5
 418 0 418 0 226 0 c 2,6,-1
 39 0 l 1,7,-1
 141 723 l 1,8,9
 273 723 273 723 335 722 c 0,0,1
177 101 m 1,10,-1
 242 101 l 2,11,12
 361 101 361 101 437 163.5 c 128,-1,13
 513 226 513 226 532 365 c 0,14,15
 551 501 551 501 496 562 c 128,-1,16
 441 623 441 623 319 623 c 2,17,-1
 251 623 l 1,18,-1
 177 101 l 1,10,-1
EndSplineSet
EndChar

StartChar: E
Encoding: 69 69 40
Width: 631
GlyphClass: 2
Flags: W
AnchorPoint: "Anchor-5" -46 0 basechar 0
AnchorPoint: "Anchor-4" 294 0 basechar 0
AnchorPoint: "Anchor-3" 285 723 basechar 0
AnchorPoint: "Anchor-2" 520 10 basechar 0
LayerCount: 2
Fore
SplineSet
141 723 m 1,0,-1
 619 723 l 1,1,-1
 604 619 l 1,2,-1
 249 619 l 1,3,-1
 220 416 l 1,4,-1
 533 416 l 1,5,-1
 519 313 l 1,6,-1
 205 313 l 1,7,-1
 176 106 l 1,8,-1
 539 105 l 1,9,-1
 524 0 l 1,10,-1
 39 0 l 1,11,-1
 141 723 l 1,0,-1
EndSplineSet
EndChar

StartChar: F
Encoding: 70 70 41
Width: 594
GlyphClass: 2
Flags: W
LayerCount: 2
Fore
SplineSet
614 723 m 1,0,-1
 599 620 l 1,1,-1
 250 620 l 1,2,-1
 221 412 l 1,3,-1
 529 412 l 1,4,-1
 515 310 l 1,5,-1
 207 310 l 1,6,-1
 163 0 l 1,7,-1
 39 0 l 1,8,-1
 141 723 l 1,9,-1
 614 723 l 1,0,-1
EndSplineSet
EndChar

StartChar: G
Encoding: 71 71 42
Width: 742
GlyphClass: 2
Flags: W
AnchorPoint: "Anchor-5" -46 0 basechar 0
AnchorPoint: "Anchor-4" 322 0 basechar 0
AnchorPoint: "Anchor-3" 319 723 basechar 0
AnchorPoint: "Anchor-2" -46 0 basechar 0
LayerCount: 2
Fore
SplineSet
155.5 35.5 m 128,-1,1
 90 81 90 81 63 164 c 128,-1,2
 36 247 36 247 51 359 c 0,3,4
 67 473 67 473 119.5 557.5 c 128,-1,5
 172 642 172 642 251.5 687.5 c 128,-1,6
 331 733 331 733 428 733 c 0,7,8
 505 733 505 733 564.5 700.5 c 128,-1,9
 624 668 624 668 654.5 614.5 c 128,-1,10
 685 561 685 561 679 501 c 1,11,-1
 550 497 l 1,12,13
 547 554 547 554 509.5 591 c 128,-1,14
 472 628 472 628 410 628 c 0,15,16
 323 628 323 628 263 561.5 c 128,-1,17
 203 495 203 495 184 365 c 0,18,19
 165 227 165 227 209 162.5 c 128,-1,20
 253 98 253 98 340 98 c 0,21,22
 388 98 388 98 426.5 119.5 c 128,-1,23
 465 141 465 141 489 173 c 128,-1,24
 513 205 513 205 520 237 c 2,25,-1
 533 291 l 1,26,-1
 371 291 l 1,27,-1
 383 377 l 1,28,-1
 672 375 l 1,29,-1
 619 0 l 1,30,-1
 533 0 l 1,31,-1
 547 102 l 1,32,33
 506 52 506 52 451 21 c 128,-1,34
 396 -10 396 -10 317 -10 c 0,35,0
 221 -10 221 -10 155.5 35.5 c 128,-1,1
EndSplineSet
EndChar

StartChar: H
Encoding: 72 72 43
Width: 718
GlyphClass: 2
Flags: W
AnchorPoint: "Anchor-5" -46 0 basechar 0
AnchorPoint: "Anchor-4" 311 0 basechar 0
AnchorPoint: "Anchor-3" 312 723 basechar 0
AnchorPoint: "Anchor-2" -46 0 basechar 0
LayerCount: 2
Fore
SplineSet
206 321 m 1,0,-1
 161 0 l 1,1,-1
 39 0 l 1,2,-1
 141 723 l 1,3,-1
 263 723 l 1,4,-1
 221 425 l 1,5,-1
 524 425 l 1,6,-1
 566 723 l 1,7,-1
 688 723 l 1,8,-1
 586 0 l 1,9,-1
 464 0 l 1,10,-1
 509 321 l 1,11,-1
 206 321 l 1,0,-1
EndSplineSet
EndChar

StartChar: I
Encoding: 73 73 44
Width: 293
GlyphClass: 2
Flags: W
AnchorPoint: "Anchor-5" -46 0 basechar 0
AnchorPoint: "Anchor-4" 106 0 basechar 0
AnchorPoint: "Anchor-3" 102 723 basechar 0
AnchorPoint: "Anchor-2" 145 6 basechar 0
LayerCount: 2
Fore
SplineSet
263 723 m 1,0,-1
 161 0 l 1,1,-1
 39 0 l 1,2,-1
 141 723 l 1,3,-1
 263 723 l 1,0,-1
EndSplineSet
EndChar

StartChar: J
Encoding: 74 74 45
Width: 401
GlyphClass: 2
Flags: W
AnchorPoint: "Anchor-5" -46 0 basechar 0
AnchorPoint: "Anchor-4" -46 0 basechar 0
AnchorPoint: "Anchor-3" 182 723 basechar 0
AnchorPoint: "Anchor-2" -46 0 basechar 0
LayerCount: 2
Fore
SplineSet
264.5 76.5 m 128,-1,1
 244 34 244 34 204 12 c 128,-1,2
 164 -10 164 -10 97 -10 c 0,3,4
 65 -10 65 -10 31.5 -4 c 128,-1,5
 -2 2 -2 2 -23 9 c 1,6,-1
 -2 122 l 1,7,8
 4 120 4 120 26 112.5 c 128,-1,9
 48 105 48 105 76 105 c 0,10,11
 125 105 125 105 147 131 c 128,-1,12
 169 157 169 157 178 220 c 2,13,-1
 249 723 l 1,14,-1
 370 723 l 1,15,-1
 294 187 l 2,16,0
 285 119 285 119 264.5 76.5 c 128,-1,1
EndSplineSet
EndChar

StartChar: K
Encoding: 75 75 46
Width: 697
GlyphClass: 2
Flags: W
AnchorPoint: "Anchor-5" -46 0 basechar 0
AnchorPoint: "Anchor-4" 298 0 basechar 0
AnchorPoint: "Anchor-3" 312 723 basechar 0
AnchorPoint: "Anchor-2" -46 0 basechar 0
LayerCount: 2
Fore
SplineSet
488 0 m 1,0,-1
 331 353 l 1,1,-1
 196 217 l 1,2,-1
 166 0 l 1,3,-1
 39 0 l 1,4,-1
 141 723 l 1,5,-1
 268 723 l 1,6,-1
 218 372 l 1,7,-1
 559 723 l 1,8,-1
 700 723 l 1,9,-1
 432 443 l 1,10,-1
 623 0 l 1,11,-1
 488 0 l 1,0,-1
EndSplineSet
EndChar

StartChar: L
Encoding: 76 76 47
Width: 563
GlyphClass: 2
Flags: W
AnchorPoint: "Anchor-5" 403 723 basechar 0
AnchorPoint: "Anchor-4" 260 0 basechar 0
AnchorPoint: "Anchor-3" 97 723 basechar 0
AnchorPoint: "Anchor-2" -46 0 basechar 0
LayerCount: 2
Fore
SplineSet
265 723 m 1,0,-1
 178 105 l 1,1,-1
 504 105 l 1,2,-1
 489 0 l 1,3,-1
 39 0 l 1,4,-1
 141 723 l 1,5,-1
 265 723 l 1,0,-1
EndSplineSet
EndChar

StartChar: M
Encoding: 77 77 48
Width: 899
GlyphClass: 2
Flags: W
LayerCount: 2
Fore
SplineSet
141 723 m 1,0,-1
 315 723 l 1,1,-1
 427 170 l 1,2,-1
 696 723 l 1,3,-1
 869 723 l 1,4,-1
 767 0 l 1,5,-1
 644 0 l 1,6,-1
 724 567 l 1,7,-1
 453 0 l 1,8,-1
 352 0 l 1,9,-1
 242 563 l 1,10,-1
 163 0 l 1,11,-1
 39 0 l 1,12,-1
 141 723 l 1,0,-1
EndSplineSet
EndChar

StartChar: N
Encoding: 78 78 49
Width: 766
GlyphClass: 2
Flags: W
AnchorPoint: "Anchor-5" -46 0 basechar 0
AnchorPoint: "Anchor-4" 325 0 basechar 0
AnchorPoint: "Anchor-3" 343 723 basechar 0
AnchorPoint: "Anchor-2" -46 0 basechar 0
LayerCount: 2
Fore
SplineSet
736 723 m 1,0,-1
 634 0 l 1,1,-1
 524 0 l 1,2,-1
 235 530 l 1,3,-1
 161 0 l 1,4,-1
 39 0 l 1,5,-1
 141 723 l 1,6,-1
 260 723 l 1,7,-1
 541 207 l 1,8,-1
 614 723 l 1,9,-1
 736 723 l 1,0,-1
EndSplineSet
EndChar

StartChar: O
Encoding: 79 79 50
Width: 742
GlyphClass: 2
Flags: W
AnchorPoint: "Anchor-5" -46 0 basechar 0
AnchorPoint: "Anchor-4" 327 0 basechar 0
AnchorPoint: "Anchor-3" 326 723 basechar 0
AnchorPoint: "Anchor-2" 406 10 basechar 0
LayerCount: 2
Fore
SplineSet
157.5 34 m 128,-1,1
 90 78 90 78 62.5 161 c 128,-1,2
 35 244 35 244 51 359 c 0,3,4
 67 475 67 475 119.5 559.5 c 128,-1,5
 172 644 172 644 251 688.5 c 128,-1,6
 330 733 330 733 429 733 c 0,7,8
 527 733 527 733 593.5 688.5 c 128,-1,9
 660 644 660 644 687.5 560 c 128,-1,10
 715 476 715 476 699 360 c 0,11,12
 683 245 683 245 632 161.5 c 128,-1,13
 581 78 581 78 502.5 34 c 128,-1,14
 424 -10 424 -10 325 -10 c 0,15,0
 225 -10 225 -10 157.5 34 c 128,-1,1
489 157 m 128,-1,17
 547 222 547 222 566 358 c 0,18,19
 586 497 586 497 546 564 c 128,-1,20
 506 631 506 631 415 631 c 128,-1,21
 324 631 324 631 264.5 564 c 128,-1,22
 205 497 205 497 185 358 c 0,23,24
 166 222 166 222 207 157 c 128,-1,25
 248 92 248 92 339 92 c 0,26,16
 431 92 431 92 489 157 c 128,-1,17
EndSplineSet
Substitution2: "Single Substitution lookup 30 subtable" ordmasculine
Substitution2: "'aalt' Access All Alternates in Latin lookup 0 subtable" ordmasculine
EndChar

StartChar: P
Encoding: 80 80 51
Width: 644
GlyphClass: 2
Flags: W
LayerCount: 2
Fore
SplineSet
141 723 m 1,0,-1
 398 723 l 2,1,2
 520 723 520 723 586.5 665.5 c 128,-1,3
 653 608 653 608 638 499 c 0,4,5
 623 393 623 393 546 337 c 128,-1,6
 469 281 469 281 351 281 c 2,7,-1
 202 281 l 1,8,-1
 163 0 l 1,9,-1
 39 0 l 1,10,-1
 141 723 l 1,0,-1
362 378 m 2,11,12
 426 378 426 378 471 412 c 128,-1,13
 516 446 516 446 524 506 c 128,-1,14
 532 566 532 566 496 596.5 c 128,-1,15
 460 627 460 627 393 627 c 2,16,-1
 250 627 l 1,17,-1
 215 378 l 1,18,-1
 362 378 l 2,11,12
EndSplineSet
EndChar

StartChar: Q
Encoding: 81 81 52
Width: 748
GlyphClass: 2
Flags: W
LayerCount: 2
Fore
SplineSet
113.5 560 m 128,-1,1
 165 644 165 644 244 688.5 c 128,-1,2
 323 733 323 733 422 733 c 128,-1,3
 521 733 521 733 588 688.5 c 128,-1,4
 655 644 655 644 682.5 560 c 128,-1,5
 710 476 710 476 694 360 c 0,6,7
 664 147 664 147 519 51 c 1,8,9
 529 17 529 17 560.5 -2 c 128,-1,10
 592 -21 592 -21 635 -23 c 1,11,-1
 621 -122 l 1,12,13
 547 -122 547 -122 494 -97.5 c 128,-1,14
 441 -73 441 -73 403 -2 c 1,15,16
 357 -10 357 -10 318 -10 c 0,17,18
 219 -10 219 -10 152 33.5 c 128,-1,19
 85 77 85 77 57 160.5 c 128,-1,20
 29 244 29 244 46 360 c 0,21,0
 62 476 62 476 113.5 560 c 128,-1,1
332 92 m 0,22,23
 523 92 523 92 560 359 c 0,24,25
 579 497 579 497 540 564 c 128,-1,26
 501 631 501 631 408 631 c 128,-1,27
 315 631 315 631 257 563.5 c 128,-1,28
 199 496 199 496 179 358 c 0,29,30
 142 92 142 92 332 92 c 0,22,23
EndSplineSet
EndChar

StartChar: R
Encoding: 82 82 53
Width: 687
GlyphClass: 2
Flags: W
AnchorPoint: "Anchor-5" -46 0 basechar 0
AnchorPoint: "Anchor-4" 296 0 basechar 0
AnchorPoint: "Anchor-3" 287 723 basechar 0
AnchorPoint: "Anchor-2" -46 0 basechar 0
LayerCount: 2
Fore
SplineSet
453 0 m 1,0,-1
 370 294 l 1,1,-1
 202 294 l 1,2,-1
 161 0 l 1,3,-1
 39 0 l 1,4,-1
 141 723 l 1,5,-1
 435 723 l 2,6,7
 556 723 556 723 609 667.5 c 128,-1,8
 662 612 662 612 648 515 c 0,9,10
 628 372 628 372 486 314 c 1,11,-1
 580 0 l 1,12,-1
 453 0 l 1,0,-1
472.5 422 m 128,-1,14
 516 454 516 454 524 511 c 0,15,16
 532 566 532 566 500.5 597 c 128,-1,17
 469 628 469 628 409 628 c 2,18,-1
 249 628 l 1,19,-1
 216 390 l 1,20,-1
 360 390 l 2,21,13
 429 390 429 390 472.5 422 c 128,-1,14
EndSplineSet
EndChar

StartChar: S
Encoding: 83 83 54
Width: 683
GlyphClass: 2
Flags: W
AnchorPoint: "Anchor-5" -46 0 basechar 0
AnchorPoint: "Anchor-4" 294 0 basechar 0
AnchorPoint: "Anchor-3" 297 723 basechar 0
AnchorPoint: "Anchor-2" -46 0 basechar 0
LayerCount: 2
Fore
SplineSet
163.5 13 m 128,-1,1
 101 36 101 36 64 82.5 c 128,-1,2
 27 129 27 129 28 195 c 1,3,-1
 156 199 l 1,4,5
 161 146 161 146 204 116.5 c 128,-1,6
 247 87 247 87 313 87 c 0,7,8
 384 87 384 87 434 114.5 c 128,-1,9
 484 142 484 142 491 191 c 0,10,11
 497 233 497 233 468 257.5 c 128,-1,12
 439 282 439 282 379 295 c 2,13,-1
 248 324 l 2,14,15
 165 341 165 341 125 390 c 128,-1,16
 85 439 85 439 96 518 c 0,17,18
 105 582 105 582 147 630.5 c 128,-1,19
 189 679 189 679 256 705.5 c 128,-1,20
 323 732 323 732 401 732 c 0,21,22
 483 732 483 732 541 703 c 128,-1,23
 599 674 599 674 627.5 625.5 c 128,-1,24
 656 577 656 577 654 521 c 1,25,-1
 530 517 l 1,26,27
 530 578 530 578 492 605.5 c 128,-1,28
 454 633 454 633 388 633 c 0,29,30
 326 633 326 633 280.5 605 c 128,-1,31
 235 577 235 577 228 529 c 0,32,33
 223 492 223 492 245 469 c 128,-1,34
 267 446 267 446 328 432 c 2,35,-1
 456 403 l 1,36,37
 642 365 642 365 617 192 c 0,38,39
 609 135 609 135 566.5 89 c 128,-1,40
 524 43 524 43 455 16.5 c 128,-1,41
 386 -10 386 -10 300 -10 c 0,42,0
 226 -10 226 -10 163.5 13 c 128,-1,1
EndSplineSet
EndChar

StartChar: T
Encoding: 84 84 55
Width: 591
GlyphClass: 2
Flags: W
AnchorPoint: "Anchor-5" -46 0 basechar 0
AnchorPoint: "Anchor-4" 259 0 basechar 0
AnchorPoint: "Anchor-3" 259 723 basechar 0
AnchorPoint: "Anchor-2" -46 0 basechar 0
LayerCount: 2
Fore
SplineSet
69 723 m 1,0,-1
 633 723 l 1,1,-1
 617 613 l 1,2,-1
 400 613 l 1,3,-1
 314 0 l 1,4,-1
 193 0 l 1,5,-1
 279 613 l 1,6,-1
 53 613 l 1,7,-1
 69 723 l 1,0,-1
EndSplineSet
EndChar

StartChar: U
Encoding: 85 85 56
Width: 727
GlyphClass: 2
Flags: W
AnchorPoint: "Anchor-5" -46 0 basechar 0
AnchorPoint: "Anchor-4" -46 0 basechar 0
AnchorPoint: "Anchor-3" 309 723 basechar 0
AnchorPoint: "Anchor-2" 392 11 basechar 0
LayerCount: 2
Fore
SplineSet
537 60.5 m 128,-1,1
 461 -10 461 -10 316 -10 c 0,2,3
 170 -10 170 -10 114 61.5 c 128,-1,4
 58 133 58 133 77 271 c 2,5,-1
 141 723 l 1,6,-1
 266 723 l 1,7,-1
 200 259 l 2,8,9
 188 176 188 176 222.5 135 c 128,-1,10
 257 94 257 94 330 94 c 128,-1,11
 403 94 403 94 450 135 c 128,-1,12
 497 176 497 176 508 259 c 2,13,-1
 574 723 l 1,14,-1
 697 723 l 1,15,-1
 632 264 l 2,16,0
 613 131 613 131 537 60.5 c 128,-1,1
EndSplineSet
EndChar

StartChar: V
Encoding: 86 86 57
Width: 664
GlyphClass: 2
Flags: W
LayerCount: 2
Fore
SplineSet
355 0 m 1,0,-1
 214 0 l 1,1,-1
 67 723 l 1,2,-1
 184 723 l 1,3,-1
 305 140 l 1,4,-1
 592 723 l 1,5,-1
 710 723 l 1,6,-1
 355 0 l 1,0,-1
EndSplineSet
EndChar

StartChar: W
Encoding: 87 87 58
Width: 960
GlyphClass: 2
Flags: W
AnchorPoint: "Anchor-5" -46 0 basechar 0
AnchorPoint: "Anchor-4" -46 0 basechar 0
AnchorPoint: "Anchor-3" 436 723 basechar 0
AnchorPoint: "Anchor-2" -46 0 basechar 0
LayerCount: 2
Fore
SplineSet
682 0 m 1,0,-1
 579 0 l 1,1,-1
 505 513 l 1,2,-1
 285 0 l 1,3,-1
 185 0 l 1,4,-1
 76 723 l 1,5,-1
 196 723 l 1,6,-1
 269 201 l 1,7,-1
 490 723 l 1,8,-1
 581 723 l 1,9,-1
 655 201 l 1,10,-1
 876 723 l 1,11,-1
 996 723 l 1,12,-1
 682 0 l 1,0,-1
EndSplineSet
EndChar

StartChar: X
Encoding: 88 88 59
Width: 677
GlyphClass: 2
Flags: W
LayerCount: 2
Fore
SplineSet
459 0 m 1,0,-1
 321 276 l 1,1,-1
 107 0 l 1,2,-1
 -26 0 l 1,3,-1
 269 368 l 1,4,-1
 84 723 l 1,5,-1
 237 723 l 1,6,-1
 360 471 l 1,7,-1
 555 723 l 1,8,-1
 687 723 l 1,9,-1
 412 383 l 1,10,-1
 612 0 l 1,11,-1
 459 0 l 1,0,-1
EndSplineSet
EndChar

StartChar: Y
Encoding: 89 89 60
Width: 630
GlyphClass: 2
Flags: W
AnchorPoint: "Anchor-5" -46 0 basechar 0
AnchorPoint: "Anchor-4" -46 0 basechar 0
AnchorPoint: "Anchor-3" 280 723 basechar 0
AnchorPoint: "Anchor-2" -46 0 basechar 0
LayerCount: 2
Fore
SplineSet
373 306 m 1,0,-1
 330 0 l 1,1,-1
 208 0 l 1,2,-1
 251 306 l 1,3,-1
 61 723 l 1,4,-1
 193 723 l 1,5,-1
 328 412 l 1,6,-1
 547 723 l 1,7,-1
 680 723 l 1,8,-1
 373 306 l 1,0,-1
EndSplineSet
EndChar

StartChar: Z
Encoding: 90 90 61
Width: 646
GlyphClass: 2
Flags: W
AnchorPoint: "Anchor-5" -46 0 basechar 0
AnchorPoint: "Anchor-4" 286 0 basechar 0
AnchorPoint: "Anchor-3" 294 723 basechar 0
AnchorPoint: "Anchor-2" -46 0 basechar 0
LayerCount: 2
Fore
SplineSet
11 62 m 1,0,-1
 469 620 l 1,1,-1
 110 620 l 1,2,-1
 125 723 l 1,3,-1
 657 723 l 1,4,-1
 648 664 l 1,5,-1
 185 104 l 1,6,-1
 567 104 l 1,7,-1
 552 0 l 1,8,-1
 2 0 l 1,9,-1
 11 62 l 1,0,-1
EndSplineSet
EndChar

StartChar: bracketleft
Encoding: 91 91 62
Width: 316
GlyphClass: 2
Flags: W
LayerCount: 2
Fore
SplineSet
345 723 m 1,0,-1
 334 651 l 1,1,-1
 227 651 l 1,2,-1
 122 -89 l 1,3,-1
 230 -89 l 1,4,-1
 220 -161 l 1,5,-1
 11 -161 l 1,6,-1
 135 723 l 1,7,-1
 345 723 l 1,0,-1
EndSplineSet
EndChar

StartChar: backslash
Encoding: 92 92 63
Width: 363
GlyphClass: 2
Flags: W
LayerCount: 2
Fore
SplineSet
63 723 m 1,0,-1
 151 723 l 1,1,-1
 297 -28 l 1,2,-1
 208 -28 l 1,3,-1
 63 723 l 1,0,-1
EndSplineSet
EndChar

StartChar: bracketright
Encoding: 93 93 64
Width: 316
GlyphClass: 2
Flags: W
LayerCount: 2
Fore
SplineSet
11 -161 m 1,0,-1
 22 -89 l 1,1,-1
 129 -89 l 1,2,-1
 234 651 l 1,3,-1
 126 651 l 1,4,-1
 136 723 l 1,5,-1
 345 723 l 1,6,-1
 221 -161 l 1,7,-1
 11 -161 l 1,0,-1
EndSplineSet
EndChar

StartChar: asciicircum
Encoding: 94 94 65
Width: 476
GlyphClass: 2
Flags: W
LayerCount: 2
Fore
SplineSet
244 397 m 1,0,-1
 96 126 l 1,1,-1
 10 126 l 1,2,-1
 214 491 l 2,3,4
 223 508 223 508 236 517 c 128,-1,5
 249 526 249 526 263 526 c 0,6,7
 276 526 276 526 286.5 517.5 c 128,-1,8
 297 509 297 509 301 492 c 2,9,-1
 403 125 l 1,10,-1
 316 125 l 1,11,-1
 244 397 l 1,0,-1
EndSplineSet
EndChar

StartChar: underscore
Encoding: 95 95 66
Width: 536
GlyphClass: 2
Flags: W
LayerCount: 2
Fore
SplineSet
409 -129 m 1,0,-1
 -6 -129 l 1,1,-1
 7 -39 l 1,2,-1
 422 -38 l 1,3,-1
 409 -129 l 1,0,-1
EndSplineSet
EndChar

StartChar: grave
Encoding: 96 96 67
Width: 302
GlyphClass: 2
Flags: W
LayerCount: 2
Fore
SplineSet
330 633 m 1,0,-1
 303 578 l 1,1,-1
 54 649 l 1,2,-1
 95 733 l 1,3,-1
 330 633 l 1,0,-1
EndSplineSet
EndChar

StartChar: a
Encoding: 97 97 68
Width: 602
GlyphClass: 2
Flags: W
LayerCount: 2
Fore
SplineSet
361 0 m 1,0,-1
 368 49 l 1,1,2
 328 17 328 17 290.5 3.5 c 128,-1,3
 253 -10 253 -10 213 -10 c 0,4,5
 149 -10 149 -10 103.5 21 c 128,-1,6
 58 52 58 52 39 113.5 c 128,-1,7
 20 175 20 175 32 264 c 0,8,9
 44 350 44 350 80.5 409 c 128,-1,10
 117 468 117 468 168.5 497.5 c 128,-1,11
 220 527 220 527 280 527 c 0,12,13
 331 527 331 527 364.5 508 c 128,-1,14
 398 489 398 489 426 460 c 1,15,-1
 434 517 l 1,16,-1
 556 517 l 1,17,-1
 482 0 l 1,18,-1
 361 0 l 1,0,-1
387 188 m 1,19,-1
 404 307 l 2,20,21
 412 366 412 366 386 404 c 128,-1,22
 360 442 360 442 309 442 c 0,23,24
 254 442 254 442 211 397 c 128,-1,25
 168 352 168 352 156 264 c 128,-1,26
 144 176 144 176 173.5 125 c 128,-1,27
 203 74 203 74 261 74 c 0,28,29
 334 74 334 74 387 188 c 1,19,-1
EndSplineSet
Substitution2: "Single Substitution lookup 30 subtable" ordfeminine
Substitution2: "'aalt' Access All Alternates in Latin lookup 0 subtable" ordfeminine
EndChar

StartChar: b
Encoding: 98 98 69
Width: 601
GlyphClass: 2
Flags: W
LayerCount: 2
Fore
SplineSet
191.5 16 m 128,-1,1
 151 42 151 42 139 75 c 1,2,-1
 115 0 l 1,3,-1
 26 0 l 1,4,-1
 130 743 l 1,5,-1
 252 743 l 1,6,-1
 210 444 l 1,7,8
 235 477 235 477 281 502 c 128,-1,9
 327 527 327 527 382 527 c 0,10,11
 482 527 482 527 525 454 c 128,-1,12
 568 381 568 381 551 261 c 0,13,14
 533 136 533 136 464 63 c 128,-1,15
 395 -10 395 -10 290 -10 c 0,16,0
 232 -10 232 -10 191.5 16 c 128,-1,1
372 124.5 m 128,-1,18
 413 169 413 169 426 262 c 0,19,20
 438 350 438 350 412 393 c 128,-1,21
 386 436 386 436 328 436 c 0,22,23
 285 436 285 436 250 408.5 c 128,-1,24
 215 381 215 381 194 330 c 1,25,-1
 179 221 l 2,26,27
 170 157 170 157 197.5 118.5 c 128,-1,28
 225 80 225 80 273 80 c 0,29,17
 331 80 331 80 372 124.5 c 128,-1,18
EndSplineSet
EndChar

StartChar: c
Encoding: 99 99 70
Width: 536
GlyphClass: 2
Flags: W
AnchorPoint: "Anchor-5" -46 0 basechar 0
AnchorPoint: "Anchor-4" 238 0 basechar 0
AnchorPoint: "Anchor-3" 238 517 basechar 0
AnchorPoint: "Anchor-2" -46 0 basechar 0
LayerCount: 2
Fore
SplineSet
442.5 480 m 128,-1,1
 488 433 488 433 496 357 c 1,2,-1
 396 347 l 1,3,4
 376 392 376 392 357.5 412.5 c 128,-1,5
 339 433 339 433 302 433 c 0,6,7
 241 433 241 433 199 386 c 128,-1,8
 157 339 157 339 145 258 c 0,9,10
 133 176 133 176 163 127.5 c 128,-1,11
 193 79 193 79 254 79 c 0,12,13
 294 79 294 79 322 102.5 c 128,-1,14
 350 126 350 126 376 168 c 1,15,-1
 470 158 l 1,16,17
 442 83 442 83 381.5 36.5 c 128,-1,18
 321 -10 321 -10 238 -10 c 0,19,20
 166 -10 166 -10 115 23.5 c 128,-1,21
 64 57 64 57 42 117.5 c 128,-1,22
 20 178 20 178 31 256 c 0,23,24
 42 335 42 335 81 396.5 c 128,-1,25
 120 458 120 458 180.5 492.5 c 128,-1,26
 241 527 241 527 313 527 c 0,27,0
 397 527 397 527 442.5 480 c 128,-1,1
EndSplineSet
EndChar

StartChar: d
Encoding: 100 100 71
Width: 596
GlyphClass: 2
Flags: W
AnchorPoint: "Anchor-5" 542 614 basechar 0
AnchorPoint: "Anchor-4" 245 0 basechar 0
AnchorPoint: "Anchor-3" -46 0 basechar 0
AnchorPoint: "Anchor-2" -46 0 basechar 0
LayerCount: 2
Fore
SplineSet
61 60 m 128,-1,1
 13 130 13 130 31 256 c 0,2,3
 49 381 49 381 114.5 454 c 128,-1,4
 180 527 180 527 280 527 c 0,5,6
 372 527 372 527 420 460 c 1,7,-1
 459 743 l 1,8,-1
 581 743 l 1,9,-1
 477 0 l 1,10,-1
 387 0 l 1,11,-1
 389 72 l 1,12,13
 362 41 362 41 316.5 15.5 c 128,-1,14
 271 -10 271 -10 210 -10 c 0,15,0
 109 -10 109 -10 61 60 c 128,-1,1
338 116.5 m 128,-1,17
 377 153 377 153 384 205 c 2,18,-1
 403 345 l 1,19,20
 385 436 385 436 302 436 c 0,21,22
 244 436 244 436 203.5 392 c 128,-1,23
 163 348 163 348 150 259 c 0,24,25
 137 168 137 168 165 124 c 128,-1,26
 193 80 193 80 250 80 c 0,27,16
 299 80 299 80 338 116.5 c 128,-1,17
EndSplineSet
EndChar

StartChar: e
Encoding: 101 101 72
Width: 559
GlyphClass: 2
Flags: W
AnchorPoint: "Anchor-5" -46 0 basechar 0
AnchorPoint: "Anchor-4" 237 0 basechar 0
AnchorPoint: "Anchor-3" 239 517 basechar 0
AnchorPoint: "Anchor-2" 351 22 basechar 0
LayerCount: 2
Fore
SplineSet
167 122 m 128,-1,1
 195 81 195 81 256 81 c 0,2,3
 299 81 299 81 330 98 c 128,-1,4
 361 115 361 115 380 151 c 1,5,-1
 488 143 l 1,6,7
 463 73 463 73 395 31.5 c 128,-1,8
 327 -10 327 -10 247 -10 c 0,9,10
 173 -10 173 -10 120 22 c 128,-1,11
 67 54 67 54 43 113.5 c 128,-1,12
 19 173 19 173 31 253 c 0,13,14
 42 333 42 333 79.5 395 c 128,-1,15
 117 457 117 457 177 492 c 128,-1,16
 237 527 237 527 313 527 c 0,17,18
 424 527 424 527 475 456.5 c 128,-1,19
 526 386 526 386 510 267 c 2,20,-1
 504 230 l 1,21,-1
 148 230 l 1,22,0
 139 163 139 163 167 122 c 128,-1,1
401 306 m 1,23,24
 409 365 409 365 383.5 402 c 128,-1,25
 358 439 358 439 300 439 c 0,26,27
 243 439 243 439 204.5 399 c 128,-1,28
 166 359 166 359 159 306 c 1,29,-1
 401 306 l 1,23,24
EndSplineSet
EndChar

StartChar: f
Encoding: 102 102 73
Width: 397
GlyphClass: 2
Flags: W
LayerCount: 2
Fore
SplineSet
380 431 m 1,0,-1
 263 431 l 1,1,-1
 179 -161 l 1,2,-1
 57 -161 l 1,3,-1
 141 431 l 1,4,-1
 39 431 l 1,5,-1
 51 517 l 1,6,-1
 153 517 l 1,7,-1
 163 594 l 2,8,9
 172 656 172 656 211.5 689.5 c 128,-1,10
 251 723 251 723 316 723 c 2,11,-1
 425 723 l 1,12,-1
 414 640 l 1,13,-1
 341 640 l 2,14,15
 312 640 312 640 299 625.5 c 128,-1,16
 286 611 286 611 281 577 c 2,17,-1
 273 517 l 1,18,-1
 392 517 l 1,19,-1
 380 431 l 1,0,-1
EndSplineSet
EndChar

StartChar: g
Encoding: 103 103 74
Width: 618
GlyphClass: 2
Flags: W
AnchorPoint: "Anchor-5" -46 0 basechar 0
AnchorPoint: "Anchor-4" -46 0 basechar 0
AnchorPoint: "Anchor-3" 258 517 basechar 0
AnchorPoint: "Anchor-2" -46 0 basechar 0
LayerCount: 2
Fore
SplineSet
35 -135.5 m 128,-1,1
 -30 -100 -30 -100 -22 -40 c 0,2,3
 -16 0 -16 0 14 22 c 128,-1,4
 44 44 44 44 66 53 c 128,-1,5
 88 62 88 62 92 64 c 1,6,7
 89 66 89 66 74 75 c 128,-1,8
 59 84 59 84 49.5 100 c 128,-1,9
 40 116 40 116 43 136 c 0,10,11
 47 163 47 163 75.5 185 c 128,-1,12
 104 207 104 207 153 216 c 1,13,14
 60 265 60 265 74 362 c 0,15,16
 85 438 85 438 156.5 481.5 c 128,-1,17
 228 525 228 525 332 525 c 0,18,19
 381 525 381 525 414 514 c 128,-1,20
 447 503 447 503 476 482 c 1,21,-1
 627 540 l 1,22,-1
 612 440 l 1,23,-1
 520 424 l 1,24,25
 524 412 524 412 525.5 393.5 c 128,-1,26
 527 375 527 375 525 363 c 0,27,28
 519 318 519 318 488 279.5 c 128,-1,29
 457 241 457 241 403 218 c 128,-1,30
 349 195 349 195 276 195 c 0,31,32
 256 195 256 195 235 197 c 0,33,34
 165 194 165 194 161 169 c 0,35,36
 159 157 159 157 178.5 152 c 128,-1,37
 198 147 198 147 251 143 c 2,38,-1
 360 137 l 2,39,40
 449 131 449 131 488.5 93 c 128,-1,41
 528 55 528 55 519 -7 c 0,42,43
 508 -83 508 -83 433 -127 c 128,-1,44
 358 -171 358 -171 230 -171 c 0,45,0
 100 -171 100 -171 35 -135.5 c 128,-1,1
372 291 m 128,-1,47
 403 315 403 315 409 359 c 0,48,49
 415 404 415 404 390.5 430.5 c 128,-1,50
 366 457 366 457 316 457 c 128,-1,51
 266 457 266 457 233.5 430.5 c 128,-1,52
 201 404 201 404 194 359 c 0,53,54
 188 316 188 316 213.5 291.5 c 128,-1,55
 239 267 239 267 290 267 c 128,-1,46
 341 267 341 267 372 291 c 128,-1,47
361 -82 m 128,-1,57
 394 -65 394 -65 399 -29 c 0,58,59
 407 29 407 29 323 35 c 2,60,-1
 193 44 l 2,61,62
 161 46 161 46 132 24.5 c 128,-1,63
 103 3 103 3 99 -26 c 0,64,65
 94 -64 94 -64 134.5 -81.5 c 128,-1,66
 175 -99 175 -99 260 -99 c 0,67,56
 328 -99 328 -99 361 -82 c 128,-1,57
EndSplineSet
EndChar

StartChar: h
Encoding: 104 104 75
Width: 600
GlyphClass: 2
Flags: W
AnchorPoint: "Anchor-5" -46 0 basechar 0
AnchorPoint: "Anchor-4" 259 0 basechar 0
AnchorPoint: "Anchor-3" 342 517 basechar 0
AnchorPoint: "Anchor-2" -46 0 basechar 0
LayerCount: 2
Fore
SplineSet
130 743 m 1,0,-1
 249 743 l 1,1,-1
 208 447 l 1,2,3
 247 476 247 476 269 490 c 128,-1,4
 291 504 291 504 319 513 c 128,-1,5
 347 522 347 522 384 522 c 0,6,7
 459 522 459 522 500.5 478 c 128,-1,8
 542 434 542 434 532 363 c 2,9,-1
 481 0 l 1,10,-1
 359 0 l 1,11,-1
 407 344 l 2,12,13
 412 382 412 382 392 404 c 128,-1,14
 372 426 372 426 331 426 c 0,15,16
 296 426 296 426 263.5 409 c 128,-1,17
 231 392 231 392 198 358 c 1,18,-1
 148 0 l 1,19,-1
 26 0 l 1,20,-1
 130 743 l 1,0,-1
EndSplineSet
EndChar

StartChar: i
Encoding: 105 105 76
Width: 271
GlyphClass: 2
Flags: W
LayerCount: 2
Fore
SplineSet
238 611 m 1,0,-1
 112 611 l 1,1,-1
 130 743 l 1,2,-1
 256 743 l 1,3,-1
 238 611 l 1,0,-1
150 0 m 1,4,-1
 28 0 l 1,5,-1
 101 517 l 1,6,-1
 223 517 l 1,7,-1
 150 0 l 1,4,-1
EndSplineSet
Substitution2: "Single Substitution lookup 28 subtable" dotlessi
Substitution2: "'locl' Localized Forms in Latin lookup 10 subtable" i.loclTRK
Substitution2: "'locl' Localized Forms in Latin lookup 9 subtable" i.loclTRK
Substitution2: "'locl' Localized Forms in Latin lookup 8 subtable" i.loclTRK
Substitution2: "'locl' Localized Forms in Latin lookup 7 subtable" i.loclTRK
Substitution2: "'locl' Localized Forms in Latin lookup 6 subtable" i.loclTRK
AlternateSubs2: "'aalt' Access All Alternates in Latin lookup 1 subtable" dotlessi i.loclTRK
EndChar

StartChar: j
Encoding: 106 106 77
Width: 286
GlyphClass: 2
Flags: W
LayerCount: 2
Fore
SplineSet
247 611 m 1,0,-1
 121 611 l 1,1,-1
 139 743 l 1,2,-1
 265 743 l 1,3,-1
 247 611 l 1,0,-1
103.5 -127.5 m 128,-1,5
 61 -166 61 -166 -24 -166 c 0,6,7
 -48 -166 -48 -166 -62 -163 c 128,-1,8
 -76 -160 -76 -160 -81.5 -157 c 128,-1,9
 -87 -154 -87 -154 -88 -153 c 2,10,-1
 -77 -72 l 1,11,-1
 -32 -68 l 2,12,13
 1 -65 1 -65 16.5 -50.5 c 128,-1,14
 32 -36 32 -36 36 -6 c 2,15,-1
 110 517 l 1,16,-1
 232 517 l 1,17,-1
 158 -9 l 2,18,4
 146 -89 146 -89 103.5 -127.5 c 128,-1,5
EndSplineSet
Substitution2: "Single Substitution lookup 28 subtable" uni0237
Substitution2: "'aalt' Access All Alternates in Latin lookup 0 subtable" uni0237
EndChar

StartChar: k
Encoding: 107 107 78
Width: 578
GlyphClass: 2
Flags: W
AnchorPoint: "Anchor-5" -46 0 basechar 0
AnchorPoint: "Anchor-4" 243 0 basechar 0
AnchorPoint: "Anchor-3" -46 0 basechar 0
AnchorPoint: "Anchor-2" -46 0 basechar 0
LayerCount: 2
Fore
SplineSet
381 0 m 1,0,-1
 266 240 l 1,1,-1
 169 152 l 1,2,-1
 148 0 l 1,3,-1
 26 0 l 1,4,-1
 130 743 l 1,5,-1
 252 743 l 1,6,-1
 187 277 l 1,7,-1
 441 517 l 1,8,-1
 569 517 l 1,9,-1
 353 315 l 1,10,-1
 505 0 l 1,11,-1
 381 0 l 1,0,-1
EndSplineSet
EndChar

StartChar: l
Encoding: 108 108 79
Width: 308
GlyphClass: 2
Flags: W
AnchorPoint: "Anchor-5" 281 745 basechar 0
AnchorPoint: "Anchor-4" 78 0 basechar 0
AnchorPoint: "Anchor-3" 85 764 basechar 0
AnchorPoint: "Anchor-2" -46 0 basechar 0
LayerCount: 2
Fore
SplineSet
82 15 m 128,-1,1
 52 35 52 35 46 66.5 c 128,-1,2
 40 98 40 98 46 142 c 2,3,-1
 130 743 l 1,4,-1
 250 743 l 1,5,-1
 168 156 l 2,6,7
 163 122 163 122 174.5 103.5 c 128,-1,8
 186 85 186 85 216 82 c 2,9,-1
 241 81 l 1,10,-1
 231 5 l 1,11,12
 200 -5 200 -5 175 -5 c 0,13,0
 112 -5 112 -5 82 15 c 128,-1,1
EndSplineSet
Substitution2: "'ss01' Style Set 1 in Latin lookup 27 subtable" l.ss01
Substitution2: "'salt' Stylistic Alternatives in Latin lookup 26 subtable" l.ss01
Substitution2: "'aalt' Access All Alternates in Latin lookup 0 subtable" l.ss01
EndChar

StartChar: m
Encoding: 109 109 80
Width: 915
GlyphClass: 2
Flags: W
LayerCount: 2
Fore
SplineSet
99 517 m 1,0,-1
 218 517 l 1,1,-1
 208 448 l 1,2,3
 241 481 241 481 284.5 504 c 128,-1,4
 328 527 328 527 382 527 c 0,5,6
 433 527 433 527 471.5 507 c 128,-1,7
 510 487 510 487 525 448 c 1,8,9
 556 485 556 485 601 506 c 128,-1,10
 646 527 646 527 697 527 c 0,11,12
 767 527 767 527 812.5 484 c 128,-1,13
 858 441 858 441 845 350 c 2,14,-1
 796 0 l 1,15,-1
 674 0 l 1,16,-1
 722 338 l 2,17,18
 729 390 729 390 705.5 413 c 128,-1,19
 682 436 682 436 638 436 c 0,20,21
 589 436 589 436 557 411 c 128,-1,22
 525 386 525 386 518 333 c 2,23,-1
 471 0 l 1,24,-1
 350 0 l 1,25,-1
 400 357 l 2,26,27
 405 394 405 394 379.5 415 c 128,-1,28
 354 436 354 436 313 436 c 0,29,30
 274 436 274 436 238.5 413.5 c 128,-1,31
 203 391 203 391 197 350 c 2,32,-1
 148 0 l 1,33,-1
 26 0 l 1,34,-1
 99 517 l 1,0,-1
EndSplineSet
EndChar

StartChar: n
Encoding: 110 110 81
Width: 601
GlyphClass: 2
Flags: W
AnchorPoint: "Anchor-5" -46 0 basechar 0
AnchorPoint: "Anchor-4" 254 0 basechar 0
AnchorPoint: "Anchor-3" 259 517 basechar 0
AnchorPoint: "Anchor-2" -46 0 basechar 0
LayerCount: 2
Fore
SplineSet
99 517 m 1,0,-1
 218 517 l 1,1,-1
 208 448 l 1,2,3
 239 483 239 483 278.5 503 c 128,-1,4
 318 523 318 523 375 523 c 0,5,6
 424 523 424 523 461.5 501 c 128,-1,7
 499 479 499 479 518.5 438 c 128,-1,8
 538 397 538 397 530 342 c 2,9,-1
 482 0 l 1,10,-1
 360 0 l 1,11,-1
 406 329 l 2,12,13
 412 374 412 374 388.5 400 c 128,-1,14
 365 426 365 426 321 426 c 0,15,16
 274 426 274 426 238 403.5 c 128,-1,17
 202 381 202 381 196 340 c 2,18,-1
 148 0 l 1,19,-1
 26 0 l 1,20,-1
 99 517 l 1,0,-1
EndSplineSet
EndChar

StartChar: o
Encoding: 111 111 82
Width: 569
GlyphClass: 2
Flags: W
AnchorPoint: "Anchor-5" -46 0 basechar 0
AnchorPoint: "Anchor-4" 237 0 basechar 0
AnchorPoint: "Anchor-3" 240 517 basechar 0
AnchorPoint: "Anchor-2" 309 10 basechar 0
LayerCount: 2
Fore
SplineSet
112.5 23.5 m 128,-1,1
 62 57 62 57 41 117 c 128,-1,2
 20 177 20 177 31 255 c 0,3,4
 42 335 42 335 80.5 396.5 c 128,-1,5
 119 458 119 458 180 492.5 c 128,-1,6
 241 527 241 527 314 527 c 0,7,8
 388 527 388 527 438 492.5 c 128,-1,9
 488 458 488 458 508.5 396.5 c 128,-1,10
 529 335 529 335 518 256 c 0,11,12
 507 178 507 178 469.5 117.5 c 128,-1,13
 432 57 432 57 372.5 23.5 c 128,-1,14
 313 -10 313 -10 238 -10 c 128,-1,0
 163 -10 163 -10 112.5 23.5 c 128,-1,1
352 132.5 m 128,-1,16
 389 183 389 183 400 260 c 128,-1,17
 411 337 411 337 387 386 c 128,-1,18
 363 435 363 435 301 435 c 0,19,20
 237 435 237 435 199.5 386 c 128,-1,21
 162 337 162 337 152 260 c 0,22,23
 141 183 141 183 165 132.5 c 128,-1,24
 189 82 189 82 252 82 c 128,-1,15
 315 82 315 82 352 132.5 c 128,-1,16
EndSplineSet
Substitution2: "Single Substitution lookup 30 subtable" ordmasculine
Substitution2: "'aalt' Access All Alternates in Latin lookup 0 subtable" ordmasculine
EndChar

StartChar: p
Encoding: 112 112 83
Width: 600
GlyphClass: 2
Flags: W
LayerCount: 2
Fore
SplineSet
99 517 m 1,0,-1
 220 517 l 1,1,-1
 210 449 l 1,2,3
 282 527 282 527 377 527 c 0,4,5
 437 527 437 527 480.5 497.5 c 128,-1,6
 524 468 524 468 543 409 c 128,-1,7
 562 350 562 350 550 264 c 0,8,9
 537 175 537 175 498.5 113.5 c 128,-1,10
 460 52 460 52 404.5 21 c 128,-1,11
 349 -10 349 -10 285 -10 c 0,12,13
 197 -10 197 -10 156 54 c 1,14,-1
 125 -161 l 1,15,-1
 3 -161 l 1,16,-1
 99 517 l 1,0,-1
378.5 128 m 128,-1,18
 423 176 423 176 435 262 c 0,19,20
 447 345 447 345 415 390.5 c 128,-1,21
 383 436 383 436 328 436 c 0,22,23
 295 436 295 436 266 419.5 c 128,-1,24
 237 403 237 403 217 377 c 128,-1,25
 197 351 197 351 194 325 c 2,26,-1
 171 165 l 1,27,28
 183 127 183 127 210.5 103.5 c 128,-1,29
 238 80 238 80 275 80 c 0,30,17
 334 80 334 80 378.5 128 c 128,-1,18
EndSplineSet
EndChar

StartChar: q
Encoding: 113 113 84
Width: 602
GlyphClass: 2
Flags: W
LayerCount: 2
Fore
SplineSet
338 -161 m 1,0,-1
 368 49 l 1,1,2
 328 17 328 17 290.5 3.5 c 128,-1,3
 253 -10 253 -10 213 -10 c 0,4,5
 149 -10 149 -10 103.5 21 c 128,-1,6
 58 52 58 52 39 113.5 c 128,-1,7
 20 175 20 175 32 264 c 0,8,9
 44 350 44 350 80.5 409 c 128,-1,10
 117 468 117 468 168.5 497.5 c 128,-1,11
 220 527 220 527 280 527 c 0,12,13
 331 527 331 527 364.5 508 c 128,-1,14
 398 489 398 489 426 460 c 1,15,-1
 434 517 l 1,16,-1
 556 517 l 1,17,-1
 460 -161 l 1,18,-1
 338 -161 l 1,0,-1
387 188 m 1,19,-1
 404 307 l 2,20,21
 412 366 412 366 386 404 c 128,-1,22
 360 442 360 442 309 442 c 0,23,24
 254 442 254 442 211 397 c 128,-1,25
 168 352 168 352 156 264 c 128,-1,26
 144 176 144 176 173.5 125 c 128,-1,27
 203 74 203 74 261 74 c 0,28,29
 334 74 334 74 387 188 c 1,19,-1
EndSplineSet
EndChar

StartChar: r
Encoding: 114 114 85
Width: 406
GlyphClass: 2
Flags: W
AnchorPoint: "Anchor-5" -46 0 basechar 0
AnchorPoint: "Anchor-4" 93 0 basechar 0
AnchorPoint: "Anchor-3" 176 517 basechar 0
AnchorPoint: "Anchor-2" -46 0 basechar 0
LayerCount: 2
Fore
SplineSet
99 517 m 1,0,-1
 216 517 l 1,1,-1
 199 397 l 1,2,3
 231 454 231 454 286 490.5 c 128,-1,4
 341 527 341 527 401 527 c 1,5,-1
 386 411 l 1,6,-1
 367 412 l 2,7,8
 316 412 316 412 277 394.5 c 128,-1,9
 238 377 238 377 215.5 349.5 c 128,-1,10
 193 322 193 322 189 292 c 2,11,-1
 148 0 l 1,12,-1
 26 0 l 1,13,-1
 99 517 l 1,0,-1
EndSplineSet
EndChar

StartChar: s
Encoding: 115 115 86
Width: 513
GlyphClass: 2
Flags: W
AnchorPoint: "Anchor-5" -46 0 basechar 0
AnchorPoint: "Anchor-4" 212 0 basechar 0
AnchorPoint: "Anchor-3" 209 517 basechar 0
AnchorPoint: "Anchor-2" -46 0 basechar 0
LayerCount: 2
Fore
SplineSet
70.5 29.5 m 128,-1,1
 15 69 15 69 11 145 c 1,2,-1
 114 152 l 1,3,4
 121 110 121 110 150.5 93 c 128,-1,5
 180 76 180 76 225 76 c 0,6,7
 273 76 273 76 306.5 94 c 128,-1,8
 340 112 340 112 344 142 c 0,9,10
 351 190 351 190 280 207 c 2,11,-1
 186 227 l 2,12,13
 45 256 45 256 60 368 c 0,14,15
 70 440 70 440 132 483.5 c 128,-1,16
 194 527 194 527 290 527 c 0,17,18
 387 527 387 527 436 483.5 c 128,-1,19
 485 440 485 440 476 371 c 1,20,-1
 374 367 l 1,21,22
 372 407 372 407 345 425.5 c 128,-1,23
 318 444 318 444 275 444 c 0,24,25
 233 444 233 444 204 428.5 c 128,-1,26
 175 413 175 413 170 376 c 0,27,28
 167 356 167 356 184 341.5 c 128,-1,29
 201 327 201 327 246 317 c 2,30,-1
 335 295 l 2,31,32
 406 277 406 277 431.5 235.5 c 128,-1,33
 457 194 457 194 451 148 c 0,34,35
 444 100 444 100 411 64.5 c 128,-1,36
 378 29 378 29 326 9.5 c 128,-1,37
 274 -10 274 -10 211 -10 c 0,38,0
 126 -10 126 -10 70.5 29.5 c 128,-1,1
EndSplineSet
EndChar

StartChar: t
Encoding: 116 116 87
Width: 409
GlyphClass: 2
Flags: W
AnchorPoint: "Anchor-5" 351 767 basechar 0
AnchorPoint: "Anchor-4" 215 0 basechar 0
AnchorPoint: "Anchor-3" -46 0 basechar 0
AnchorPoint: "Anchor-2" -46 0 basechar 0
LayerCount: 2
Fore
SplineSet
257 431 m 1,0,-1
 216 137 l 2,1,2
 212 105 212 105 221 93 c 128,-1,3
 230 81 230 81 252 81 c 2,4,-1
 326 81 l 1,5,-1
 316 7 l 1,6,7
 290 -4 290 -4 230 -4 c 0,8,9
 143 -4 143 -4 113.5 29.5 c 128,-1,10
 84 63 84 63 93 130 c 2,11,-1
 136 431 l 1,12,-1
 52 431 l 1,13,-1
 64 517 l 1,14,-1
 152 517 l 1,15,-1
 190 685 l 1,16,-1
 292 685 l 1,17,-1
 269 518 l 1,18,-1
 385 518 l 1,19,-1
 373 431 l 1,20,-1
 257 431 l 1,0,-1
EndSplineSet
EndChar

StartChar: u
Encoding: 117 117 88
Width: 601
GlyphClass: 2
Flags: W
AnchorPoint: "Anchor-5" -46 0 basechar 0
AnchorPoint: "Anchor-4" 253 0 basechar 0
AnchorPoint: "Anchor-3" 248 517 basechar 0
AnchorPoint: "Anchor-2" 461 10 basechar 0
LayerCount: 2
Fore
SplineSet
130 9.5 m 128,-1,1
 88 28 88 28 64.5 67 c 128,-1,2
 41 106 41 106 49 163 c 2,3,-1
 99 518 l 1,4,-1
 221 518 l 1,5,-1
 173 177 l 2,6,7
 166 129 166 129 193 105 c 128,-1,8
 220 81 220 81 262 81 c 0,9,10
 308 81 308 81 342.5 107.5 c 128,-1,11
 377 134 377 134 384 181 c 2,12,-1
 432 518 l 1,13,-1
 555 518 l 1,14,-1
 480 0 l 1,15,-1
 386 0 l 1,16,-1
 390 76 l 1,17,18
 366 39 366 39 315.5 14.5 c 128,-1,19
 265 -10 265 -10 218 -10 c 0,20,0
 172 -9 172 -9 130 9.5 c 128,-1,1
EndSplineSet
EndChar

StartChar: v
Encoding: 118 118 89
Width: 543
GlyphClass: 2
Flags: W
LayerCount: 2
Fore
SplineSet
269 0 m 1,0,-1
 183 0 l 1,1,-1
 46 517 l 1,2,-1
 157 517 l 1,3,-1
 248 157 l 1,4,-1
 440 517 l 1,5,-1
 552 517 l 1,6,-1
 269 0 l 1,0,-1
EndSplineSet
EndChar

StartChar: w
Encoding: 119 119 90
Width: 786
GlyphClass: 2
Flags: W
AnchorPoint: "Anchor-5" -46 0 basechar 0
AnchorPoint: "Anchor-4" -46 0 basechar 0
AnchorPoint: "Anchor-3" 351 517 basechar 0
AnchorPoint: "Anchor-2" -46 0 basechar 0
LayerCount: 2
Fore
SplineSet
553 0 m 1,0,-1
 454 0 l 1,1,-1
 393 344 l 1,2,-1
 239 0 l 1,3,-1
 142 0 l 1,4,-1
 48 517 l 1,5,-1
 157 517 l 1,6,-1
 218 161 l 1,7,-1
 376 517 l 1,8,-1
 464 517 l 1,9,-1
 525 162 l 1,10,-1
 682 517 l 1,11,-1
 793 517 l 1,12,-1
 553 0 l 1,0,-1
EndSplineSet
EndChar

StartChar: x
Encoding: 120 120 91
Width: 566
GlyphClass: 2
Flags: W
LayerCount: 2
Fore
SplineSet
373 0 m 1,0,-1
 263 184 l 1,1,-1
 101 0 l 1,2,-1
 -28 0 l 1,3,-1
 209 269 l 1,4,-1
 62 517 l 1,5,-1
 191 517 l 1,6,-1
 287 355 l 1,7,-1
 430 517 l 1,8,-1
 559 517 l 1,9,-1
 341 269 l 1,10,-1
 502 0 l 1,11,-1
 373 0 l 1,0,-1
EndSplineSet
EndChar

StartChar: y
Encoding: 121 121 92
Width: 551
GlyphClass: 2
Flags: W
AnchorPoint: "Anchor-5" -46 0 basechar 0
AnchorPoint: "Anchor-4" -46 0 basechar 0
AnchorPoint: "Anchor-3" 243 517 basechar 0
AnchorPoint: "Anchor-2" -46 0 basechar 0
LayerCount: 2
Fore
SplineSet
19.5 -161.5 m 128,-1,1
 0 -158 0 -158 -8.5 -154.5 c 128,-1,2
 -17 -151 -17 -151 -19 -150 c 2,3,-1
 -8 -72 l 1,4,-1
 44 -73 l 2,5,6
 99 -76 99 -76 122 -60 c 128,-1,7
 145 -44 145 -44 158 -20 c 2,8,-1
 176 17 l 1,9,-1
 46 517 l 1,10,-1
 167 517 l 1,11,-1
 252 152 l 1,12,-1
 441 517 l 1,13,-1
 560 517 l 1,14,-1
 271 -19 l 2,15,16
 225 -102 225 -102 177.5 -133.5 c 128,-1,17
 130 -165 130 -165 68 -165 c 0,18,0
 39 -165 39 -165 19.5 -161.5 c 128,-1,1
EndSplineSet
EndChar

StartChar: z
Encoding: 122 122 93
Width: 501
GlyphClass: 2
Flags: W
AnchorPoint: "Anchor-5" -46 0 basechar 0
AnchorPoint: "Anchor-4" -46 0 basechar 0
AnchorPoint: "Anchor-3" 218 517 basechar 0
AnchorPoint: "Anchor-2" -46 0 basechar 0
LayerCount: 2
Fore
SplineSet
-3 67 m 1,0,-1
 331 438 l 1,1,-1
 72 438 l 1,2,-1
 83 517 l 1,3,-1
 492 517 l 1,4,-1
 482 451 l 1,5,-1
 149 80 l 1,6,-1
 434 80 l 1,7,-1
 423 0 l 1,8,-1
 -12 0 l 1,9,-1
 -3 67 l 1,0,-1
EndSplineSet
EndChar

StartChar: braceleft
Encoding: 123 123 94
Width: 352
GlyphClass: 2
Flags: W
LayerCount: 2
Fore
SplineSet
214 693.5 m 128,-1,1
 260 723 260 723 319 723 c 2,2,-1
 381 723 l 1,3,-1
 370 651 l 1,4,-1
 330 651 l 2,5,6
 293 651 293 651 279 638 c 128,-1,7
 265 625 265 625 261 599 c 2,8,-1
 233 395 l 2,9,10
 225 345 225 345 191 318.5 c 128,-1,11
 157 292 157 292 115 288 c 0,12,13
 109 287 109 287 108.5 284.5 c 128,-1,14
 108 282 108 282 114 281 c 0,15,16
 155 277 155 277 181.5 251.5 c 128,-1,17
 208 226 208 226 201 171 c 2,18,-1
 172 -36 l 2,19,20
 168 -65 168 -65 179.5 -77 c 128,-1,21
 191 -89 191 -89 227 -89 c 2,22,-1
 266 -89 l 1,23,-1
 256 -161 l 1,24,-1
 196 -161 l 2,25,26
 134 -161 134 -161 97.5 -131 c 128,-1,27
 61 -101 61 -101 68 -48 c 2,28,-1
 98 161 l 2,29,30
 103 199 103 199 77.5 225 c 128,-1,31
 52 251 52 251 -3 251 c 1,32,-1
 7 317 l 1,33,34
 120 317 120 317 133 412 c 2,35,-1
 161 612 l 2,36,0
 168 664 168 664 214 693.5 c 128,-1,1
EndSplineSet
EndChar

StartChar: bar
Encoding: 124 124 95
Width: 262
GlyphClass: 2
Flags: W
LayerCount: 2
Fore
SplineSet
17 -161 m 1,0,-1
 155 826 l 1,1,-1
 246 826 l 1,2,-1
 107 -161 l 1,3,-1
 17 -161 l 1,0,-1
EndSplineSet
EndChar

StartChar: braceright
Encoding: 125 125 96
Width: 352
GlyphClass: 2
Flags: W
LayerCount: 2
Fore
SplineSet
164 -131.5 m 128,-1,1
 118 -161 118 -161 59 -161 c 2,2,-1
 -3 -161 l 1,3,-1
 8 -89 l 1,4,-1
 48 -89 l 2,5,6
 85 -89 85 -89 99 -76 c 128,-1,7
 113 -63 113 -63 117 -37 c 2,8,-1
 145 167 l 2,9,10
 153 217 153 217 187 243.5 c 128,-1,11
 221 270 221 270 263 274 c 0,12,13
 269 275 269 275 269.5 277.5 c 128,-1,14
 270 280 270 280 264 281 c 0,15,16
 223 285 223 285 196.5 310.5 c 128,-1,17
 170 336 170 336 177 391 c 2,18,-1
 206 598 l 2,19,20
 210 627 210 627 198.5 639 c 128,-1,21
 187 651 187 651 151 651 c 2,22,-1
 112 651 l 1,23,-1
 122 723 l 1,24,-1
 182 723 l 2,25,26
 244 723 244 723 280.5 693 c 128,-1,27
 317 663 317 663 310 610 c 2,28,-1
 280 401 l 2,29,30
 275 363 275 363 300.5 337 c 128,-1,31
 326 311 326 311 381 311 c 1,32,-1
 371 245 l 1,33,34
 258 245 258 245 245 150 c 2,35,-1
 217 -50 l 2,36,0
 210 -102 210 -102 164 -131.5 c 128,-1,1
EndSplineSet
EndChar

StartChar: asciitilde
Encoding: 126 126 97
Width: 591
GlyphClass: 2
Flags: W
LayerCount: 2
Fore
SplineSet
469 317 m 128,-1,1
 430 296 430 296 386 296 c 0,2,3
 358 296 358 296 338 303.5 c 128,-1,4
 318 311 318 311 288 327 c 0,5,6
 265 340 265 340 247.5 347 c 128,-1,7
 230 354 230 354 208 354 c 0,8,9
 174 354 174 354 146 337 c 128,-1,10
 118 320 118 320 86 289 c 1,11,-1
 60 353 l 1,12,13
 106 393 106 393 141 413 c 128,-1,14
 176 433 176 433 219 433 c 0,15,16
 246 433 246 433 267.5 425 c 128,-1,17
 289 417 289 417 315 402 c 0,18,19
 339 389 339 389 357 382 c 128,-1,20
 375 375 375 375 396 375 c 0,21,22
 458 375 458 375 508 439 c 1,23,-1
 535 375 l 1,24,0
 508 338 508 338 469 317 c 128,-1,1
EndSplineSet
EndChar

StartChar: exclamdown
Encoding: 161 161 99
Width: 266
GlyphClass: 2
Flags: W
LayerCount: 2
Fore
SplineSet
69 379 m 1,0,-1
 89 517 l 1,1,-1
 226 517 l 1,2,-1
 206 379 l 1,3,-1
 69 379 l 1,0,-1
-10 -161 m 1,4,-1
 90 311 l 1,5,-1
 168 311 l 1,6,-1
 134 -161 l 1,7,-1
 -10 -161 l 1,4,-1
EndSplineSet
EndChar

StartChar: cent
Encoding: 162 162 100
Width: 549
GlyphClass: 2
Flags: W
AnchorPoint: "Anchor-1" 244 628 basechar 0
AnchorPoint: "Anchor-0" 244 111 basechar 0
LayerCount: 2
Fore
SplineSet
418.5 160.5 m 128,-1,1
 369 116 369 116 303 105 c 1,2,-1
 288 0 l 1,3,-1
 205 0 l 1,4,-1
 220 104 l 1,5,6
 129 118 129 118 83.5 189 c 128,-1,7
 38 260 38 260 53 367 c 0,8,9
 68 476 68 476 133.5 548.5 c 128,-1,10
 199 621 199 621 294 635 c 1,11,-1
 307 723 l 1,12,-1
 390 723 l 1,13,-1
 377 634 l 1,14,15
 440 623 440 623 475.5 578 c 128,-1,16
 511 533 511 533 518 468 c 1,17,-1
 417 458 l 1,18,19
 397 503 397 503 378.5 523.5 c 128,-1,20
 360 544 360 544 323 544 c 0,21,22
 262 544 262 544 220 497 c 128,-1,23
 178 450 178 450 167 369 c 0,24,25
 155 287 155 287 185 238.5 c 128,-1,26
 215 190 215 190 276 190 c 0,27,28
 316 190 316 190 343.5 213.5 c 128,-1,29
 371 237 371 237 397 279 c 1,30,-1
 492 269 l 1,31,0
 468 205 468 205 418.5 160.5 c 128,-1,1
EndSplineSet
EndChar

StartChar: sterling
Encoding: 163 163 101
Width: 629
GlyphClass: 2
Flags: W
LayerCount: 2
Fore
SplineSet
-16 102 m 1,0,-1
 19 102 l 2,1,2
 59 102 59 102 87.5 131.5 c 128,-1,3
 116 161 116 161 124 221 c 0,4,5
 130 264 130 264 130 341 c 1,6,-1
 29 341 l 1,7,-1
 39 412 l 1,8,-1
 126 412 l 1,9,-1
 126 499 l 2,10,11
 126 520 126 520 129 540 c 0,12,13
 137 599 137 599 173.5 643 c 128,-1,14
 210 687 210 687 263 710 c 128,-1,15
 316 733 316 733 375 733 c 0,16,17
 451 733 451 733 505 697 c 128,-1,18
 559 661 559 661 576 601 c 1,19,-1
 465 566 l 1,20,21
 454 602 454 602 434 618 c 128,-1,22
 414 634 414 634 378 634 c 0,23,24
 335 634 335 634 304 608 c 128,-1,25
 273 582 273 582 266 537 c 0,26,27
 259 487 259 487 269 413 c 1,28,-1
 422 413 l 1,29,-1
 412 342 l 1,30,-1
 268 342 l 1,31,32
 267 297 267 297 264 275 c 0,33,34
 261 255 261 255 255 232 c 0,35,36
 244 184 244 184 225 155 c 128,-1,37
 206 126 206 126 178 103 c 1,38,-1
 330 103 l 2,39,40
 380 103 380 103 410 121 c 128,-1,41
 440 139 440 139 462 184 c 1,42,-1
 562 160 l 1,43,44
 492 0 492 0 325 0 c 2,45,-1
 -30 0 l 1,46,-1
 -16 102 l 1,0,-1
EndSplineSet
EndChar

StartChar: currency
Encoding: 164 164 102
Width: 558
GlyphClass: 2
Flags: W
LayerCount: 2
Fore
SplineSet
149 190 m 0,0,1
 143 192 143 192 142 192 c 0,2,3
 137 192 137 192 133 188 c 2,4,-1
 68 131 l 1,5,-1
 23 187 l 1,6,-1
 95 249 l 1,7,8
 67 302 67 302 76 363 c 128,-1,9
 85 424 85 424 121 470 c 0,10,11
 125 475 125 475 125 477 c 128,-1,12
 125 479 125 479 122 485 c 2,13,-1
 73 542 l 1,14,-1
 135 597 l 1,15,-1
 190 532 l 1,16,17
 247 568 247 568 309 568 c 0,18,19
 369 568 369 568 414 536 c 0,20,21
 421 533 421 533 425 537 c 2,22,-1
 488 593 l 1,23,-1
 534 537 l 1,24,-1
 465 478 l 1,25,26
 494 425 494 425 485 364 c 0,27,28
 481 334 481 334 469 305.5 c 128,-1,29
 457 277 457 277 438 255 c 0,30,31
 433 250 433 250 437 246 c 2,32,-1
 486 191 l 1,33,-1
 425 136 l 1,34,-1
 374 196 l 1,35,36
 314 159 314 159 253 159 c 0,37,38
 195 159 195 159 149 190 c 0,0,1
329 259.5 m 128,-1,40
 359 276 359 276 378.5 304 c 128,-1,41
 398 332 398 332 402 364 c 0,42,43
 406 395 406 395 394.5 423 c 128,-1,44
 383 451 383 451 358 468 c 128,-1,45
 333 485 333 485 299 485 c 128,-1,46
 265 485 265 485 235 468 c 128,-1,47
 205 451 205 451 185.5 423 c 128,-1,48
 166 395 166 395 161 364 c 0,49,50
 157 332 157 332 169 304 c 128,-1,51
 181 276 181 276 206 259.5 c 128,-1,52
 231 243 231 243 265 243 c 128,-1,39
 299 243 299 243 329 259.5 c 128,-1,40
EndSplineSet
EndChar

StartChar: yen
Encoding: 165 165 103
Width: 633
GlyphClass: 2
Flags: W
LayerCount: 2
Fore
SplineSet
406 344 m 1,0,-1
 542 344 l 1,1,-1
 533 274 l 1,2,-1
 382 274 l 1,3,-1
 370 191 l 1,4,-1
 521 191 l 1,5,-1
 511 122 l 1,6,-1
 360 122 l 1,7,-1
 343 0 l 1,8,-1
 204 0 l 1,9,-1
 221 122 l 1,10,-1
 71 122 l 1,11,-1
 81 191 l 1,12,-1
 231 191 l 1,13,-1
 242 273 l 1,14,-1
 92 273 l 1,15,-1
 102 343 l 1,16,-1
 227 343 l 1,17,-1
 53 723 l 1,18,-1
 211 723 l 1,19,-1
 343 415 l 1,20,-1
 563 723 l 1,21,-1
 692 723 l 1,22,-1
 406 344 l 1,0,-1
EndSplineSet
EndChar

StartChar: brokenbar
Encoding: 166 166 104
Width: 262
GlyphClass: 2
Flags: W
LayerCount: 2
Fore
SplineSet
99 421 m 1,0,-1
 155 826 l 1,1,-1
 246 826 l 1,2,-1
 189 421 l 1,3,-1
 99 421 l 1,0,-1
17 -161 m 1,4,-1
 73 244 l 1,5,-1
 164 244 l 1,6,-1
 107 -161 l 1,7,-1
 17 -161 l 1,4,-1
EndSplineSet
EndChar

StartChar: section
Encoding: 167 167 105
Width: 498
GlyphClass: 2
Flags: W
LayerCount: 2
Fore
SplineSet
62.5 -42.5 m 128,-1,1
 7 -10 7 -10 -11 41 c 1,2,-1
 71 80 l 1,3,4
 113 3 113 3 205 3 c 0,5,6
 250 3 250 3 279.5 19 c 128,-1,7
 309 35 309 35 313 65 c 0,8,9
 316 89 316 89 300 107.5 c 128,-1,10
 284 126 284 126 238 145 c 2,11,-1
 162 176 l 2,12,13
 91 205 91 205 62.5 241 c 128,-1,14
 34 277 34 277 41 330 c 0,15,16
 47 374 47 374 76.5 407.5 c 128,-1,17
 106 441 106 441 152 460 c 1,18,19
 107 488 107 488 92 518 c 128,-1,20
 77 548 77 548 82 585 c 0,21,22
 88 627 88 627 117 660.5 c 128,-1,23
 146 694 146 694 192.5 713.5 c 128,-1,24
 239 733 239 733 298 733 c 0,25,26
 367 733 367 733 416.5 702.5 c 128,-1,27
 466 672 466 672 486 627 c 1,28,-1
 404 588 l 1,29,30
 382 619 382 619 355 637 c 128,-1,31
 328 655 328 655 292 655 c 0,32,33
 250 655 250 655 224 639 c 128,-1,34
 198 623 198 623 194 596 c 0,35,36
 189 558 189 558 251 531 c 2,37,-1
 326 500 l 2,38,39
 404 468 404 468 434.5 429.5 c 128,-1,40
 465 391 465 391 457 336 c 0,41,42
 451 290 451 290 424 259 c 128,-1,43
 397 228 397 228 354 206 c 1,44,45
 396 180 396 180 413.5 150 c 128,-1,46
 431 120 431 120 425 80 c 0,47,48
 415 11 415 11 353.5 -32 c 128,-1,49
 292 -75 292 -75 196 -75 c 0,50,0
 118 -75 118 -75 62.5 -42.5 c 128,-1,1
322 264.5 m 128,-1,52
 347 284 347 284 351 314 c 0,53,54
 355 343 355 343 340.5 363 c 128,-1,55
 326 383 326 383 283 401 c 2,56,-1
 237 420 l 1,57,58
 201 417 201 417 175 395.5 c 128,-1,59
 149 374 149 374 145 346 c 0,60,61
 142 322 142 322 156 306 c 128,-1,62
 170 290 170 290 216 270 c 2,63,-1
 267 248 l 1,64,51
 297 245 297 245 322 264.5 c 128,-1,52
EndSplineSet
EndChar

StartChar: dieresis
Encoding: 168 168 106
Width: 318
GlyphClass: 2
Flags: W
LayerCount: 2
Fore
SplineSet
163 605 m 1,0,-1
 53 605 l 1,1,-1
 70 723 l 1,2,-1
 180 723 l 1,3,-1
 163 605 l 1,0,-1
339 605 m 1,4,-1
 228 605 l 1,5,-1
 245 723 l 1,6,-1
 356 723 l 1,7,-1
 339 605 l 1,4,-1
EndSplineSet
EndChar

StartChar: copyright
Encoding: 169 169 107
Width: 822
GlyphClass: 2
Flags: W
LayerCount: 2
Fore
SplineSet
182 40 m 128,-1,1
 104 90 104 90 66 175 c 128,-1,2
 28 260 28 260 42 362 c 0,3,4
 56 462 56 462 118 547.5 c 128,-1,5
 180 633 180 633 272 683 c 128,-1,6
 364 733 364 733 465 733 c 128,-1,7
 566 733 566 733 644.5 683 c 128,-1,8
 723 633 723 633 761 547.5 c 128,-1,9
 799 462 799 462 785 362 c 0,10,11
 771 260 771 260 709 175 c 128,-1,12
 647 90 647 90 554.5 40 c 128,-1,13
 462 -10 462 -10 361 -10 c 128,-1,0
 260 -10 260 -10 182 40 c 128,-1,1
525 100 m 128,-1,15
 597 137 597 137 645 205 c 128,-1,16
 693 273 693 273 706 362 c 0,17,18
 718 450 718 450 689 518.5 c 128,-1,19
 660 587 660 587 598.5 624.5 c 128,-1,20
 537 662 537 662 455 662 c 0,21,22
 371 662 371 662 299 624.5 c 128,-1,23
 227 587 227 587 179.5 518.5 c 128,-1,24
 132 450 132 450 120 362 c 0,25,26
 107 273 107 273 135.5 205 c 128,-1,27
 164 137 164 137 225.5 100 c 128,-1,28
 287 63 287 63 371 63 c 0,29,14
 453 63 453 63 525 100 c 128,-1,15
547 537 m 128,-1,31
 586 502 586 502 598 451 c 1,32,-1
 510 437 l 1,33,34
 500 468 500 468 483.5 486 c 128,-1,35
 467 504 467 504 439 504 c 0,36,37
 394 504 394 504 362 467.5 c 128,-1,38
 330 431 330 431 320 365 c 0,39,40
 310 297 310 297 333 260.5 c 128,-1,41
 356 224 356 224 404 224 c 0,42,43
 438 224 438 224 465 243 c 128,-1,44
 492 262 492 262 515 296 c 1,45,-1
 575 278 l 1,46,47
 547 229 547 229 499.5 192.5 c 128,-1,48
 452 156 452 156 387 156 c 0,49,50
 330 156 330 156 289 182 c 128,-1,51
 248 208 248 208 229.5 255 c 128,-1,52
 211 302 211 302 220 363 c 128,-1,53
 229 424 229 424 260.5 471.5 c 128,-1,54
 292 519 292 519 340.5 545.5 c 128,-1,55
 389 572 389 572 445 572 c 0,56,30
 508 572 508 572 547 537 c 128,-1,31
EndSplineSet
EndChar

StartChar: ordfeminine
Encoding: 170 170 108
Width: 415
GlyphClass: 2
Flags: W
LayerCount: 2
Fore
SplineSet
83 421.5 m 128,-1,1
 58 446 58 446 64 488 c 0,2,3
 71 536 71 536 118.5 565 c 128,-1,4
 166 594 166 594 246 598 c 2,5,-1
 292 601 l 1,6,-1
 296 624 l 2,7,8
 300 652 300 652 284.5 664.5 c 128,-1,9
 269 677 269 677 242 677 c 0,10,11
 217 677 217 677 198 667.5 c 128,-1,12
 179 658 179 658 163 633 c 1,13,-1
 94 650 l 1,14,15
 120 691 120 691 157.5 711.5 c 128,-1,16
 195 732 195 732 253 732 c 0,17,18
 389 731 389 731 374 626 c 2,19,-1
 357 504 l 2,20,21
 350 455 350 455 351 435 c 2,22,-1
 353 403 l 1,23,-1
 272 403 l 1,24,-1
 270 441 l 1,25,26
 239 417 239 417 214 407 c 128,-1,27
 189 397 189 397 159 397 c 0,28,0
 108 397 108 397 83 421.5 c 128,-1,1
255 470 m 0,29,30
 276 487 276 487 279 504 c 2,31,-1
 286 555 l 1,32,-1
 248 553 l 2,33,34
 202 550 202 550 175.5 534 c 128,-1,35
 149 518 149 518 145 492 c 0,36,37
 142 473 142 473 156 461 c 128,-1,38
 170 449 170 449 196 449 c 0,39,40
 228 449 228 449 255 470 c 0,29,30
EndSplineSet
EndChar

StartChar: guillemotleft
Encoding: 171 171 109
Width: 474
GlyphClass: 2
Flags: W
LayerCount: 2
Fore
SplineSet
196 67 m 1,0,-1
 130 67 l 1,1,-1
 32 251 l 1,2,-1
 183 443 l 1,3,-1
 250 443 l 1,4,-1
 133 251 l 1,5,-1
 196 67 l 1,0,-1
380 67 m 1,6,-1
 314 67 l 1,7,-1
 216 251 l 1,8,-1
 367 443 l 1,9,-1
 434 443 l 1,10,-1
 317 251 l 1,11,-1
 380 67 l 1,6,-1
EndSplineSet
EndChar

StartChar: logicalnot
Encoding: 172 172 110
Width: 571
GlyphClass: 2
Flags: W
LayerCount: 2
Fore
SplineSet
521 409 m 1,0,-1
 488 171 l 1,1,-1
 388 171 l 1,2,-1
 409 318 l 1,3,-1
 55 318 l 1,4,-1
 67 409 l 1,5,-1
 521 409 l 1,0,-1
EndSplineSet
EndChar

StartChar: uni00AD
Encoding: 173 173 111
Width: 379
GlyphClass: 2
Flags: W
LayerCount: 2
Fore
SplineSet
317 212 m 1,0,-1
 52 212 l 1,1,-1
 65 303 l 1,2,-1
 330 303 l 1,3,-1
 317 212 l 1,0,-1
EndSplineSet
EndChar

StartChar: registered
Encoding: 174 174 112
Width: 544
GlyphClass: 2
Flags: W
LayerCount: 2
Fore
SplineSet
148.5 299 m 128,-1,1
 99 330 99 330 75.5 383 c 128,-1,2
 52 436 52 436 61 500 c 128,-1,3
 70 564 70 564 108.5 617 c 128,-1,4
 147 670 147 670 205 701.5 c 128,-1,5
 263 733 263 733 327 733 c 0,6,7
 390 733 390 733 439 701.5 c 128,-1,8
 488 670 488 670 511.5 616.5 c 128,-1,9
 535 563 535 563 526 500 c 128,-1,10
 517 437 517 437 478.5 383.5 c 128,-1,11
 440 330 440 330 382.5 299 c 128,-1,12
 325 268 325 268 262 268 c 0,13,0
 198 268 198 268 148.5 299 c 128,-1,1
402.5 370 m 128,-1,15
 458 419 458 419 469 500 c 128,-1,16
 480 581 480 581 439 630.5 c 128,-1,17
 398 680 398 680 320 680 c 0,18,19
 240 680 240 680 185 631 c 128,-1,20
 130 582 130 582 118 500 c 128,-1,21
 106 418 106 418 147.5 369.5 c 128,-1,22
 189 321 189 321 269 321 c 0,23,14
 347 321 347 321 402.5 370 c 128,-1,15
218 614 m 1,24,-1
 324 614 l 2,25,26
 364 614 364 614 384 598.5 c 128,-1,27
 404 583 404 583 400 554 c 0,28,29
 397 530 397 530 381.5 515 c 128,-1,30
 366 500 366 500 344 492 c 1,31,-1
 374 384 l 1,32,-1
 319 384 l 1,33,-1
 296 487 l 1,34,-1
 251 487 l 1,35,-1
 237 384 l 1,36,-1
 186 384 l 1,37,-1
 218 614 l 1,24,-1
308 524 m 2,38,39
 324 524 324 524 334.5 530.5 c 128,-1,40
 345 537 345 537 347 550 c 128,-1,41
 349 563 349 563 340.5 570 c 128,-1,42
 332 577 332 577 312 577 c 2,43,-1
 264 577 l 1,44,-1
 257 524 l 1,45,-1
 308 524 l 2,38,39
EndSplineSet
EndChar

StartChar: macron
Encoding: 175 175 113
Width: 360
GlyphClass: 2
Flags: W
LayerCount: 2
Fore
SplineSet
384 634 m 1,0,-1
 57 634 l 1,1,-1
 68 714 l 1,2,-1
 395 714 l 1,3,-1
 384 634 l 1,0,-1
EndSplineSet
EndChar

StartChar: degree
Encoding: 176 176 114
Width: 466
GlyphClass: 2
Flags: W
LayerCount: 2
Fore
SplineSet
408 589 m 128,-1,1
 382 552 382 552 342 531.5 c 128,-1,2
 302 511 302 511 256 511 c 0,3,4
 209 511 209 511 175 531.5 c 128,-1,5
 141 552 141 552 125 589 c 128,-1,6
 109 626 109 626 116 673 c 128,-1,7
 123 720 123 720 149 757 c 128,-1,8
 175 794 175 794 215 815 c 128,-1,9
 255 836 255 836 301 836 c 128,-1,10
 347 836 347 836 381.5 815 c 128,-1,11
 416 794 416 794 431.5 757 c 128,-1,12
 447 720 447 720 441 673 c 0,13,0
 434 626 434 626 408 589 c 128,-1,1
349 737 m 128,-1,15
 329 762 329 762 289 762 c 0,16,17
 250 762 250 762 223 737.5 c 128,-1,18
 196 713 196 713 191 674 c 0,19,20
 185 633 185 633 204.5 607.5 c 128,-1,21
 224 582 224 582 265 582 c 0,22,23
 304 582 304 582 331 607 c 128,-1,24
 358 632 358 632 363 672 c 0,25,14
 369 712 369 712 349 737 c 128,-1,15
EndSplineSet
EndChar

StartChar: plusminus
Encoding: 177 177 115
Width: 571
GlyphClass: 2
Flags: W
LayerCount: 2
Fore
SplineSet
533 490 m 1,0,-1
 520 400 l 1,1,-1
 339 400 l 1,2,-1
 314 218 l 1,3,-1
 224 218 l 1,4,-1
 249 399 l 1,5,-1
 66 399 l 1,6,-1
 79 490 l 1,7,-1
 261 490 l 1,8,-1
 286 672 l 1,9,-1
 377 672 l 1,10,-1
 352 490 l 1,11,-1
 533 490 l 1,0,-1
29 136 m 1,12,-1
 483 137 l 1,13,-1
 470 46 l 1,14,-1
 16 46 l 1,15,-1
 29 136 l 1,12,-1
EndSplineSet
EndChar

StartChar: uni00B2
Encoding: 178 178 116
Width: 382
GlyphClass: 2
Flags: W
LayerCount: 2
Fore
SplineSet
31 444 m 1,0,-1
 193 578 l 2,1,2
 257 630 257 630 280 656 c 128,-1,3
 303 682 303 682 307 711 c 0,4,5
 312 745 312 745 291.5 762.5 c 128,-1,6
 271 780 271 780 239 780 c 0,7,8
 208 780 208 780 180.5 764.5 c 128,-1,9
 153 749 153 749 135 715 c 1,10,-1
 66 723 l 1,11,12
 86 780 86 780 133.5 812.5 c 128,-1,13
 181 845 181 845 251 845 c 0,14,15
 322 845 322 845 359.5 809 c 128,-1,16
 397 773 397 773 388 711 c 0,17,18
 382 674 382 674 358.5 643.5 c 128,-1,19
 335 613 335 613 278 564 c 2,20,-1
 144 449 l 1,21,-1
 355 449 l 1,22,-1
 346 384 l 1,23,-1
 22 384 l 1,24,-1
 31 444 l 1,0,-1
EndSplineSet
EndChar

StartChar: uni00B3
Encoding: 179 179 117
Width: 397
GlyphClass: 2
Flags: W
LayerCount: 2
Fore
SplineSet
158 818.5 m 128,-1,1
 210 845 210 845 277 845 c 0,2,3
 348 845 348 845 390.5 812 c 128,-1,4
 433 779 433 779 426 728 c 0,5,6
 416 656 416 656 326 627 c 1,7,8
 368 615 368 615 391.5 585.5 c 128,-1,9
 415 556 415 556 409 513 c 0,10,11
 403 473 403 473 374 442 c 128,-1,12
 345 411 345 411 300.5 394.5 c 128,-1,13
 256 378 256 378 207 378 c 0,14,15
 132 378 132 378 90.5 403 c 128,-1,16
 49 428 49 428 43 490 c 1,17,-1
 115 498 l 1,18,19
 136 441 136 441 213 441 c 0,20,21
 259 441 259 441 289.5 461 c 128,-1,22
 320 481 320 481 324 512 c 0,23,24
 329 546 329 546 304 567 c 128,-1,25
 279 588 279 588 239 588 c 2,26,-1
 177 588 l 1,27,-1
 186 650 l 1,28,-1
 238 652 l 2,29,30
 279 653 279 653 309 673 c 128,-1,31
 339 693 339 693 343 722 c 0,32,33
 347 749 347 749 324 766.5 c 128,-1,34
 301 784 301 784 266 784 c 0,35,36
 228 784 228 784 200.5 771 c 128,-1,37
 173 758 173 758 156 727 c 1,38,-1
 88 735 l 1,39,0
 106 792 106 792 158 818.5 c 128,-1,1
EndSplineSet
EndChar

StartChar: acute
Encoding: 180 180 118
Width: 302
GlyphClass: 2
Flags: W
LayerCount: 2
Fore
SplineSet
333 649 m 1,0,-1
 64 578 l 1,1,-1
 54 633 l 1,2,-1
 317 733 l 1,3,-1
 333 649 l 1,0,-1
EndSplineSet
EndChar

StartChar: paragraph
Encoding: 182 182 119
Width: 591
GlyphClass: 2
Flags: W
LayerCount: 2
Fore
SplineSet
503 652 m 1,0,-1
 399 -83 l 1,1,-1
 322 -83 l 1,2,-1
 426 652 l 1,3,-1
 371 652 l 1,4,-1
 267 -83 l 1,5,-1
 190 -83 l 1,6,-1
 244 298 l 1,7,8
 184 301 184 301 141 328 c 128,-1,9
 98 355 98 355 78 401 c 128,-1,10
 58 447 58 447 66 507 c 0,11,12
 74 566 74 566 107.5 615 c 128,-1,13
 141 664 141 664 198 693.5 c 128,-1,14
 255 723 255 723 328 723 c 2,15,-1
 574 723 l 1,16,-1
 564 652 l 1,17,-1
 503 652 l 1,0,-1
EndSplineSet
EndChar

StartChar: periodcentered
Encoding: 183 183 120
Width: 240
GlyphClass: 2
Flags: W
LayerCount: 2
Fore
SplineSet
178 300 m 1,0,-1
 45 300 l 1,1,-1
 63 429 l 1,2,-1
 196 429 l 1,3,-1
 178 300 l 1,0,-1
EndSplineSet
EndChar

StartChar: cedilla
Encoding: 184 184 121
Width: 251
GlyphClass: 2
Flags: W
LayerCount: 2
Fore
SplineSet
126.5 -188.5 m 128,-1,1
 90 -210 90 -210 41 -210 c 0,2,3
 -23 -210 -23 -210 -60 -183 c 1,4,-1
 -36 -139 l 1,5,6
 -4 -163 -4 -163 34 -163 c 0,7,8
 59 -163 59 -163 73 -154.5 c 128,-1,9
 87 -146 87 -146 90 -130 c 0,10,11
 93 -109 93 -109 75.5 -98.5 c 128,-1,12
 58 -88 58 -88 14 -87 c 0,13,14
 8 -87 8 -87 6.5 -85.5 c 128,-1,15
 5 -84 5 -84 8 -79 c 2,16,-1
 56 5 l 1,17,-1
 114 5 l 1,18,-1
 82 -54 l 1,19,20
 132 -56 132 -56 152 -78.5 c 128,-1,21
 172 -101 172 -101 168 -130 c 0,22,0
 163 -167 163 -167 126.5 -188.5 c 128,-1,1
EndSplineSet
EndChar

StartChar: uni00B9
Encoding: 185 185 122
Width: 299
GlyphClass: 2
Flags: W
LayerCount: 2
Fore
SplineSet
140 748 m 1,0,-1
 52 722 l 1,1,-1
 59 776 l 1,2,-1
 185 835 l 1,3,-1
 230 835 l 1,4,-1
 166 380 l 1,5,-1
 88 380 l 1,6,-1
 140 748 l 1,0,-1
EndSplineSet
EndChar

StartChar: ordmasculine
Encoding: 186 186 123
Width: 403
GlyphClass: 2
Flags: W
LayerCount: 2
Fore
SplineSet
368.5 686 m 128,-1,1
 406 639 406 639 395 564 c 0,2,3
 385 490 385 490 334.5 444 c 128,-1,4
 284 398 284 398 211 398 c 128,-1,5
 138 398 138 398 101 444 c 128,-1,6
 64 490 64 490 74 564 c 0,7,8
 85 639 85 639 136 686 c 128,-1,9
 187 733 187 733 258 733 c 0,10,0
 331 733 331 733 368.5 686 c 128,-1,1
189 648 m 128,-1,12
 166 620 166 620 159 566 c 0,13,14
 151 511 151 511 166 482.5 c 128,-1,15
 181 454 181 454 219 454 c 128,-1,16
 257 454 257 454 280.5 483 c 128,-1,17
 304 512 304 512 312 566 c 128,-1,18
 320 620 320 620 304 648 c 128,-1,19
 288 676 288 676 250 676 c 128,-1,11
 212 676 212 676 189 648 c 128,-1,12
EndSplineSet
EndChar

StartChar: guillemotright
Encoding: 187 187 124
Width: 473
GlyphClass: 2
Flags: W
LayerCount: 2
Fore
SplineSet
66 443 m 1,0,-1
 133 443 l 1,1,-1
 230 251 l 1,2,-1
 80 67 l 1,3,-1
 14 67 l 1,4,-1
 130 251 l 1,5,-1
 66 443 l 1,0,-1
250 443 m 1,6,-1
 317 443 l 1,7,-1
 414 251 l 1,8,-1
 264 67 l 1,9,-1
 198 67 l 1,10,-1
 314 251 l 1,11,-1
 250 443 l 1,6,-1
EndSplineSet
EndChar

StartChar: onequarter
Encoding: 188 188 125
Width: 963
GlyphClass: 2
Flags: W
LayerCount: 2
Fore
SplineSet
125 644 m 1,0,-1
 37 618 l 1,1,-1
 44 672 l 1,2,-1
 170 731 l 1,3,-1
 215 731 l 1,4,-1
 151 276 l 1,5,-1
 73 276 l 1,6,-1
 125 644 l 1,0,-1
167 -4 m 1,7,-1
 93 -3 l 1,8,-1
 684 731 l 1,9,-1
 757 731 l 1,10,-1
 167 -4 l 1,7,-1
867 455 m 1,11,-1
 828 175 l 1,12,-1
 897 175 l 1,13,-1
 888 108 l 1,14,-1
 818 108 l 1,15,-1
 803 0 l 1,16,-1
 727 0 l 1,17,-1
 742 108 l 1,18,-1
 533 108 l 1,19,-1
 543 175 l 1,20,-1
 790 455 l 1,21,-1
 867 455 l 1,11,-1
750 175 m 1,22,-1
 774 347 l 1,23,-1
 623 175 l 1,24,-1
 750 175 l 1,22,-1
EndSplineSet
EndChar

StartChar: onehalf
Encoding: 189 189 126
Width: 932
GlyphClass: 2
Flags: W
LayerCount: 2
Fore
SplineSet
125 644 m 1,0,-1
 37 618 l 1,1,-1
 44 672 l 1,2,-1
 170 731 l 1,3,-1
 215 731 l 1,4,-1
 151 276 l 1,5,-1
 73 276 l 1,6,-1
 125 644 l 1,0,-1
167 -4 m 1,7,-1
 93 -3 l 1,8,-1
 684 731 l 1,9,-1
 757 731 l 1,10,-1
 167 -4 l 1,7,-1
526 60 m 1,11,-1
 689 194 l 2,12,13
 733 230 733 230 756 251 c 128,-1,14
 779 272 779 272 790 289.5 c 128,-1,15
 801 307 801 307 803 327 c 0,16,17
 808 361 808 361 787.5 378.5 c 128,-1,18
 767 396 767 396 735 396 c 0,19,20
 704 396 704 396 676 380.5 c 128,-1,21
 648 365 648 365 630 331 c 1,22,-1
 562 339 l 1,23,24
 582 396 582 396 629.5 428.5 c 128,-1,25
 677 461 677 461 746 461 c 0,26,27
 817 461 817 461 854.5 425 c 128,-1,28
 892 389 892 389 884 327 c 0,29,30
 878 291 878 291 854.5 260.5 c 128,-1,31
 831 230 831 230 774 180 c 2,32,-1
 640 65 l 1,33,-1
 852 65 l 1,34,-1
 842 0 l 1,35,-1
 518 0 l 1,36,-1
 526 60 l 1,11,-1
EndSplineSet
EndChar

StartChar: threequarters
Encoding: 190 190 127
Width: 1061
GlyphClass: 2
Flags: W
LayerCount: 2
Fore
SplineSet
143 713.5 m 128,-1,1
 195 740 195 740 262 740 c 0,2,3
 333 740 333 740 375.5 707 c 128,-1,4
 418 674 418 674 411 623 c 0,5,6
 401 551 401 551 311 522 c 1,7,8
 353 510 353 510 376.5 480.5 c 128,-1,9
 400 451 400 451 394 408 c 0,10,11
 388 368 388 368 359 337 c 128,-1,12
 330 306 330 306 285.5 289.5 c 128,-1,13
 241 273 241 273 192 273 c 0,14,15
 117 273 117 273 75.5 298 c 128,-1,16
 34 323 34 323 28 385 c 1,17,-1
 100 393 l 1,18,19
 121 336 121 336 198 336 c 0,20,21
 244 336 244 336 274.5 356 c 128,-1,22
 305 376 305 376 309 407 c 0,23,24
 314 441 314 441 289 462 c 128,-1,25
 264 483 264 483 224 483 c 2,26,-1
 162 483 l 1,27,-1
 171 545 l 1,28,-1
 223 547 l 2,29,30
 264 548 264 548 294 568 c 128,-1,31
 324 588 324 588 328 617 c 0,32,33
 332 644 332 644 309 661.5 c 128,-1,34
 286 679 286 679 251 679 c 0,35,36
 213 679 213 679 185.5 666 c 128,-1,37
 158 653 158 653 141 622 c 1,38,-1
 73 630 l 1,39,0
 91 687 91 687 143 713.5 c 128,-1,1
265 -4 m 1,40,-1
 191 -3 l 1,41,-1
 782 731 l 1,42,-1
 855 731 l 1,43,-1
 265 -4 l 1,40,-1
965 455 m 1,44,-1
 926 175 l 1,45,-1
 995 175 l 1,46,-1
 986 108 l 1,47,-1
 916 108 l 1,48,-1
 901 0 l 1,49,-1
 825 0 l 1,50,-1
 840 108 l 1,51,-1
 631 108 l 1,52,-1
 641 175 l 1,53,-1
 888 455 l 1,54,-1
 965 455 l 1,44,-1
848 175 m 1,55,-1
 872 347 l 1,56,-1
 721 175 l 1,57,-1
 848 175 l 1,55,-1
EndSplineSet
EndChar

StartChar: questiondown
Encoding: 191 191 128
Width: 529
GlyphClass: 2
Flags: W
LayerCount: 2
Fore
SplineSet
234 517 m 1,0,-1
 372 517 l 1,1,-1
 352 379 l 1,2,-1
 214 379 l 1,3,-1
 234 517 l 1,0,-1
347 -130 m 128,-1,5
 277 -171 277 -171 191 -171 c 0,6,7
 118 -171 118 -171 69 -148.5 c 128,-1,8
 20 -126 20 -126 -1.5 -87 c 128,-1,9
 -23 -48 -23 -48 -16 2 c 0,10,11
 -11 41 -11 41 7.5 70 c 128,-1,12
 26 99 26 99 49 119 c 128,-1,13
 72 139 72 139 108 166 c 0,14,15
 143 191 143 191 164 209.5 c 128,-1,16
 185 228 185 228 201.5 254 c 128,-1,17
 218 280 218 280 223 314 c 1,18,-1
 324 314 l 1,19,20
 318 268 318 268 298.5 234 c 128,-1,21
 279 200 279 200 255.5 176.5 c 128,-1,22
 232 153 232 153 195 124 c 0,23,24
 153 90 153 90 132.5 65.5 c 128,-1,25
 112 41 112 41 107 8 c 0,26,27
 101 -32 101 -32 128.5 -57 c 128,-1,28
 156 -82 156 -82 204 -82 c 0,29,30
 248 -82 248 -82 292 -55 c 128,-1,31
 336 -28 336 -28 358 12 c 1,32,-1
 460 -15 l 1,33,4
 417 -89 417 -89 347 -130 c 128,-1,5
EndSplineSet
EndChar

StartChar: Agrave
Encoding: 192 192 129
Width: 705
GlyphClass: 2
Flags: W
AnchorPoint: "Anchor-5" -46 0 basechar 0
AnchorPoint: "Anchor-4" -46 0 basechar 0
AnchorPoint: "Anchor-3" 315 723 basechar 0
AnchorPoint: "Anchor-2" 629 10 basechar 0
LayerCount: 2
Fore
SplineSet
343 723 m 1,0,-1
 475 723 l 1,1,-1
 633 0 l 1,2,-1
 510 0 l 1,3,-1
 471 181 l 1,4,-1
 195 181 l 1,5,-1
 104 0 l 1,6,-1
 -19 0 l 1,7,-1
 343 723 l 1,0,-1
457 290 m 1,8,-1
 393 605 l 1,9,-1
 239 290 l 1,10,-1
 457 290 l 1,8,-1
563 839 m 1,11,-1
 536 784 l 1,12,-1
 287 855 l 1,13,-1
 328 939 l 1,14,-1
 563 839 l 1,11,-1
EndSplineSet
EndChar

StartChar: Aacute
Encoding: 193 193 130
Width: 705
GlyphClass: 2
Flags: W
AnchorPoint: "Anchor-5" -46 0 basechar 0
AnchorPoint: "Anchor-4" -46 0 basechar 0
AnchorPoint: "Anchor-3" 315 723 basechar 0
AnchorPoint: "Anchor-2" 629 10 basechar 0
LayerCount: 2
Fore
SplineSet
343 723 m 1,0,-1
 475 723 l 1,1,-1
 633 0 l 1,2,-1
 510 0 l 1,3,-1
 471 181 l 1,4,-1
 195 181 l 1,5,-1
 104 0 l 1,6,-1
 -19 0 l 1,7,-1
 343 723 l 1,0,-1
457 290 m 1,8,-1
 393 605 l 1,9,-1
 239 290 l 1,10,-1
 457 290 l 1,8,-1
574 855 m 1,11,-1
 305 784 l 1,12,-1
 295 839 l 1,13,-1
 558 939 l 1,14,-1
 574 855 l 1,11,-1
EndSplineSet
EndChar

StartChar: Acircumflex
Encoding: 194 194 131
Width: 705
GlyphClass: 2
Flags: W
AnchorPoint: "Anchor-5" -46 0 basechar 0
AnchorPoint: "Anchor-4" -46 0 basechar 0
AnchorPoint: "Anchor-3" 315 723 basechar 0
AnchorPoint: "Anchor-2" 629 10 basechar 0
LayerCount: 2
Fore
SplineSet
343 723 m 1,0,-1
 475 723 l 1,1,-1
 633 0 l 1,2,-1
 510 0 l 1,3,-1
 471 181 l 1,4,-1
 195 181 l 1,5,-1
 104 0 l 1,6,-1
 -19 0 l 1,7,-1
 343 723 l 1,0,-1
457 290 m 1,8,-1
 393 605 l 1,9,-1
 239 290 l 1,10,-1
 457 290 l 1,8,-1
439 880 m 1,11,-1
 355 809 l 1,12,-1
 258 809 l 1,13,-1
 404 934 l 1,14,-1
 489 934 l 1,15,-1
 598 809 l 1,16,-1
 496 809 l 1,17,-1
 439 880 l 1,11,-1
EndSplineSet
EndChar

StartChar: Atilde
Encoding: 195 195 132
Width: 705
GlyphClass: 2
Flags: W
AnchorPoint: "Anchor-5" -46 0 basechar 0
AnchorPoint: "Anchor-4" -46 0 basechar 0
AnchorPoint: "Anchor-3" 315 723 basechar 0
AnchorPoint: "Anchor-2" 629 10 basechar 0
LayerCount: 2
Fore
SplineSet
343 723 m 1,0,-1
 475 723 l 1,1,-1
 633 0 l 1,2,-1
 510 0 l 1,3,-1
 471 181 l 1,4,-1
 195 181 l 1,5,-1
 104 0 l 1,6,-1
 -19 0 l 1,7,-1
 343 723 l 1,0,-1
457 290 m 1,8,-1
 393 605 l 1,9,-1
 239 290 l 1,10,-1
 457 290 l 1,8,-1
503 829 m 0,11,12
 474 829 474 829 432 843 c 0,13,14
 397 856 397 856 370 856 c 0,15,16
 351 856 351 856 337.5 851 c 128,-1,17
 324 846 324 846 304 834 c 0,18,19
 297 830 297 830 295 830 c 0,20,21
 290 830 290 830 288 840 c 2,22,-1
 282 875 l 1,23,-1
 281 883 l 2,24,25
 282 888 282 888 290 895 c 0,26,27
 311 911 311 911 330 919.5 c 128,-1,28
 349 928 349 928 375 928 c 0,29,30
 393 928 393 928 412.5 923.5 c 128,-1,31
 432 919 432 919 449 913 c 0,32,33
 464 908 464 908 480.5 903.5 c 128,-1,34
 497 899 497 899 512 899 c 0,35,36
 529 899 529 899 544.5 905 c 128,-1,37
 560 911 560 911 577 921 c 0,38,39
 582 924 582 924 587 924 c 0,40,41
 594 924 594 924 596 915 c 2,42,-1
 600 873 l 2,43,44
 601 871 601 871 600 867 c 0,45,46
 599 860 599 860 588 853 c 0,47,48
 548 829 548 829 503 829 c 0,11,12
EndSplineSet
EndChar

StartChar: Adieresis
Encoding: 196 196 133
Width: 705
GlyphClass: 2
Flags: W
AnchorPoint: "Anchor-5" -46 0 basechar 0
AnchorPoint: "Anchor-4" -46 0 basechar 0
AnchorPoint: "Anchor-3" 315 723 basechar 0
AnchorPoint: "Anchor-2" 629 10 basechar 0
LayerCount: 2
Fore
SplineSet
343 723 m 1,0,-1
 475 723 l 1,1,-1
 633 0 l 1,2,-1
 510 0 l 1,3,-1
 471 181 l 1,4,-1
 195 181 l 1,5,-1
 104 0 l 1,6,-1
 -19 0 l 1,7,-1
 343 723 l 1,0,-1
457 290 m 1,8,-1
 393 605 l 1,9,-1
 239 290 l 1,10,-1
 457 290 l 1,8,-1
396 811 m 1,11,-1
 286 811 l 1,12,-1
 303 929 l 1,13,-1
 413 929 l 1,14,-1
 396 811 l 1,11,-1
572 811 m 1,15,-1
 461 811 l 1,16,-1
 478 929 l 1,17,-1
 589 929 l 1,18,-1
 572 811 l 1,15,-1
EndSplineSet
EndChar

StartChar: Aring
Encoding: 197 197 134
Width: 705
GlyphClass: 2
Flags: W
AnchorPoint: "Anchor-5" -46 0 basechar 0
AnchorPoint: "Anchor-4" -46 0 basechar 0
AnchorPoint: "Anchor-3" 315 723 basechar 0
AnchorPoint: "Anchor-2" 629 10 basechar 0
LayerCount: 2
Fore
SplineSet
343 723 m 1,0,-1
 475 723 l 1,1,-1
 633 0 l 1,2,-1
 510 0 l 1,3,-1
 471 181 l 1,4,-1
 195 181 l 1,5,-1
 104 0 l 1,6,-1
 -19 0 l 1,7,-1
 343 723 l 1,0,-1
457 290 m 1,8,-1
 393 605 l 1,9,-1
 239 290 l 1,10,-1
 457 290 l 1,8,-1
504 808.5 m 128,-1,12
 469 778 469 778 425 778 c 0,13,14
 380 778 380 778 353.5 809 c 128,-1,15
 327 840 327 840 334 886 c 0,16,17
 340 929 340 929 375 958.5 c 128,-1,18
 410 988 410 988 454 988 c 128,-1,19
 498 988 498 988 524.5 957.5 c 128,-1,20
 551 927 551 927 545 884 c 0,21,11
 539 839 539 839 504 808.5 c 128,-1,12
479.5 919.5 m 128,-1,23
 467 934 467 934 445 934 c 0,24,25
 424 934 424 934 406.5 919.5 c 128,-1,26
 389 905 389 905 386 883 c 0,27,28
 383 863 383 863 396.5 847 c 128,-1,29
 410 831 410 831 431 831 c 128,-1,30
 452 831 452 831 469 846.5 c 128,-1,31
 486 862 486 862 489 883 c 0,32,22
 492 905 492 905 479.5 919.5 c 128,-1,23
EndSplineSet
EndChar

StartChar: AE
Encoding: 198 198 135
Width: 1043
GlyphClass: 2
Flags: W
AnchorPoint: "Anchor-5" -46 0 basechar 0
AnchorPoint: "Anchor-4" -46 0 basechar 0
AnchorPoint: "Anchor-3" 637 723 basechar 0
AnchorPoint: "Anchor-2" -46 0 basechar 0
LayerCount: 2
Fore
SplineSet
936 0 m 1,0,-1
 442 0 l 1,1,-1
 468 183 l 1,2,-1
 229 183 l 1,3,-1
 104 0 l 1,4,-1
 -19 0 l 1,5,-1
 476 723 l 1,6,-1
 1027 723 l 1,7,-1
 1011 620 l 1,8,-1
 668 620 l 1,9,-1
 639 415 l 1,10,-1
 882 415 l 1,11,-1
 868 314 l 1,12,-1
 625 314 l 1,13,-1
 595 103 l 1,14,-1
 950 103 l 1,15,-1
 936 0 l 1,0,-1
532 640 m 1,16,-1
 291 290 l 1,17,-1
 483 290 l 1,18,-1
 532 640 l 1,16,-1
EndSplineSet
EndChar

StartChar: Ccedilla
Encoding: 199 199 136
Width: 698
GlyphClass: 2
Flags: W
AnchorPoint: "Anchor-5" -46 0 basechar 0
AnchorPoint: "Anchor-4" 321 0 basechar 0
AnchorPoint: "Anchor-3" 321 723 basechar 0
AnchorPoint: "Anchor-2" -46 0 basechar 0
LayerCount: 2
Fore
SplineSet
557 702.5 m 128,-1,1
 615 672 615 672 646 619 c 128,-1,2
 677 566 677 566 675 500 c 1,3,-1
 547 497 l 1,4,5
 544 559 544 559 507.5 595 c 128,-1,6
 471 631 471 631 403 631 c 0,7,8
 224 631 224 631 186 364 c 0,9,10
 167 228 167 228 204 160 c 128,-1,11
 241 92 241 92 331 92 c 0,12,13
 391 92 391 92 439 130 c 128,-1,14
 487 168 487 168 507 230 c 1,15,-1
 635 225 l 1,16,17
 607 121 607 121 527 55.5 c 128,-1,18
 447 -10 447 -10 320 -10 c 0,19,20
 222 -10 222 -10 156 36 c 128,-1,21
 90 82 90 82 63 167 c 128,-1,22
 36 252 36 252 52 365 c 128,-1,23
 68 478 68 478 118 561 c 128,-1,24
 168 644 168 644 245 688.5 c 128,-1,25
 322 733 322 733 420 733 c 0,26,0
 499 733 499 733 557 702.5 c 128,-1,1
366.5 -188.5 m 128,-1,28
 330 -210 330 -210 281 -210 c 0,29,30
 217 -210 217 -210 180 -183 c 1,31,-1
 204 -139 l 1,32,33
 236 -163 236 -163 274 -163 c 0,34,35
 299 -163 299 -163 313 -154.5 c 128,-1,36
 327 -146 327 -146 330 -130 c 0,37,38
 333 -109 333 -109 315.5 -98.5 c 128,-1,39
 298 -88 298 -88 254 -87 c 0,40,41
 248 -87 248 -87 246.5 -85.5 c 128,-1,42
 245 -84 245 -84 248 -79 c 2,43,-1
 296 5 l 1,44,-1
 354 5 l 1,45,-1
 322 -54 l 1,46,47
 372 -56 372 -56 392 -78.5 c 128,-1,48
 412 -101 412 -101 408 -130 c 0,49,27
 403 -167 403 -167 366.5 -188.5 c 128,-1,28
EndSplineSet
EndChar

StartChar: Egrave
Encoding: 200 200 137
Width: 630
GlyphClass: 2
Flags: W
AnchorPoint: "Anchor-5" -46 0 basechar 0
AnchorPoint: "Anchor-4" 294 0 basechar 0
AnchorPoint: "Anchor-3" 285 723 basechar 0
AnchorPoint: "Anchor-2" 520 10 basechar 0
LayerCount: 2
Fore
SplineSet
141 723 m 1,0,-1
 619 723 l 1,1,-1
 604 619 l 1,2,-1
 249 619 l 1,3,-1
 220 416 l 1,4,-1
 533 416 l 1,5,-1
 519 313 l 1,6,-1
 205 313 l 1,7,-1
 176 106 l 1,8,-1
 539 105 l 1,9,-1
 524 0 l 1,10,-1
 39 0 l 1,11,-1
 141 723 l 1,0,-1
533 839 m 1,12,-1
 506 784 l 1,13,-1
 257 855 l 1,14,-1
 298 939 l 1,15,-1
 533 839 l 1,12,-1
EndSplineSet
EndChar

StartChar: Eacute
Encoding: 201 201 138
Width: 630
GlyphClass: 2
Flags: W
AnchorPoint: "Anchor-5" -46 0 basechar 0
AnchorPoint: "Anchor-4" 294 0 basechar 0
AnchorPoint: "Anchor-3" 285 723 basechar 0
AnchorPoint: "Anchor-2" 520 10 basechar 0
LayerCount: 2
Fore
SplineSet
141 723 m 1,0,-1
 619 723 l 1,1,-1
 604 619 l 1,2,-1
 249 619 l 1,3,-1
 220 416 l 1,4,-1
 533 416 l 1,5,-1
 519 313 l 1,6,-1
 205 313 l 1,7,-1
 176 106 l 1,8,-1
 539 105 l 1,9,-1
 524 0 l 1,10,-1
 39 0 l 1,11,-1
 141 723 l 1,0,-1
544 855 m 1,12,-1
 275 784 l 1,13,-1
 265 839 l 1,14,-1
 528 939 l 1,15,-1
 544 855 l 1,12,-1
EndSplineSet
EndChar

StartChar: Ecircumflex
Encoding: 202 202 139
Width: 630
GlyphClass: 2
Flags: W
AnchorPoint: "Anchor-5" -46 0 basechar 0
AnchorPoint: "Anchor-4" 294 0 basechar 0
AnchorPoint: "Anchor-3" 285 723 basechar 0
AnchorPoint: "Anchor-2" 520 10 basechar 0
LayerCount: 2
Fore
SplineSet
141 723 m 1,0,-1
 619 723 l 1,1,-1
 604 619 l 1,2,-1
 249 619 l 1,3,-1
 220 416 l 1,4,-1
 533 416 l 1,5,-1
 519 313 l 1,6,-1
 205 313 l 1,7,-1
 176 106 l 1,8,-1
 539 105 l 1,9,-1
 524 0 l 1,10,-1
 39 0 l 1,11,-1
 141 723 l 1,0,-1
409 880 m 1,12,-1
 325 809 l 1,13,-1
 228 809 l 1,14,-1
 374 934 l 1,15,-1
 459 934 l 1,16,-1
 568 809 l 1,17,-1
 466 809 l 1,18,-1
 409 880 l 1,12,-1
EndSplineSet
EndChar

StartChar: Edieresis
Encoding: 203 203 140
Width: 630
GlyphClass: 2
Flags: W
AnchorPoint: "Anchor-5" -46 0 basechar 0
AnchorPoint: "Anchor-4" 294 0 basechar 0
AnchorPoint: "Anchor-3" 285 723 basechar 0
AnchorPoint: "Anchor-2" 520 10 basechar 0
LayerCount: 2
Fore
SplineSet
141 723 m 1,0,-1
 619 723 l 1,1,-1
 604 619 l 1,2,-1
 249 619 l 1,3,-1
 220 416 l 1,4,-1
 533 416 l 1,5,-1
 519 313 l 1,6,-1
 205 313 l 1,7,-1
 176 106 l 1,8,-1
 539 105 l 1,9,-1
 524 0 l 1,10,-1
 39 0 l 1,11,-1
 141 723 l 1,0,-1
366 811 m 1,12,-1
 256 811 l 1,13,-1
 273 929 l 1,14,-1
 383 929 l 1,15,-1
 366 811 l 1,12,-1
542 811 m 1,16,-1
 431 811 l 1,17,-1
 448 929 l 1,18,-1
 559 929 l 1,19,-1
 542 811 l 1,16,-1
EndSplineSet
EndChar

StartChar: Igrave
Encoding: 204 204 141
Width: 292
GlyphClass: 2
Flags: W
AnchorPoint: "Anchor-5" -46 0 basechar 0
AnchorPoint: "Anchor-4" 106 0 basechar 0
AnchorPoint: "Anchor-3" 102 723 basechar 0
AnchorPoint: "Anchor-2" 145 6 basechar 0
LayerCount: 2
Fore
SplineSet
263 723 m 1,0,-1
 161 0 l 1,1,-1
 39 0 l 1,2,-1
 141 723 l 1,3,-1
 263 723 l 1,0,-1
350 839 m 1,4,-1
 323 784 l 1,5,-1
 74 855 l 1,6,-1
 115 939 l 1,7,-1
 350 839 l 1,4,-1
EndSplineSet
EndChar

StartChar: Iacute
Encoding: 205 205 142
Width: 292
GlyphClass: 2
Flags: W
AnchorPoint: "Anchor-5" -46 0 basechar 0
AnchorPoint: "Anchor-4" 106 0 basechar 0
AnchorPoint: "Anchor-3" 102 723 basechar 0
AnchorPoint: "Anchor-2" 145 6 basechar 0
LayerCount: 2
Fore
SplineSet
263 723 m 1,0,-1
 161 0 l 1,1,-1
 39 0 l 1,2,-1
 141 723 l 1,3,-1
 263 723 l 1,0,-1
361 855 m 1,4,-1
 92 784 l 1,5,-1
 82 839 l 1,6,-1
 345 939 l 1,7,-1
 361 855 l 1,4,-1
EndSplineSet
EndChar

StartChar: Icircumflex
Encoding: 206 206 143
Width: 292
GlyphClass: 2
Flags: W
AnchorPoint: "Anchor-5" -46 0 basechar 0
AnchorPoint: "Anchor-4" 106 0 basechar 0
AnchorPoint: "Anchor-3" 102 723 basechar 0
AnchorPoint: "Anchor-2" 145 6 basechar 0
LayerCount: 2
Fore
SplineSet
263 723 m 1,0,-1
 161 0 l 1,1,-1
 39 0 l 1,2,-1
 141 723 l 1,3,-1
 263 723 l 1,0,-1
226 880 m 1,4,-1
 142 809 l 1,5,-1
 45 809 l 1,6,-1
 191 934 l 1,7,-1
 276 934 l 1,8,-1
 385 809 l 1,9,-1
 283 809 l 1,10,-1
 226 880 l 1,4,-1
EndSplineSet
EndChar

StartChar: Idieresis
Encoding: 207 207 144
Width: 292
GlyphClass: 2
Flags: W
AnchorPoint: "Anchor-5" -46 0 basechar 0
AnchorPoint: "Anchor-4" 106 0 basechar 0
AnchorPoint: "Anchor-3" 102 723 basechar 0
AnchorPoint: "Anchor-2" 145 6 basechar 0
LayerCount: 2
Fore
SplineSet
263 723 m 1,0,-1
 161 0 l 1,1,-1
 39 0 l 1,2,-1
 141 723 l 1,3,-1
 263 723 l 1,0,-1
183 811 m 1,4,-1
 73 811 l 1,5,-1
 90 929 l 1,6,-1
 200 929 l 1,7,-1
 183 811 l 1,4,-1
359 811 m 1,8,-1
 248 811 l 1,9,-1
 265 929 l 1,10,-1
 376 929 l 1,11,-1
 359 811 l 1,8,-1
EndSplineSet
EndChar

StartChar: Eth
Encoding: 208 208 145
Width: 719
GlyphClass: 2
Flags: W
AnchorPoint: "Anchor-5" -46 0 basechar 0
AnchorPoint: "Anchor-4" -46 0 basechar 0
AnchorPoint: "Anchor-3" 318 723 basechar 0
AnchorPoint: "Anchor-2" -46 0 basechar 0
LayerCount: 2
Fore
SplineSet
623 627 m 128,-1,1
 701 536 701 536 677 365 c 0,2,3
 652 188 652 188 543.5 94 c 128,-1,4
 435 0 435 0 243 0 c 2,5,-1
 56 0 l 1,6,-1
 100 313 l 1,7,-1
 48 313 l 2,8,9
 38 313 38 313 34.5 317 c 128,-1,10
 31 321 31 321 33 331 c 2,11,-1
 41 389 l 2,12,13
 43 405 43 405 56 405 c 2,14,-1
 113 405 l 1,15,-1
 158 723 l 1,16,17
 291 723 291 723 352 722 c 0,18,0
 545 718 545 718 623 627 c 128,-1,1
454 163.5 m 128,-1,20
 530 226 530 226 549 365 c 0,21,22
 568 501 568 501 513 562 c 128,-1,23
 458 623 458 623 336 623 c 2,24,-1
 268 623 l 1,25,-1
 237 405 l 1,26,-1
 382 405 l 2,27,28
 394 405 394 405 392 391 c 2,29,-1
 384 333 l 2,30,31
 382 322 382 322 376.5 317.5 c 128,-1,32
 371 313 371 313 359 313 c 2,33,-1
 224 313 l 1,34,-1
 194 101 l 1,35,-1
 259 101 l 2,36,19
 378 101 378 101 454 163.5 c 128,-1,20
EndSplineSet
EndChar

StartChar: Ntilde
Encoding: 209 209 146
Width: 765
GlyphClass: 2
Flags: W
AnchorPoint: "Anchor-5" -46 0 basechar 0
AnchorPoint: "Anchor-4" 325 0 basechar 0
AnchorPoint: "Anchor-3" 343 723 basechar 0
AnchorPoint: "Anchor-2" -46 0 basechar 0
LayerCount: 2
Fore
SplineSet
736 723 m 1,0,-1
 634 0 l 1,1,-1
 524 0 l 1,2,-1
 235 530 l 1,3,-1
 161 0 l 1,4,-1
 39 0 l 1,5,-1
 141 723 l 1,6,-1
 260 723 l 1,7,-1
 541 207 l 1,8,-1
 614 723 l 1,9,-1
 736 723 l 1,0,-1
531 829 m 0,10,11
 502 829 502 829 460 843 c 0,12,13
 425 856 425 856 398 856 c 0,14,15
 379 856 379 856 365.5 851 c 128,-1,16
 352 846 352 846 332 834 c 0,17,18
 325 830 325 830 323 830 c 0,19,20
 318 830 318 830 316 840 c 2,21,-1
 310 875 l 1,22,-1
 309 883 l 2,23,24
 310 888 310 888 318 895 c 0,25,26
 339 911 339 911 358 919.5 c 128,-1,27
 377 928 377 928 403 928 c 0,28,29
 421 928 421 928 440.5 923.5 c 128,-1,30
 460 919 460 919 477 913 c 0,31,32
 492 908 492 908 508.5 903.5 c 128,-1,33
 525 899 525 899 540 899 c 0,34,35
 557 899 557 899 572.5 905 c 128,-1,36
 588 911 588 911 605 921 c 0,37,38
 610 924 610 924 615 924 c 0,39,40
 622 924 622 924 624 915 c 2,41,-1
 628 873 l 2,42,43
 629 871 629 871 628 867 c 0,44,45
 627 860 627 860 616 853 c 0,46,47
 576 829 576 829 531 829 c 0,10,11
EndSplineSet
EndChar

StartChar: Ograve
Encoding: 210 210 147
Width: 742
GlyphClass: 2
Flags: W
AnchorPoint: "Anchor-5" -46 0 basechar 0
AnchorPoint: "Anchor-4" 327 0 basechar 0
AnchorPoint: "Anchor-3" 326 723 basechar 0
AnchorPoint: "Anchor-2" 406 10 basechar 0
LayerCount: 2
Fore
SplineSet
157.5 34 m 128,-1,1
 90 78 90 78 62.5 161 c 128,-1,2
 35 244 35 244 51 359 c 0,3,4
 67 475 67 475 119.5 559.5 c 128,-1,5
 172 644 172 644 251 688.5 c 128,-1,6
 330 733 330 733 429 733 c 0,7,8
 527 733 527 733 593.5 688.5 c 128,-1,9
 660 644 660 644 687.5 560 c 128,-1,10
 715 476 715 476 699 360 c 0,11,12
 683 245 683 245 632 161.5 c 128,-1,13
 581 78 581 78 502.5 34 c 128,-1,14
 424 -10 424 -10 325 -10 c 0,15,0
 225 -10 225 -10 157.5 34 c 128,-1,1
489 157 m 128,-1,17
 547 222 547 222 566 358 c 0,18,19
 586 497 586 497 546 564 c 128,-1,20
 506 631 506 631 415 631 c 128,-1,21
 324 631 324 631 264.5 564 c 128,-1,22
 205 497 205 497 185 358 c 0,23,24
 166 222 166 222 207 157 c 128,-1,25
 248 92 248 92 339 92 c 0,26,16
 431 92 431 92 489 157 c 128,-1,17
574 839 m 1,27,-1
 547 784 l 1,28,-1
 298 855 l 1,29,-1
 339 939 l 1,30,-1
 574 839 l 1,27,-1
EndSplineSet
EndChar

StartChar: Oacute
Encoding: 211 211 148
Width: 742
GlyphClass: 2
Flags: W
AnchorPoint: "Anchor-5" -46 0 basechar 0
AnchorPoint: "Anchor-4" 327 0 basechar 0
AnchorPoint: "Anchor-3" 326 723 basechar 0
AnchorPoint: "Anchor-2" 406 10 basechar 0
LayerCount: 2
Fore
SplineSet
157.5 34 m 128,-1,1
 90 78 90 78 62.5 161 c 128,-1,2
 35 244 35 244 51 359 c 0,3,4
 67 475 67 475 119.5 559.5 c 128,-1,5
 172 644 172 644 251 688.5 c 128,-1,6
 330 733 330 733 429 733 c 0,7,8
 527 733 527 733 593.5 688.5 c 128,-1,9
 660 644 660 644 687.5 560 c 128,-1,10
 715 476 715 476 699 360 c 0,11,12
 683 245 683 245 632 161.5 c 128,-1,13
 581 78 581 78 502.5 34 c 128,-1,14
 424 -10 424 -10 325 -10 c 0,15,0
 225 -10 225 -10 157.5 34 c 128,-1,1
489 157 m 128,-1,17
 547 222 547 222 566 358 c 0,18,19
 586 497 586 497 546 564 c 128,-1,20
 506 631 506 631 415 631 c 128,-1,21
 324 631 324 631 264.5 564 c 128,-1,22
 205 497 205 497 185 358 c 0,23,24
 166 222 166 222 207 157 c 128,-1,25
 248 92 248 92 339 92 c 0,26,16
 431 92 431 92 489 157 c 128,-1,17
585 855 m 1,27,-1
 316 784 l 1,28,-1
 306 839 l 1,29,-1
 569 939 l 1,30,-1
 585 855 l 1,27,-1
EndSplineSet
EndChar

StartChar: Ocircumflex
Encoding: 212 212 149
Width: 742
GlyphClass: 2
Flags: W
AnchorPoint: "Anchor-5" -46 0 basechar 0
AnchorPoint: "Anchor-4" 327 0 basechar 0
AnchorPoint: "Anchor-3" 326 723 basechar 0
AnchorPoint: "Anchor-2" 406 10 basechar 0
LayerCount: 2
Fore
SplineSet
157.5 34 m 128,-1,1
 90 78 90 78 62.5 161 c 128,-1,2
 35 244 35 244 51 359 c 0,3,4
 67 475 67 475 119.5 559.5 c 128,-1,5
 172 644 172 644 251 688.5 c 128,-1,6
 330 733 330 733 429 733 c 0,7,8
 527 733 527 733 593.5 688.5 c 128,-1,9
 660 644 660 644 687.5 560 c 128,-1,10
 715 476 715 476 699 360 c 0,11,12
 683 245 683 245 632 161.5 c 128,-1,13
 581 78 581 78 502.5 34 c 128,-1,14
 424 -10 424 -10 325 -10 c 0,15,0
 225 -10 225 -10 157.5 34 c 128,-1,1
489 157 m 128,-1,17
 547 222 547 222 566 358 c 0,18,19
 586 497 586 497 546 564 c 128,-1,20
 506 631 506 631 415 631 c 128,-1,21
 324 631 324 631 264.5 564 c 128,-1,22
 205 497 205 497 185 358 c 0,23,24
 166 222 166 222 207 157 c 128,-1,25
 248 92 248 92 339 92 c 0,26,16
 431 92 431 92 489 157 c 128,-1,17
450 880 m 1,27,-1
 366 809 l 1,28,-1
 269 809 l 1,29,-1
 415 934 l 1,30,-1
 500 934 l 1,31,-1
 609 809 l 1,32,-1
 507 809 l 1,33,-1
 450 880 l 1,27,-1
EndSplineSet
EndChar

StartChar: Otilde
Encoding: 213 213 150
Width: 742
GlyphClass: 2
Flags: W
AnchorPoint: "Anchor-5" -46 0 basechar 0
AnchorPoint: "Anchor-4" 327 0 basechar 0
AnchorPoint: "Anchor-3" 326 723 basechar 0
AnchorPoint: "Anchor-2" 406 10 basechar 0
LayerCount: 2
Fore
SplineSet
157.5 34 m 128,-1,1
 90 78 90 78 62.5 161 c 128,-1,2
 35 244 35 244 51 359 c 0,3,4
 67 475 67 475 119.5 559.5 c 128,-1,5
 172 644 172 644 251 688.5 c 128,-1,6
 330 733 330 733 429 733 c 0,7,8
 527 733 527 733 593.5 688.5 c 128,-1,9
 660 644 660 644 687.5 560 c 128,-1,10
 715 476 715 476 699 360 c 0,11,12
 683 245 683 245 632 161.5 c 128,-1,13
 581 78 581 78 502.5 34 c 128,-1,14
 424 -10 424 -10 325 -10 c 0,15,0
 225 -10 225 -10 157.5 34 c 128,-1,1
489 157 m 128,-1,17
 547 222 547 222 566 358 c 0,18,19
 586 497 586 497 546 564 c 128,-1,20
 506 631 506 631 415 631 c 128,-1,21
 324 631 324 631 264.5 564 c 128,-1,22
 205 497 205 497 185 358 c 0,23,24
 166 222 166 222 207 157 c 128,-1,25
 248 92 248 92 339 92 c 0,26,16
 431 92 431 92 489 157 c 128,-1,17
514 829 m 0,27,28
 485 829 485 829 443 843 c 0,29,30
 408 856 408 856 381 856 c 0,31,32
 362 856 362 856 348.5 851 c 128,-1,33
 335 846 335 846 315 834 c 0,34,35
 308 830 308 830 306 830 c 0,36,37
 301 830 301 830 299 840 c 2,38,-1
 293 875 l 1,39,-1
 292 883 l 2,40,41
 293 888 293 888 301 895 c 0,42,43
 322 911 322 911 341 919.5 c 128,-1,44
 360 928 360 928 386 928 c 0,45,46
 404 928 404 928 423.5 923.5 c 128,-1,47
 443 919 443 919 460 913 c 0,48,49
 475 908 475 908 491.5 903.5 c 128,-1,50
 508 899 508 899 523 899 c 0,51,52
 540 899 540 899 555.5 905 c 128,-1,53
 571 911 571 911 588 921 c 0,54,55
 593 924 593 924 598 924 c 0,56,57
 605 924 605 924 607 915 c 2,58,-1
 611 873 l 2,59,60
 612 871 612 871 611 867 c 0,61,62
 610 860 610 860 599 853 c 0,63,64
 559 829 559 829 514 829 c 0,27,28
EndSplineSet
EndChar

StartChar: Odieresis
Encoding: 214 214 151
Width: 742
GlyphClass: 2
Flags: W
AnchorPoint: "Anchor-5" -46 0 basechar 0
AnchorPoint: "Anchor-4" 327 0 basechar 0
AnchorPoint: "Anchor-3" 326 723 basechar 0
AnchorPoint: "Anchor-2" 406 10 basechar 0
LayerCount: 2
Fore
SplineSet
157.5 34 m 128,-1,1
 90 78 90 78 62.5 161 c 128,-1,2
 35 244 35 244 51 359 c 0,3,4
 67 475 67 475 119.5 559.5 c 128,-1,5
 172 644 172 644 251 688.5 c 128,-1,6
 330 733 330 733 429 733 c 0,7,8
 527 733 527 733 593.5 688.5 c 128,-1,9
 660 644 660 644 687.5 560 c 128,-1,10
 715 476 715 476 699 360 c 0,11,12
 683 245 683 245 632 161.5 c 128,-1,13
 581 78 581 78 502.5 34 c 128,-1,14
 424 -10 424 -10 325 -10 c 0,15,0
 225 -10 225 -10 157.5 34 c 128,-1,1
489 157 m 128,-1,17
 547 222 547 222 566 358 c 0,18,19
 586 497 586 497 546 564 c 128,-1,20
 506 631 506 631 415 631 c 128,-1,21
 324 631 324 631 264.5 564 c 128,-1,22
 205 497 205 497 185 358 c 0,23,24
 166 222 166 222 207 157 c 128,-1,25
 248 92 248 92 339 92 c 0,26,16
 431 92 431 92 489 157 c 128,-1,17
407 811 m 1,27,-1
 297 811 l 1,28,-1
 314 929 l 1,29,-1
 424 929 l 1,30,-1
 407 811 l 1,27,-1
583 811 m 1,31,-1
 472 811 l 1,32,-1
 489 929 l 1,33,-1
 600 929 l 1,34,-1
 583 811 l 1,31,-1
EndSplineSet
EndChar

StartChar: multiply
Encoding: 215 215 152
Width: 560
GlyphClass: 2
Flags: W
LayerCount: 2
Fore
SplineSet
347 364 m 1,0,-1
 480 209 l 1,1,-1
 406 144 l 1,2,-1
 273 299 l 1,3,-1
 96 144 l 1,4,-1
 42 209 l 1,5,-1
 218 363 l 1,6,-1
 85 519 l 1,7,-1
 157 583 l 1,8,-1
 291 428 l 1,9,-1
 469 584 l 1,10,-1
 525 520 l 1,11,-1
 347 364 l 1,0,-1
EndSplineSet
EndChar

StartChar: Oslash
Encoding: 216 216 153
Width: 743
GlyphClass: 2
Flags: W
AnchorPoint: "Anchor-5" -46 0 basechar 0
AnchorPoint: "Anchor-4" -46 0 basechar 0
AnchorPoint: "Anchor-3" 323 723 basechar 0
AnchorPoint: "Anchor-2" -46 0 basechar 0
LayerCount: 2
Fore
SplineSet
769 688 m 1,0,-1
 766 688 l 1,1,2
 773 684 773 684 772 678 c 0,3,4
 771 674 771 674 766 669 c 2,5,-1
 676 585 l 1,6,7
 716 493 716 493 698 360 c 0,8,9
 682 245 682 245 630.5 161.5 c 128,-1,10
 579 78 579 78 500 34 c 128,-1,11
 421 -10 421 -10 322 -10 c 0,12,13
 187 -10 187 -10 116 69 c 1,14,-1
 42 2 l 2,15,16
 34 -7 34 -7 26 -7 c 0,17,18
 20 -7 20 -7 11 1 c 2,19,-1
 -13 30 l 2,20,21
 -21 39 -21 39 -20 45 c 0,22,23
 -19 50 -19 50 -13 55 c 2,24,-1
 72 134 l 1,25,26
 31 222 31 222 50 359 c 0,27,28
 66 475 66 475 118 559.5 c 128,-1,29
 170 644 170 644 249 688.5 c 128,-1,30
 328 733 328 733 427 733 c 0,31,32
 561 733 561 733 634 650 c 1,33,-1
 713 723 l 2,34,35
 721 730 721 730 728 730 c 0,36,37
 732 730 732 730 735 726 c 2,38,-1
 769 688 l 1,0,-1
194 244 m 1,39,-1
 534 565 l 1,40,41
 500 634 500 634 410 634 c 0,42,43
 319 634 319 634 266 567 c 128,-1,44
 213 500 213 500 193 358 c 0,45,46
 183 288 183 288 194 244 c 1,39,-1
547 475 m 1,47,-1
 208 154 l 1,48,49
 244 90 244 90 334 90 c 0,50,51
 425 90 425 90 476.5 154 c 128,-1,52
 528 218 528 218 547 358 c 0,53,54
 557 426 557 426 547 475 c 1,47,-1
EndSplineSet
EndChar

StartChar: Ugrave
Encoding: 217 217 154
Width: 726
GlyphClass: 2
Flags: W
AnchorPoint: "Anchor-5" -46 0 basechar 0
AnchorPoint: "Anchor-4" -46 0 basechar 0
AnchorPoint: "Anchor-3" 309 723 basechar 0
AnchorPoint: "Anchor-2" 392 11 basechar 0
LayerCount: 2
Fore
SplineSet
537 60.5 m 128,-1,1
 461 -10 461 -10 316 -10 c 0,2,3
 170 -10 170 -10 114 61.5 c 128,-1,4
 58 133 58 133 77 271 c 2,5,-1
 141 723 l 1,6,-1
 266 723 l 1,7,-1
 200 259 l 2,8,9
 188 176 188 176 222.5 135 c 128,-1,10
 257 94 257 94 330 94 c 128,-1,11
 403 94 403 94 450 135 c 128,-1,12
 497 176 497 176 508 259 c 2,13,-1
 574 723 l 1,14,-1
 697 723 l 1,15,-1
 632 264 l 2,16,0
 613 131 613 131 537 60.5 c 128,-1,1
557 839 m 1,17,-1
 530 784 l 1,18,-1
 281 855 l 1,19,-1
 322 939 l 1,20,-1
 557 839 l 1,17,-1
EndSplineSet
EndChar

StartChar: Uacute
Encoding: 218 218 155
Width: 726
GlyphClass: 2
Flags: W
AnchorPoint: "Anchor-5" -46 0 basechar 0
AnchorPoint: "Anchor-4" -46 0 basechar 0
AnchorPoint: "Anchor-3" 309 723 basechar 0
AnchorPoint: "Anchor-2" 392 11 basechar 0
LayerCount: 2
Fore
SplineSet
537 60.5 m 128,-1,1
 461 -10 461 -10 316 -10 c 0,2,3
 170 -10 170 -10 114 61.5 c 128,-1,4
 58 133 58 133 77 271 c 2,5,-1
 141 723 l 1,6,-1
 266 723 l 1,7,-1
 200 259 l 2,8,9
 188 176 188 176 222.5 135 c 128,-1,10
 257 94 257 94 330 94 c 128,-1,11
 403 94 403 94 450 135 c 128,-1,12
 497 176 497 176 508 259 c 2,13,-1
 574 723 l 1,14,-1
 697 723 l 1,15,-1
 632 264 l 2,16,0
 613 131 613 131 537 60.5 c 128,-1,1
568 855 m 1,17,-1
 299 784 l 1,18,-1
 289 839 l 1,19,-1
 552 939 l 1,20,-1
 568 855 l 1,17,-1
EndSplineSet
EndChar

StartChar: Ucircumflex
Encoding: 219 219 156
Width: 726
GlyphClass: 2
Flags: W
AnchorPoint: "Anchor-5" -46 0 basechar 0
AnchorPoint: "Anchor-4" -46 0 basechar 0
AnchorPoint: "Anchor-3" 309 723 basechar 0
AnchorPoint: "Anchor-2" 392 11 basechar 0
LayerCount: 2
Fore
SplineSet
537 60.5 m 128,-1,1
 461 -10 461 -10 316 -10 c 0,2,3
 170 -10 170 -10 114 61.5 c 128,-1,4
 58 133 58 133 77 271 c 2,5,-1
 141 723 l 1,6,-1
 266 723 l 1,7,-1
 200 259 l 2,8,9
 188 176 188 176 222.5 135 c 128,-1,10
 257 94 257 94 330 94 c 128,-1,11
 403 94 403 94 450 135 c 128,-1,12
 497 176 497 176 508 259 c 2,13,-1
 574 723 l 1,14,-1
 697 723 l 1,15,-1
 632 264 l 2,16,0
 613 131 613 131 537 60.5 c 128,-1,1
433 880 m 1,17,-1
 349 809 l 1,18,-1
 252 809 l 1,19,-1
 398 934 l 1,20,-1
 483 934 l 1,21,-1
 592 809 l 1,22,-1
 490 809 l 1,23,-1
 433 880 l 1,17,-1
EndSplineSet
EndChar

StartChar: Udieresis
Encoding: 220 220 157
Width: 726
GlyphClass: 2
Flags: W
AnchorPoint: "Anchor-5" -46 0 basechar 0
AnchorPoint: "Anchor-4" -46 0 basechar 0
AnchorPoint: "Anchor-3" 309 723 basechar 0
AnchorPoint: "Anchor-2" 392 11 basechar 0
LayerCount: 2
Fore
SplineSet
537 60.5 m 128,-1,1
 461 -10 461 -10 316 -10 c 0,2,3
 170 -10 170 -10 114 61.5 c 128,-1,4
 58 133 58 133 77 271 c 2,5,-1
 141 723 l 1,6,-1
 266 723 l 1,7,-1
 200 259 l 2,8,9
 188 176 188 176 222.5 135 c 128,-1,10
 257 94 257 94 330 94 c 128,-1,11
 403 94 403 94 450 135 c 128,-1,12
 497 176 497 176 508 259 c 2,13,-1
 574 723 l 1,14,-1
 697 723 l 1,15,-1
 632 264 l 2,16,0
 613 131 613 131 537 60.5 c 128,-1,1
390 811 m 1,17,-1
 280 811 l 1,18,-1
 297 929 l 1,19,-1
 407 929 l 1,20,-1
 390 811 l 1,17,-1
566 811 m 1,21,-1
 455 811 l 1,22,-1
 472 929 l 1,23,-1
 583 929 l 1,24,-1
 566 811 l 1,21,-1
EndSplineSet
EndChar

StartChar: Yacute
Encoding: 221 221 158
Width: 630
GlyphClass: 2
Flags: W
AnchorPoint: "Anchor-5" -46 0 basechar 0
AnchorPoint: "Anchor-4" -46 0 basechar 0
AnchorPoint: "Anchor-3" 280 723 basechar 0
AnchorPoint: "Anchor-2" -46 0 basechar 0
LayerCount: 2
Fore
SplineSet
373 306 m 1,0,-1
 330 0 l 1,1,-1
 208 0 l 1,2,-1
 251 306 l 1,3,-1
 61 723 l 1,4,-1
 193 723 l 1,5,-1
 328 412 l 1,6,-1
 547 723 l 1,7,-1
 680 723 l 1,8,-1
 373 306 l 1,0,-1
539 855 m 1,9,-1
 270 784 l 1,10,-1
 260 839 l 1,11,-1
 523 939 l 1,12,-1
 539 855 l 1,9,-1
EndSplineSet
EndChar

StartChar: Thorn
Encoding: 222 222 159
Width: 687
GlyphClass: 2
Flags: W
LayerCount: 2
Fore
SplineSet
569.5 211.5 m 128,-1,1
 490 156 490 156 371 156 c 2,2,-1
 200 156 l 1,3,-1
 178 0 l 1,4,-1
 39 0 l 1,5,-1
 141 723 l 1,6,-1
 280 723 l 1,7,-1
 260 580 l 1,8,-1
 415 580 l 2,9,10
 538 580 538 580 607.5 526.5 c 128,-1,11
 677 473 677 473 663 371 c 0,12,0
 649 267 649 267 569.5 211.5 c 128,-1,1
494 453 m 128,-1,14
 459 479 459 479 392 479 c 2,15,-1
 245 479 l 1,16,-1
 214 257 l 1,17,-1
 367 257 l 2,18,19
 431 257 431 257 472 286.5 c 128,-1,20
 513 316 513 316 521 373 c 0,21,13
 529 427 529 427 494 453 c 128,-1,14
EndSplineSet
EndChar

StartChar: germandbls
Encoding: 223 223 160
Width: 624
GlyphClass: 2
Flags: W
LayerCount: 2
Fore
SplineSet
518 683.5 m 128,-1,1
 561 644 561 644 551 579 c 0,2,3
 544 528 544 528 510 497.5 c 128,-1,4
 476 467 476 467 406 438 c 0,5,6
 379 424 379 424 370.5 417.5 c 128,-1,7
 362 411 362 411 360 399 c 128,-1,8
 358 387 358 387 366 380.5 c 128,-1,9
 374 374 374 374 396 367 c 0,10,11
 458 340 458 340 491.5 320 c 128,-1,12
 525 300 525 300 547.5 262 c 128,-1,13
 570 224 570 224 562 165 c 0,14,15
 550 82 550 82 487.5 36 c 128,-1,16
 425 -10 425 -10 332 -10 c 0,17,18
 294 -10 294 -10 259.5 -0.5 c 128,-1,19
 225 9 225 9 202 24 c 1,20,-1
 251 101 l 1,21,22
 272 86 272 86 291.5 78.5 c 128,-1,23
 311 71 311 71 338 71 c 0,24,25
 383 71 383 71 413.5 92.5 c 128,-1,26
 444 114 444 114 450 153 c 0,27,28
 454 180 454 180 442.5 197.5 c 128,-1,29
 431 215 431 215 411 225.5 c 128,-1,30
 391 236 391 236 354 250 c 0,31,32
 307 270 307 270 282.5 297 c 128,-1,33
 258 324 258 324 264 372 c 0,34,35
 269 407 269 407 290.5 432.5 c 128,-1,36
 312 458 312 458 354 483 c 0,37,38
 361 487 361 487 385 502.5 c 128,-1,39
 409 518 409 518 422.5 535.5 c 128,-1,40
 436 553 436 553 439 574 c 0,41,42
 443 605 443 605 422.5 623 c 128,-1,43
 402 641 402 641 361 641 c 0,44,45
 309 641 309 641 274.5 609.5 c 128,-1,46
 240 578 240 578 232 522 c 2,47,-1
 159 0 l 1,48,-1
 39 0 l 1,49,-1
 97 413 l 1,50,-1
 34 413 l 1,51,-1
 46 499 l 1,52,-1
 108 499 l 1,53,54
 124 598 124 598 193.5 660.5 c 128,-1,55
 263 723 263 723 381 723 c 0,56,0
 475 723 475 723 518 683.5 c 128,-1,1
EndSplineSet
EndChar

StartChar: agrave
Encoding: 224 224 161
Width: 567
GlyphClass: 2
Flags: W
AnchorPoint: "Anchor-5" -46 0 basechar 0
AnchorPoint: "Anchor-4" -46 0 basechar 0
AnchorPoint: "Anchor-3" 237 517 basechar 0
AnchorPoint: "Anchor-2" 431 12 basechar 0
LayerCount: 2
Fore
SplineSet
361 0 m 1,0,-1
 368 49 l 1,1,2
 328 17 328 17 290.5 3.5 c 128,-1,3
 253 -10 253 -10 213 -10 c 0,4,5
 149 -10 149 -10 103.5 21 c 128,-1,6
 58 52 58 52 39 113.5 c 128,-1,7
 20 175 20 175 32 264 c 0,8,9
 44 350 44 350 80.5 409 c 128,-1,10
 117 468 117 468 168.5 497.5 c 128,-1,11
 220 527 220 527 280 527 c 0,12,13
 331 527 331 527 364.5 508 c 128,-1,14
 398 489 398 489 426 460 c 1,15,-1
 434 517 l 1,16,-1
 556 517 l 1,17,-1
 482 0 l 1,18,-1
 361 0 l 1,0,-1
387 188 m 1,19,-1
 404 307 l 2,20,21
 412 366 412 366 386 404 c 128,-1,22
 360 442 360 442 309 442 c 0,23,24
 254 442 254 442 211 397 c 128,-1,25
 168 352 168 352 156 264 c 128,-1,26
 144 176 144 176 173.5 125 c 128,-1,27
 203 74 203 74 261 74 c 0,28,29
 334 74 334 74 387 188 c 1,19,-1
456 633 m 1,30,-1
 429 578 l 1,31,-1
 180 649 l 1,32,-1
 221 733 l 1,33,-1
 456 633 l 1,30,-1
EndSplineSet
EndChar

StartChar: aacute
Encoding: 225 225 162
Width: 567
GlyphClass: 2
Flags: W
AnchorPoint: "Anchor-5" -46 0 basechar 0
AnchorPoint: "Anchor-4" -46 0 basechar 0
AnchorPoint: "Anchor-3" 237 517 basechar 0
AnchorPoint: "Anchor-2" 431 12 basechar 0
LayerCount: 2
Fore
SplineSet
361 0 m 1,0,-1
 368 49 l 1,1,2
 328 17 328 17 290.5 3.5 c 128,-1,3
 253 -10 253 -10 213 -10 c 0,4,5
 149 -10 149 -10 103.5 21 c 128,-1,6
 58 52 58 52 39 113.5 c 128,-1,7
 20 175 20 175 32 264 c 0,8,9
 44 350 44 350 80.5 409 c 128,-1,10
 117 468 117 468 168.5 497.5 c 128,-1,11
 220 527 220 527 280 527 c 0,12,13
 331 527 331 527 364.5 508 c 128,-1,14
 398 489 398 489 426 460 c 1,15,-1
 434 517 l 1,16,-1
 556 517 l 1,17,-1
 482 0 l 1,18,-1
 361 0 l 1,0,-1
387 188 m 1,19,-1
 404 307 l 2,20,21
 412 366 412 366 386 404 c 128,-1,22
 360 442 360 442 309 442 c 0,23,24
 254 442 254 442 211 397 c 128,-1,25
 168 352 168 352 156 264 c 128,-1,26
 144 176 144 176 173.5 125 c 128,-1,27
 203 74 203 74 261 74 c 0,28,29
 334 74 334 74 387 188 c 1,19,-1
467 649 m 1,30,-1
 198 578 l 1,31,-1
 188 633 l 1,32,-1
 451 733 l 1,33,-1
 467 649 l 1,30,-1
EndSplineSet
EndChar

StartChar: acircumflex
Encoding: 226 226 163
Width: 567
GlyphClass: 2
Flags: W
AnchorPoint: "Anchor-5" -46 0 basechar 0
AnchorPoint: "Anchor-4" -46 0 basechar 0
AnchorPoint: "Anchor-3" 237 517 basechar 0
AnchorPoint: "Anchor-2" 431 12 basechar 0
LayerCount: 2
Fore
SplineSet
361 0 m 1,0,-1
 368 49 l 1,1,2
 328 17 328 17 290.5 3.5 c 128,-1,3
 253 -10 253 -10 213 -10 c 0,4,5
 149 -10 149 -10 103.5 21 c 128,-1,6
 58 52 58 52 39 113.5 c 128,-1,7
 20 175 20 175 32 264 c 0,8,9
 44 350 44 350 80.5 409 c 128,-1,10
 117 468 117 468 168.5 497.5 c 128,-1,11
 220 527 220 527 280 527 c 0,12,13
 331 527 331 527 364.5 508 c 128,-1,14
 398 489 398 489 426 460 c 1,15,-1
 434 517 l 1,16,-1
 556 517 l 1,17,-1
 482 0 l 1,18,-1
 361 0 l 1,0,-1
387 188 m 1,19,-1
 404 307 l 2,20,21
 412 366 412 366 386 404 c 128,-1,22
 360 442 360 442 309 442 c 0,23,24
 254 442 254 442 211 397 c 128,-1,25
 168 352 168 352 156 264 c 128,-1,26
 144 176 144 176 173.5 125 c 128,-1,27
 203 74 203 74 261 74 c 0,28,29
 334 74 334 74 387 188 c 1,19,-1
332 674 m 1,30,-1
 248 603 l 1,31,-1
 151 603 l 1,32,-1
 297 728 l 1,33,-1
 382 728 l 1,34,-1
 491 603 l 1,35,-1
 389 603 l 1,36,-1
 332 674 l 1,30,-1
EndSplineSet
EndChar

StartChar: atilde
Encoding: 227 227 164
Width: 567
GlyphClass: 2
Flags: W
AnchorPoint: "Anchor-5" -46 0 basechar 0
AnchorPoint: "Anchor-4" -46 0 basechar 0
AnchorPoint: "Anchor-3" 237 517 basechar 0
AnchorPoint: "Anchor-2" 431 12 basechar 0
LayerCount: 2
Fore
SplineSet
361 0 m 1,0,-1
 368 49 l 1,1,2
 328 17 328 17 290.5 3.5 c 128,-1,3
 253 -10 253 -10 213 -10 c 0,4,5
 149 -10 149 -10 103.5 21 c 128,-1,6
 58 52 58 52 39 113.5 c 128,-1,7
 20 175 20 175 32 264 c 0,8,9
 44 350 44 350 80.5 409 c 128,-1,10
 117 468 117 468 168.5 497.5 c 128,-1,11
 220 527 220 527 280 527 c 0,12,13
 331 527 331 527 364.5 508 c 128,-1,14
 398 489 398 489 426 460 c 1,15,-1
 434 517 l 1,16,-1
 556 517 l 1,17,-1
 482 0 l 1,18,-1
 361 0 l 1,0,-1
387 188 m 1,19,-1
 404 307 l 2,20,21
 412 366 412 366 386 404 c 128,-1,22
 360 442 360 442 309 442 c 0,23,24
 254 442 254 442 211 397 c 128,-1,25
 168 352 168 352 156 264 c 128,-1,26
 144 176 144 176 173.5 125 c 128,-1,27
 203 74 203 74 261 74 c 0,28,29
 334 74 334 74 387 188 c 1,19,-1
396 623 m 0,30,31
 367 623 367 623 325 637 c 0,32,33
 290 650 290 650 263 650 c 0,34,35
 244 650 244 650 230.5 645 c 128,-1,36
 217 640 217 640 197 628 c 0,37,38
 190 624 190 624 188 624 c 0,39,40
 183 624 183 624 181 634 c 2,41,-1
 175 669 l 1,42,-1
 174 677 l 2,43,44
 175 682 175 682 183 689 c 0,45,46
 204 705 204 705 223 713.5 c 128,-1,47
 242 722 242 722 268 722 c 0,48,49
 286 722 286 722 305.5 717.5 c 128,-1,50
 325 713 325 713 342 707 c 0,51,52
 357 702 357 702 373.5 697.5 c 128,-1,53
 390 693 390 693 405 693 c 0,54,55
 422 693 422 693 437.5 699 c 128,-1,56
 453 705 453 705 470 715 c 0,57,58
 475 718 475 718 480 718 c 0,59,60
 487 718 487 718 489 709 c 2,61,-1
 493 667 l 2,62,63
 494 665 494 665 493 661 c 0,64,65
 492 654 492 654 481 647 c 0,66,67
 441 623 441 623 396 623 c 0,30,31
EndSplineSet
EndChar

StartChar: adieresis
Encoding: 228 228 165
Width: 567
GlyphClass: 2
Flags: W
AnchorPoint: "Anchor-5" -46 0 basechar 0
AnchorPoint: "Anchor-4" -46 0 basechar 0
AnchorPoint: "Anchor-3" 237 517 basechar 0
AnchorPoint: "Anchor-2" 431 12 basechar 0
LayerCount: 2
Fore
SplineSet
361 0 m 1,0,-1
 368 49 l 1,1,2
 328 17 328 17 290.5 3.5 c 128,-1,3
 253 -10 253 -10 213 -10 c 0,4,5
 149 -10 149 -10 103.5 21 c 128,-1,6
 58 52 58 52 39 113.5 c 128,-1,7
 20 175 20 175 32 264 c 0,8,9
 44 350 44 350 80.5 409 c 128,-1,10
 117 468 117 468 168.5 497.5 c 128,-1,11
 220 527 220 527 280 527 c 0,12,13
 331 527 331 527 364.5 508 c 128,-1,14
 398 489 398 489 426 460 c 1,15,-1
 434 517 l 1,16,-1
 556 517 l 1,17,-1
 482 0 l 1,18,-1
 361 0 l 1,0,-1
387 188 m 1,19,-1
 404 307 l 2,20,21
 412 366 412 366 386 404 c 128,-1,22
 360 442 360 442 309 442 c 0,23,24
 254 442 254 442 211 397 c 128,-1,25
 168 352 168 352 156 264 c 128,-1,26
 144 176 144 176 173.5 125 c 128,-1,27
 203 74 203 74 261 74 c 0,28,29
 334 74 334 74 387 188 c 1,19,-1
289 605 m 1,30,-1
 179 605 l 1,31,-1
 196 723 l 1,32,-1
 306 723 l 1,33,-1
 289 605 l 1,30,-1
465 605 m 1,34,-1
 354 605 l 1,35,-1
 371 723 l 1,36,-1
 482 723 l 1,37,-1
 465 605 l 1,34,-1
EndSplineSet
EndChar

StartChar: aring
Encoding: 229 229 166
Width: 567
GlyphClass: 2
Flags: W
AnchorPoint: "Anchor-5" -46 0 basechar 0
AnchorPoint: "Anchor-4" -46 0 basechar 0
AnchorPoint: "Anchor-3" 237 517 basechar 0
AnchorPoint: "Anchor-2" 431 12 basechar 0
LayerCount: 2
Fore
SplineSet
361 0 m 1,0,-1
 368 49 l 1,1,2
 328 17 328 17 290.5 3.5 c 128,-1,3
 253 -10 253 -10 213 -10 c 0,4,5
 149 -10 149 -10 103.5 21 c 128,-1,6
 58 52 58 52 39 113.5 c 128,-1,7
 20 175 20 175 32 264 c 0,8,9
 44 350 44 350 80.5 409 c 128,-1,10
 117 468 117 468 168.5 497.5 c 128,-1,11
 220 527 220 527 280 527 c 0,12,13
 331 527 331 527 364.5 508 c 128,-1,14
 398 489 398 489 426 460 c 1,15,-1
 434 517 l 1,16,-1
 556 517 l 1,17,-1
 482 0 l 1,18,-1
 361 0 l 1,0,-1
387 188 m 1,19,-1
 404 307 l 2,20,21
 412 366 412 366 386 404 c 128,-1,22
 360 442 360 442 309 442 c 0,23,24
 254 442 254 442 211 397 c 128,-1,25
 168 352 168 352 156 264 c 128,-1,26
 144 176 144 176 173.5 125 c 128,-1,27
 203 74 203 74 261 74 c 0,28,29
 334 74 334 74 387 188 c 1,19,-1
397 602.5 m 128,-1,31
 362 572 362 572 318 572 c 0,32,33
 273 572 273 572 246.5 603 c 128,-1,34
 220 634 220 634 227 680 c 0,35,36
 233 723 233 723 268 752.5 c 128,-1,37
 303 782 303 782 347 782 c 128,-1,38
 391 782 391 782 417.5 751.5 c 128,-1,39
 444 721 444 721 438 678 c 0,40,30
 432 633 432 633 397 602.5 c 128,-1,31
372.5 713.5 m 128,-1,42
 360 728 360 728 338 728 c 0,43,44
 317 728 317 728 299.5 713.5 c 128,-1,45
 282 699 282 699 279 677 c 0,46,47
 276 657 276 657 289.5 641 c 128,-1,48
 303 625 303 625 324 625 c 128,-1,49
 345 625 345 625 362 640.5 c 128,-1,50
 379 656 379 656 382 677 c 0,51,41
 385 699 385 699 372.5 713.5 c 128,-1,42
EndSplineSet
EndChar

StartChar: ae
Encoding: 230 230 167
Width: 918
GlyphClass: 2
Flags: W
AnchorPoint: "Anchor-5" -46 0 basechar 0
AnchorPoint: "Anchor-4" -46 0 basechar 0
AnchorPoint: "Anchor-3" 407 517 basechar 0
AnchorPoint: "Anchor-2" -46 0 basechar 0
LayerCount: 2
Fore
SplineSet
497.5 155.5 m 128,-1,1
 512 119 512 119 542 97.5 c 128,-1,2
 572 76 572 76 612 76 c 0,3,4
 659 76 659 76 693.5 96 c 128,-1,5
 728 116 728 116 767 155 c 1,6,-1
 839 119 l 1,7,8
 789 52 789 52 727 21 c 128,-1,9
 665 -10 665 -10 585 -10 c 0,10,11
 465 -10 465 -10 397 86 c 0,12,13
 394 90 394 90 389 86 c 0,14,15
 340 41 340 41 287 15.5 c 128,-1,16
 234 -10 234 -10 160 -10 c 0,17,18
 82 -10 82 -10 43.5 29.5 c 128,-1,19
 5 69 5 69 14 136 c 0,20,21
 25 213 25 213 97 258.5 c 128,-1,22
 169 304 169 304 298 312 c 2,23,-1
 380 318 l 1,24,-1
 385 354 l 2,25,26
 391 398 391 398 369 422.5 c 128,-1,27
 347 447 347 447 297 447 c 0,28,29
 220 447 220 447 164 370 c 1,30,-1
 65 397 l 1,31,32
 106 462 106 462 165 494.5 c 128,-1,33
 224 527 224 527 314 527 c 0,34,35
 448 526 448 526 480 451 c 1,36,37
 515 488 515 488 561 507.5 c 128,-1,38
 607 527 607 527 659 527 c 0,39,40
 732 527 732 527 782.5 492.5 c 128,-1,41
 833 458 833 458 855 392 c 128,-1,42
 877 326 877 326 864 235 c 1,43,-1
 489 234 l 1,44,0
 483 192 483 192 497.5 155.5 c 128,-1,1
553.5 410 m 128,-1,46
 511 372 511 372 502 306 c 1,47,-1
 754 305 l 1,48,49
 759 340 759 340 748.5 373 c 128,-1,50
 738 406 738 406 713.5 427 c 128,-1,51
 689 448 689 448 652 448 c 0,52,45
 596 448 596 448 553.5 410 c 128,-1,46
302 245 m 2,53,54
 232 240 232 240 187 214 c 128,-1,55
 142 188 142 188 136 144 c 0,56,57
 131 110 131 110 151.5 89.5 c 128,-1,58
 172 69 172 69 213 69 c 0,59,60
 266 69 266 69 309 96.5 c 128,-1,61
 352 124 352 124 358 164 c 2,62,-1
 370 250 l 1,63,-1
 302 245 l 2,53,54
EndSplineSet
EndChar

StartChar: ccedilla
Encoding: 231 231 168
Width: 536
GlyphClass: 2
Flags: W
AnchorPoint: "Anchor-5" -46 0 basechar 0
AnchorPoint: "Anchor-4" 238 0 basechar 0
AnchorPoint: "Anchor-3" 238 517 basechar 0
AnchorPoint: "Anchor-2" -46 0 basechar 0
LayerCount: 2
Fore
SplineSet
442.5 480 m 128,-1,1
 488 433 488 433 496 357 c 1,2,-1
 396 347 l 1,3,4
 376 392 376 392 357.5 412.5 c 128,-1,5
 339 433 339 433 302 433 c 0,6,7
 241 433 241 433 199 386 c 128,-1,8
 157 339 157 339 145 258 c 0,9,10
 133 176 133 176 163 127.5 c 128,-1,11
 193 79 193 79 254 79 c 0,12,13
 294 79 294 79 322 102.5 c 128,-1,14
 350 126 350 126 376 168 c 1,15,-1
 470 158 l 1,16,17
 442 83 442 83 381.5 36.5 c 128,-1,18
 321 -10 321 -10 238 -10 c 0,19,20
 166 -10 166 -10 115 23.5 c 128,-1,21
 64 57 64 57 42 117.5 c 128,-1,22
 20 178 20 178 31 256 c 0,23,24
 42 335 42 335 81 396.5 c 128,-1,25
 120 458 120 458 180.5 492.5 c 128,-1,26
 241 527 241 527 313 527 c 0,27,0
 397 527 397 527 442.5 480 c 128,-1,1
283.5 -188.5 m 128,-1,29
 247 -210 247 -210 198 -210 c 0,30,31
 134 -210 134 -210 97 -183 c 1,32,-1
 121 -139 l 1,33,34
 153 -163 153 -163 191 -163 c 0,35,36
 216 -163 216 -163 230 -154.5 c 128,-1,37
 244 -146 244 -146 247 -130 c 0,38,39
 250 -109 250 -109 232.5 -98.5 c 128,-1,40
 215 -88 215 -88 171 -87 c 0,41,42
 165 -87 165 -87 163.5 -85.5 c 128,-1,43
 162 -84 162 -84 165 -79 c 2,44,-1
 213 5 l 1,45,-1
 271 5 l 1,46,-1
 239 -54 l 1,47,48
 289 -56 289 -56 309 -78.5 c 128,-1,49
 329 -101 329 -101 325 -130 c 0,50,28
 320 -167 320 -167 283.5 -188.5 c 128,-1,29
EndSplineSet
EndChar

StartChar: egrave
Encoding: 232 232 169
Width: 559
GlyphClass: 2
Flags: W
AnchorPoint: "Anchor-5" -46 0 basechar 0
AnchorPoint: "Anchor-4" 237 0 basechar 0
AnchorPoint: "Anchor-3" 239 517 basechar 0
AnchorPoint: "Anchor-2" 351 22 basechar 0
LayerCount: 2
Fore
SplineSet
167 122 m 128,-1,1
 195 81 195 81 256 81 c 0,2,3
 299 81 299 81 330 98 c 128,-1,4
 361 115 361 115 380 151 c 1,5,-1
 488 143 l 1,6,7
 463 73 463 73 395 31.5 c 128,-1,8
 327 -10 327 -10 247 -10 c 0,9,10
 173 -10 173 -10 120 22 c 128,-1,11
 67 54 67 54 43 113.5 c 128,-1,12
 19 173 19 173 31 253 c 0,13,14
 42 333 42 333 79.5 395 c 128,-1,15
 117 457 117 457 177 492 c 128,-1,16
 237 527 237 527 313 527 c 0,17,18
 424 527 424 527 475 456.5 c 128,-1,19
 526 386 526 386 510 267 c 2,20,-1
 504 230 l 1,21,-1
 148 230 l 1,22,0
 139 163 139 163 167 122 c 128,-1,1
401 306 m 1,23,24
 409 365 409 365 383.5 402 c 128,-1,25
 358 439 358 439 300 439 c 0,26,27
 243 439 243 439 204.5 399 c 128,-1,28
 166 359 166 359 159 306 c 1,29,-1
 401 306 l 1,23,24
458 633 m 1,30,-1
 431 578 l 1,31,-1
 182 649 l 1,32,-1
 223 733 l 1,33,-1
 458 633 l 1,30,-1
EndSplineSet
EndChar

StartChar: eacute
Encoding: 233 233 170
Width: 559
GlyphClass: 2
Flags: W
AnchorPoint: "Anchor-5" -46 0 basechar 0
AnchorPoint: "Anchor-4" 237 0 basechar 0
AnchorPoint: "Anchor-3" 239 517 basechar 0
AnchorPoint: "Anchor-2" 351 22 basechar 0
LayerCount: 2
Fore
SplineSet
167 122 m 128,-1,1
 195 81 195 81 256 81 c 0,2,3
 299 81 299 81 330 98 c 128,-1,4
 361 115 361 115 380 151 c 1,5,-1
 488 143 l 1,6,7
 463 73 463 73 395 31.5 c 128,-1,8
 327 -10 327 -10 247 -10 c 0,9,10
 173 -10 173 -10 120 22 c 128,-1,11
 67 54 67 54 43 113.5 c 128,-1,12
 19 173 19 173 31 253 c 0,13,14
 42 333 42 333 79.5 395 c 128,-1,15
 117 457 117 457 177 492 c 128,-1,16
 237 527 237 527 313 527 c 0,17,18
 424 527 424 527 475 456.5 c 128,-1,19
 526 386 526 386 510 267 c 2,20,-1
 504 230 l 1,21,-1
 148 230 l 1,22,0
 139 163 139 163 167 122 c 128,-1,1
401 306 m 1,23,24
 409 365 409 365 383.5 402 c 128,-1,25
 358 439 358 439 300 439 c 0,26,27
 243 439 243 439 204.5 399 c 128,-1,28
 166 359 166 359 159 306 c 1,29,-1
 401 306 l 1,23,24
469 649 m 1,30,-1
 200 578 l 1,31,-1
 190 633 l 1,32,-1
 453 733 l 1,33,-1
 469 649 l 1,30,-1
EndSplineSet
EndChar

StartChar: ecircumflex
Encoding: 234 234 171
Width: 559
GlyphClass: 2
Flags: W
AnchorPoint: "Anchor-5" -46 0 basechar 0
AnchorPoint: "Anchor-4" 237 0 basechar 0
AnchorPoint: "Anchor-3" 239 517 basechar 0
AnchorPoint: "Anchor-2" 351 22 basechar 0
LayerCount: 2
Fore
SplineSet
167 122 m 128,-1,1
 195 81 195 81 256 81 c 0,2,3
 299 81 299 81 330 98 c 128,-1,4
 361 115 361 115 380 151 c 1,5,-1
 488 143 l 1,6,7
 463 73 463 73 395 31.5 c 128,-1,8
 327 -10 327 -10 247 -10 c 0,9,10
 173 -10 173 -10 120 22 c 128,-1,11
 67 54 67 54 43 113.5 c 128,-1,12
 19 173 19 173 31 253 c 0,13,14
 42 333 42 333 79.5 395 c 128,-1,15
 117 457 117 457 177 492 c 128,-1,16
 237 527 237 527 313 527 c 0,17,18
 424 527 424 527 475 456.5 c 128,-1,19
 526 386 526 386 510 267 c 2,20,-1
 504 230 l 1,21,-1
 148 230 l 1,22,0
 139 163 139 163 167 122 c 128,-1,1
401 306 m 1,23,24
 409 365 409 365 383.5 402 c 128,-1,25
 358 439 358 439 300 439 c 0,26,27
 243 439 243 439 204.5 399 c 128,-1,28
 166 359 166 359 159 306 c 1,29,-1
 401 306 l 1,23,24
334 674 m 1,30,-1
 250 603 l 1,31,-1
 153 603 l 1,32,-1
 299 728 l 1,33,-1
 384 728 l 1,34,-1
 493 603 l 1,35,-1
 391 603 l 1,36,-1
 334 674 l 1,30,-1
EndSplineSet
EndChar

StartChar: edieresis
Encoding: 235 235 172
Width: 559
GlyphClass: 2
Flags: W
AnchorPoint: "Anchor-5" -46 0 basechar 0
AnchorPoint: "Anchor-4" 237 0 basechar 0
AnchorPoint: "Anchor-3" 239 517 basechar 0
AnchorPoint: "Anchor-2" 351 22 basechar 0
LayerCount: 2
Fore
SplineSet
167 122 m 128,-1,1
 195 81 195 81 256 81 c 0,2,3
 299 81 299 81 330 98 c 128,-1,4
 361 115 361 115 380 151 c 1,5,-1
 488 143 l 1,6,7
 463 73 463 73 395 31.5 c 128,-1,8
 327 -10 327 -10 247 -10 c 0,9,10
 173 -10 173 -10 120 22 c 128,-1,11
 67 54 67 54 43 113.5 c 128,-1,12
 19 173 19 173 31 253 c 0,13,14
 42 333 42 333 79.5 395 c 128,-1,15
 117 457 117 457 177 492 c 128,-1,16
 237 527 237 527 313 527 c 0,17,18
 424 527 424 527 475 456.5 c 128,-1,19
 526 386 526 386 510 267 c 2,20,-1
 504 230 l 1,21,-1
 148 230 l 1,22,0
 139 163 139 163 167 122 c 128,-1,1
401 306 m 1,23,24
 409 365 409 365 383.5 402 c 128,-1,25
 358 439 358 439 300 439 c 0,26,27
 243 439 243 439 204.5 399 c 128,-1,28
 166 359 166 359 159 306 c 1,29,-1
 401 306 l 1,23,24
291 605 m 1,30,-1
 181 605 l 1,31,-1
 198 723 l 1,32,-1
 308 723 l 1,33,-1
 291 605 l 1,30,-1
467 605 m 1,34,-1
 356 605 l 1,35,-1
 373 723 l 1,36,-1
 484 723 l 1,37,-1
 467 605 l 1,34,-1
EndSplineSet
EndChar

StartChar: igrave
Encoding: 236 236 173
Width: 267
GlyphClass: 2
Flags: W
AnchorPoint: "Anchor-5" -46 0 basechar 0
AnchorPoint: "Anchor-4" -46 0 basechar 0
AnchorPoint: "Anchor-3" 89 517 basechar 0
AnchorPoint: "Anchor-2" 129 11 basechar 0
LayerCount: 2
Fore
SplineSet
148 0 m 1,0,-1
 26 0 l 1,1,-1
 99 517 l 1,2,-1
 221 517 l 1,3,-1
 148 0 l 1,0,-1
308 633 m 1,4,-1
 281 578 l 1,5,-1
 32 649 l 1,6,-1
 73 733 l 1,7,-1
 308 633 l 1,4,-1
EndSplineSet
EndChar

StartChar: iacute
Encoding: 237 237 174
Width: 267
GlyphClass: 2
Flags: W
AnchorPoint: "Anchor-5" -46 0 basechar 0
AnchorPoint: "Anchor-4" -46 0 basechar 0
AnchorPoint: "Anchor-3" 89 517 basechar 0
AnchorPoint: "Anchor-2" 129 11 basechar 0
LayerCount: 2
Fore
SplineSet
148 0 m 1,0,-1
 26 0 l 1,1,-1
 99 517 l 1,2,-1
 221 517 l 1,3,-1
 148 0 l 1,0,-1
319 649 m 1,4,-1
 50 578 l 1,5,-1
 40 633 l 1,6,-1
 303 733 l 1,7,-1
 319 649 l 1,4,-1
EndSplineSet
EndChar

StartChar: icircumflex
Encoding: 238 238 175
Width: 267
GlyphClass: 2
Flags: W
AnchorPoint: "Anchor-5" -46 0 basechar 0
AnchorPoint: "Anchor-4" -46 0 basechar 0
AnchorPoint: "Anchor-3" 89 517 basechar 0
AnchorPoint: "Anchor-2" 129 11 basechar 0
LayerCount: 2
Fore
SplineSet
148 0 m 1,0,-1
 26 0 l 1,1,-1
 99 517 l 1,2,-1
 221 517 l 1,3,-1
 148 0 l 1,0,-1
184 674 m 1,4,-1
 100 603 l 1,5,-1
 3 603 l 1,6,-1
 149 728 l 1,7,-1
 234 728 l 1,8,-1
 343 603 l 1,9,-1
 241 603 l 1,10,-1
 184 674 l 1,4,-1
EndSplineSet
EndChar

StartChar: idieresis
Encoding: 239 239 176
Width: 267
GlyphClass: 2
Flags: W
AnchorPoint: "Anchor-5" -46 0 basechar 0
AnchorPoint: "Anchor-4" -46 0 basechar 0
AnchorPoint: "Anchor-3" 89 517 basechar 0
AnchorPoint: "Anchor-2" 129 11 basechar 0
LayerCount: 2
Fore
SplineSet
148 0 m 1,0,-1
 26 0 l 1,1,-1
 99 517 l 1,2,-1
 221 517 l 1,3,-1
 148 0 l 1,0,-1
141 605 m 1,4,-1
 31 605 l 1,5,-1
 48 723 l 1,6,-1
 158 723 l 1,7,-1
 141 605 l 1,4,-1
317 605 m 1,8,-1
 206 605 l 1,9,-1
 223 723 l 1,10,-1
 334 723 l 1,11,-1
 317 605 l 1,8,-1
EndSplineSet
EndChar

StartChar: eth
Encoding: 240 240 177
Width: 593
GlyphClass: 2
Flags: W
LayerCount: 2
Fore
SplineSet
491.5 120 m 128,-1,1
 451 58 451 58 388.5 24 c 128,-1,2
 326 -10 326 -10 248 -10 c 0,3,4
 174 -10 174 -10 120.5 23 c 128,-1,5
 67 56 67 56 43 114.5 c 128,-1,6
 19 173 19 173 30 246 c 0,7,8
 41 321 41 321 81.5 380.5 c 128,-1,9
 122 440 122 440 184 473.5 c 128,-1,10
 246 507 246 507 317 507 c 0,11,12
 368 507 368 507 393 478 c 1,13,14
 366 549 366 549 300 602 c 1,15,-1
 151 524 l 1,16,-1
 131 567 l 1,17,-1
 256 631 l 1,18,19
 218 654 218 654 156 679 c 1,20,-1
 234 734 l 1,21,22
 299 714 299 714 354 682 c 1,23,-1
 457 736 l 1,24,-1
 475 692 l 1,25,-1
 398 652 l 1,26,27
 488 584 488 584 524 484 c 128,-1,28
 560 384 560 384 543 263 c 0,29,0
 532 182 532 182 491.5 120 c 128,-1,1
363.5 121.5 m 128,-1,31
 406 169 406 169 417 249 c 128,-1,32
 428 329 428 329 399.5 377 c 128,-1,33
 371 425 371 425 311 425 c 128,-1,34
 251 425 251 425 208 377 c 128,-1,35
 165 329 165 329 154 249 c 128,-1,36
 143 169 143 169 172 121.5 c 128,-1,37
 201 74 201 74 261 74 c 128,-1,30
 321 74 321 74 363.5 121.5 c 128,-1,31
EndSplineSet
EndChar

StartChar: ntilde
Encoding: 241 241 178
Width: 600
GlyphClass: 2
Flags: W
AnchorPoint: "Anchor-5" -46 0 basechar 0
AnchorPoint: "Anchor-4" 254 0 basechar 0
AnchorPoint: "Anchor-3" 259 517 basechar 0
AnchorPoint: "Anchor-2" -46 0 basechar 0
LayerCount: 2
Fore
SplineSet
99 517 m 1,0,-1
 218 517 l 1,1,-1
 208 448 l 1,2,3
 239 483 239 483 278.5 503 c 128,-1,4
 318 523 318 523 375 523 c 0,5,6
 424 523 424 523 461.5 501 c 128,-1,7
 499 479 499 479 518.5 438 c 128,-1,8
 538 397 538 397 530 342 c 2,9,-1
 482 0 l 1,10,-1
 360 0 l 1,11,-1
 406 329 l 2,12,13
 412 374 412 374 388.5 400 c 128,-1,14
 365 426 365 426 321 426 c 0,15,16
 274 426 274 426 238 403.5 c 128,-1,17
 202 381 202 381 196 340 c 2,18,-1
 148 0 l 1,19,-1
 26 0 l 1,20,-1
 99 517 l 1,0,-1
418 623 m 0,21,22
 389 623 389 623 347 637 c 0,23,24
 312 650 312 650 285 650 c 0,25,26
 266 650 266 650 252.5 645 c 128,-1,27
 239 640 239 640 219 628 c 0,28,29
 212 624 212 624 210 624 c 0,30,31
 205 624 205 624 203 634 c 2,32,-1
 197 669 l 1,33,-1
 196 677 l 2,34,35
 197 682 197 682 205 689 c 0,36,37
 226 705 226 705 245 713.5 c 128,-1,38
 264 722 264 722 290 722 c 0,39,40
 308 722 308 722 327.5 717.5 c 128,-1,41
 347 713 347 713 364 707 c 0,42,43
 379 702 379 702 395.5 697.5 c 128,-1,44
 412 693 412 693 427 693 c 0,45,46
 444 693 444 693 459.5 699 c 128,-1,47
 475 705 475 705 492 715 c 0,48,49
 497 718 497 718 502 718 c 0,50,51
 509 718 509 718 511 709 c 2,52,-1
 515 667 l 2,53,54
 516 665 516 665 515 661 c 0,55,56
 514 654 514 654 503 647 c 0,57,58
 463 623 463 623 418 623 c 0,21,22
EndSplineSet
EndChar

StartChar: ograve
Encoding: 242 242 179
Width: 569
GlyphClass: 2
Flags: W
AnchorPoint: "Anchor-5" -46 0 basechar 0
AnchorPoint: "Anchor-4" 237 0 basechar 0
AnchorPoint: "Anchor-3" 240 517 basechar 0
AnchorPoint: "Anchor-2" 309 10 basechar 0
LayerCount: 2
Fore
SplineSet
112.5 23.5 m 128,-1,1
 62 57 62 57 41 117 c 128,-1,2
 20 177 20 177 31 255 c 0,3,4
 42 335 42 335 80.5 396.5 c 128,-1,5
 119 458 119 458 180 492.5 c 128,-1,6
 241 527 241 527 314 527 c 0,7,8
 388 527 388 527 438 492.5 c 128,-1,9
 488 458 488 458 508.5 396.5 c 128,-1,10
 529 335 529 335 518 256 c 0,11,12
 507 178 507 178 469.5 117.5 c 128,-1,13
 432 57 432 57 372.5 23.5 c 128,-1,14
 313 -10 313 -10 238 -10 c 128,-1,0
 163 -10 163 -10 112.5 23.5 c 128,-1,1
352 132.5 m 128,-1,16
 389 183 389 183 400 260 c 128,-1,17
 411 337 411 337 387 386 c 128,-1,18
 363 435 363 435 301 435 c 0,19,20
 237 435 237 435 199.5 386 c 128,-1,21
 162 337 162 337 152 260 c 0,22,23
 141 183 141 183 165 132.5 c 128,-1,24
 189 82 189 82 252 82 c 128,-1,15
 315 82 315 82 352 132.5 c 128,-1,16
459 633 m 1,25,-1
 432 578 l 1,26,-1
 183 649 l 1,27,-1
 224 733 l 1,28,-1
 459 633 l 1,25,-1
EndSplineSet
EndChar

StartChar: oacute
Encoding: 243 243 180
Width: 569
GlyphClass: 2
Flags: W
AnchorPoint: "Anchor-5" -46 0 basechar 0
AnchorPoint: "Anchor-4" 237 0 basechar 0
AnchorPoint: "Anchor-3" 240 517 basechar 0
AnchorPoint: "Anchor-2" 309 10 basechar 0
LayerCount: 2
Fore
SplineSet
112.5 23.5 m 128,-1,1
 62 57 62 57 41 117 c 128,-1,2
 20 177 20 177 31 255 c 0,3,4
 42 335 42 335 80.5 396.5 c 128,-1,5
 119 458 119 458 180 492.5 c 128,-1,6
 241 527 241 527 314 527 c 0,7,8
 388 527 388 527 438 492.5 c 128,-1,9
 488 458 488 458 508.5 396.5 c 128,-1,10
 529 335 529 335 518 256 c 0,11,12
 507 178 507 178 469.5 117.5 c 128,-1,13
 432 57 432 57 372.5 23.5 c 128,-1,14
 313 -10 313 -10 238 -10 c 128,-1,0
 163 -10 163 -10 112.5 23.5 c 128,-1,1
352 132.5 m 128,-1,16
 389 183 389 183 400 260 c 128,-1,17
 411 337 411 337 387 386 c 128,-1,18
 363 435 363 435 301 435 c 0,19,20
 237 435 237 435 199.5 386 c 128,-1,21
 162 337 162 337 152 260 c 0,22,23
 141 183 141 183 165 132.5 c 128,-1,24
 189 82 189 82 252 82 c 128,-1,15
 315 82 315 82 352 132.5 c 128,-1,16
470 649 m 1,25,-1
 201 578 l 1,26,-1
 191 633 l 1,27,-1
 454 733 l 1,28,-1
 470 649 l 1,25,-1
EndSplineSet
EndChar

StartChar: ocircumflex
Encoding: 244 244 181
Width: 569
GlyphClass: 2
Flags: W
AnchorPoint: "Anchor-5" -46 0 basechar 0
AnchorPoint: "Anchor-4" 237 0 basechar 0
AnchorPoint: "Anchor-3" 240 517 basechar 0
AnchorPoint: "Anchor-2" 309 10 basechar 0
LayerCount: 2
Fore
SplineSet
112.5 23.5 m 128,-1,1
 62 57 62 57 41 117 c 128,-1,2
 20 177 20 177 31 255 c 0,3,4
 42 335 42 335 80.5 396.5 c 128,-1,5
 119 458 119 458 180 492.5 c 128,-1,6
 241 527 241 527 314 527 c 0,7,8
 388 527 388 527 438 492.5 c 128,-1,9
 488 458 488 458 508.5 396.5 c 128,-1,10
 529 335 529 335 518 256 c 0,11,12
 507 178 507 178 469.5 117.5 c 128,-1,13
 432 57 432 57 372.5 23.5 c 128,-1,14
 313 -10 313 -10 238 -10 c 128,-1,0
 163 -10 163 -10 112.5 23.5 c 128,-1,1
352 132.5 m 128,-1,16
 389 183 389 183 400 260 c 128,-1,17
 411 337 411 337 387 386 c 128,-1,18
 363 435 363 435 301 435 c 0,19,20
 237 435 237 435 199.5 386 c 128,-1,21
 162 337 162 337 152 260 c 0,22,23
 141 183 141 183 165 132.5 c 128,-1,24
 189 82 189 82 252 82 c 128,-1,15
 315 82 315 82 352 132.5 c 128,-1,16
335 674 m 1,25,-1
 251 603 l 1,26,-1
 154 603 l 1,27,-1
 300 728 l 1,28,-1
 385 728 l 1,29,-1
 494 603 l 1,30,-1
 392 603 l 1,31,-1
 335 674 l 1,25,-1
EndSplineSet
EndChar

StartChar: otilde
Encoding: 245 245 182
Width: 569
GlyphClass: 2
Flags: W
AnchorPoint: "Anchor-5" -46 0 basechar 0
AnchorPoint: "Anchor-4" 237 0 basechar 0
AnchorPoint: "Anchor-3" 240 517 basechar 0
AnchorPoint: "Anchor-2" 309 10 basechar 0
LayerCount: 2
Fore
SplineSet
112.5 23.5 m 128,-1,1
 62 57 62 57 41 117 c 128,-1,2
 20 177 20 177 31 255 c 0,3,4
 42 335 42 335 80.5 396.5 c 128,-1,5
 119 458 119 458 180 492.5 c 128,-1,6
 241 527 241 527 314 527 c 0,7,8
 388 527 388 527 438 492.5 c 128,-1,9
 488 458 488 458 508.5 396.5 c 128,-1,10
 529 335 529 335 518 256 c 0,11,12
 507 178 507 178 469.5 117.5 c 128,-1,13
 432 57 432 57 372.5 23.5 c 128,-1,14
 313 -10 313 -10 238 -10 c 128,-1,0
 163 -10 163 -10 112.5 23.5 c 128,-1,1
352 132.5 m 128,-1,16
 389 183 389 183 400 260 c 128,-1,17
 411 337 411 337 387 386 c 128,-1,18
 363 435 363 435 301 435 c 0,19,20
 237 435 237 435 199.5 386 c 128,-1,21
 162 337 162 337 152 260 c 0,22,23
 141 183 141 183 165 132.5 c 128,-1,24
 189 82 189 82 252 82 c 128,-1,15
 315 82 315 82 352 132.5 c 128,-1,16
399 623 m 0,25,26
 370 623 370 623 328 637 c 0,27,28
 293 650 293 650 266 650 c 0,29,30
 247 650 247 650 233.5 645 c 128,-1,31
 220 640 220 640 200 628 c 0,32,33
 193 624 193 624 191 624 c 0,34,35
 186 624 186 624 184 634 c 2,36,-1
 178 669 l 1,37,-1
 177 677 l 2,38,39
 178 682 178 682 186 689 c 0,40,41
 207 705 207 705 226 713.5 c 128,-1,42
 245 722 245 722 271 722 c 0,43,44
 289 722 289 722 308.5 717.5 c 128,-1,45
 328 713 328 713 345 707 c 0,46,47
 360 702 360 702 376.5 697.5 c 128,-1,48
 393 693 393 693 408 693 c 0,49,50
 425 693 425 693 440.5 699 c 128,-1,51
 456 705 456 705 473 715 c 0,52,53
 478 718 478 718 483 718 c 0,54,55
 490 718 490 718 492 709 c 2,56,-1
 496 667 l 2,57,58
 497 665 497 665 496 661 c 0,59,60
 495 654 495 654 484 647 c 0,61,62
 444 623 444 623 399 623 c 0,25,26
EndSplineSet
EndChar

StartChar: odieresis
Encoding: 246 246 183
Width: 569
GlyphClass: 2
Flags: W
AnchorPoint: "Anchor-5" -46 0 basechar 0
AnchorPoint: "Anchor-4" 237 0 basechar 0
AnchorPoint: "Anchor-3" 240 517 basechar 0
AnchorPoint: "Anchor-2" 309 10 basechar 0
LayerCount: 2
Fore
SplineSet
112.5 23.5 m 128,-1,1
 62 57 62 57 41 117 c 128,-1,2
 20 177 20 177 31 255 c 0,3,4
 42 335 42 335 80.5 396.5 c 128,-1,5
 119 458 119 458 180 492.5 c 128,-1,6
 241 527 241 527 314 527 c 0,7,8
 388 527 388 527 438 492.5 c 128,-1,9
 488 458 488 458 508.5 396.5 c 128,-1,10
 529 335 529 335 518 256 c 0,11,12
 507 178 507 178 469.5 117.5 c 128,-1,13
 432 57 432 57 372.5 23.5 c 128,-1,14
 313 -10 313 -10 238 -10 c 128,-1,0
 163 -10 163 -10 112.5 23.5 c 128,-1,1
352 132.5 m 128,-1,16
 389 183 389 183 400 260 c 128,-1,17
 411 337 411 337 387 386 c 128,-1,18
 363 435 363 435 301 435 c 0,19,20
 237 435 237 435 199.5 386 c 128,-1,21
 162 337 162 337 152 260 c 0,22,23
 141 183 141 183 165 132.5 c 128,-1,24
 189 82 189 82 252 82 c 128,-1,15
 315 82 315 82 352 132.5 c 128,-1,16
292 605 m 1,25,-1
 182 605 l 1,26,-1
 199 723 l 1,27,-1
 309 723 l 1,28,-1
 292 605 l 1,25,-1
468 605 m 1,29,-1
 357 605 l 1,30,-1
 374 723 l 1,31,-1
 485 723 l 1,32,-1
 468 605 l 1,29,-1
EndSplineSet
EndChar

StartChar: divide
Encoding: 247 247 184
Width: 572
GlyphClass: 2
Flags: W
LayerCount: 2
Fore
SplineSet
374 486 m 1,0,-1
 238 486 l 1,1,-1
 257 617 l 1,2,-1
 393 617 l 1,3,-1
 374 486 l 1,0,-1
509 318 m 1,4,-1
 55 318 l 1,5,-1
 67 409 l 1,6,-1
 521 409 l 1,7,-1
 509 318 l 1,4,-1
322 111 m 1,8,-1
 186 111 l 1,9,-1
 204 242 l 1,10,-1
 340 242 l 1,11,-1
 322 111 l 1,8,-1
EndSplineSet
EndChar

StartChar: oslash
Encoding: 248 248 185
Width: 588
GlyphClass: 2
Flags: W
AnchorPoint: "Anchor-5" -46 0 basechar 0
AnchorPoint: "Anchor-4" 243 0 basechar 0
AnchorPoint: "Anchor-3" 246 517 basechar 0
AnchorPoint: "Anchor-2" 315 10 basechar 0
LayerCount: 2
Fore
SplineSet
509 411 m 1,0,1
 537 345 537 345 524 256 c 0,2,3
 513 178 513 178 475.5 117.5 c 128,-1,4
 438 57 438 57 378.5 23.5 c 128,-1,5
 319 -10 319 -10 244 -10 c 0,6,7
 141 -10 141 -10 83 53 c 1,8,-1
 13 -7 l 1,9,-1
 -24 39 l 1,10,-1
 52 103 l 1,11,12
 24 168 24 168 37 255 c 0,13,14
 48 335 48 335 86.5 396.5 c 128,-1,15
 125 458 125 458 186 492.5 c 128,-1,16
 247 527 247 527 320 527 c 0,17,18
 422 527 422 527 478 462 c 1,19,-1
 549 522 l 1,20,-1
 586 476 l 1,21,-1
 509 411 l 1,0,1
156 190 m 1,22,-1
 392 389 l 1,23,24
 365 435 365 435 307 435 c 0,25,26
 243 435 243 435 205.5 386 c 128,-1,27
 168 337 168 337 158 260 c 0,28,29
 152 219 152 219 156 190 c 1,22,-1
408 326 m 1,30,-1
 173 128 l 1,31,32
 200 82 200 82 258 82 c 0,33,34
 321 82 321 82 358 132.5 c 128,-1,35
 395 183 395 183 406 260 c 0,36,37
 411 298 411 298 408 326 c 1,30,-1
EndSplineSet
EndChar

StartChar: ugrave
Encoding: 249 249 186
Width: 600
GlyphClass: 2
Flags: W
AnchorPoint: "Anchor-5" -46 0 basechar 0
AnchorPoint: "Anchor-4" 253 0 basechar 0
AnchorPoint: "Anchor-3" 248 517 basechar 0
AnchorPoint: "Anchor-2" 461 10 basechar 0
LayerCount: 2
Fore
SplineSet
130 9.5 m 128,-1,1
 88 28 88 28 64.5 67 c 128,-1,2
 41 106 41 106 49 163 c 2,3,-1
 99 518 l 1,4,-1
 221 518 l 1,5,-1
 173 177 l 2,6,7
 166 129 166 129 193 105 c 128,-1,8
 220 81 220 81 262 81 c 0,9,10
 308 81 308 81 342.5 107.5 c 128,-1,11
 377 134 377 134 384 181 c 2,12,-1
 432 518 l 1,13,-1
 555 518 l 1,14,-1
 480 0 l 1,15,-1
 386 0 l 1,16,-1
 390 76 l 1,17,18
 366 39 366 39 315.5 14.5 c 128,-1,19
 265 -10 265 -10 218 -10 c 0,20,0
 172 -9 172 -9 130 9.5 c 128,-1,1
467 633 m 1,21,-1
 440 578 l 1,22,-1
 191 649 l 1,23,-1
 232 733 l 1,24,-1
 467 633 l 1,21,-1
EndSplineSet
EndChar

StartChar: uacute
Encoding: 250 250 187
Width: 600
GlyphClass: 2
Flags: W
AnchorPoint: "Anchor-5" -46 0 basechar 0
AnchorPoint: "Anchor-4" 253 0 basechar 0
AnchorPoint: "Anchor-3" 248 517 basechar 0
AnchorPoint: "Anchor-2" 461 10 basechar 0
LayerCount: 2
Fore
SplineSet
130 9.5 m 128,-1,1
 88 28 88 28 64.5 67 c 128,-1,2
 41 106 41 106 49 163 c 2,3,-1
 99 518 l 1,4,-1
 221 518 l 1,5,-1
 173 177 l 2,6,7
 166 129 166 129 193 105 c 128,-1,8
 220 81 220 81 262 81 c 0,9,10
 308 81 308 81 342.5 107.5 c 128,-1,11
 377 134 377 134 384 181 c 2,12,-1
 432 518 l 1,13,-1
 555 518 l 1,14,-1
 480 0 l 1,15,-1
 386 0 l 1,16,-1
 390 76 l 1,17,18
 366 39 366 39 315.5 14.5 c 128,-1,19
 265 -10 265 -10 218 -10 c 0,20,0
 172 -9 172 -9 130 9.5 c 128,-1,1
478 649 m 1,21,-1
 209 578 l 1,22,-1
 199 633 l 1,23,-1
 462 733 l 1,24,-1
 478 649 l 1,21,-1
EndSplineSet
EndChar

StartChar: ucircumflex
Encoding: 251 251 188
Width: 600
GlyphClass: 2
Flags: W
AnchorPoint: "Anchor-5" -46 0 basechar 0
AnchorPoint: "Anchor-4" 253 0 basechar 0
AnchorPoint: "Anchor-3" 248 517 basechar 0
AnchorPoint: "Anchor-2" 461 10 basechar 0
LayerCount: 2
Fore
SplineSet
130 9.5 m 128,-1,1
 88 28 88 28 64.5 67 c 128,-1,2
 41 106 41 106 49 163 c 2,3,-1
 99 518 l 1,4,-1
 221 518 l 1,5,-1
 173 177 l 2,6,7
 166 129 166 129 193 105 c 128,-1,8
 220 81 220 81 262 81 c 0,9,10
 308 81 308 81 342.5 107.5 c 128,-1,11
 377 134 377 134 384 181 c 2,12,-1
 432 518 l 1,13,-1
 555 518 l 1,14,-1
 480 0 l 1,15,-1
 386 0 l 1,16,-1
 390 76 l 1,17,18
 366 39 366 39 315.5 14.5 c 128,-1,19
 265 -10 265 -10 218 -10 c 0,20,0
 172 -9 172 -9 130 9.5 c 128,-1,1
343 674 m 1,21,-1
 259 603 l 1,22,-1
 162 603 l 1,23,-1
 308 728 l 1,24,-1
 393 728 l 1,25,-1
 502 603 l 1,26,-1
 400 603 l 1,27,-1
 343 674 l 1,21,-1
EndSplineSet
EndChar

StartChar: udieresis
Encoding: 252 252 189
Width: 600
GlyphClass: 2
Flags: W
AnchorPoint: "Anchor-5" -46 0 basechar 0
AnchorPoint: "Anchor-4" 253 0 basechar 0
AnchorPoint: "Anchor-3" 248 517 basechar 0
AnchorPoint: "Anchor-2" 461 10 basechar 0
LayerCount: 2
Fore
SplineSet
130 9.5 m 128,-1,1
 88 28 88 28 64.5 67 c 128,-1,2
 41 106 41 106 49 163 c 2,3,-1
 99 518 l 1,4,-1
 221 518 l 1,5,-1
 173 177 l 2,6,7
 166 129 166 129 193 105 c 128,-1,8
 220 81 220 81 262 81 c 0,9,10
 308 81 308 81 342.5 107.5 c 128,-1,11
 377 134 377 134 384 181 c 2,12,-1
 432 518 l 1,13,-1
 555 518 l 1,14,-1
 480 0 l 1,15,-1
 386 0 l 1,16,-1
 390 76 l 1,17,18
 366 39 366 39 315.5 14.5 c 128,-1,19
 265 -10 265 -10 218 -10 c 0,20,0
 172 -9 172 -9 130 9.5 c 128,-1,1
300 605 m 1,21,-1
 190 605 l 1,22,-1
 207 723 l 1,23,-1
 317 723 l 1,24,-1
 300 605 l 1,21,-1
476 605 m 1,25,-1
 365 605 l 1,26,-1
 382 723 l 1,27,-1
 493 723 l 1,28,-1
 476 605 l 1,25,-1
EndSplineSet
EndChar

StartChar: yacute
Encoding: 253 253 190
Width: 551
GlyphClass: 2
Flags: W
AnchorPoint: "Anchor-5" -46 0 basechar 0
AnchorPoint: "Anchor-4" -46 0 basechar 0
AnchorPoint: "Anchor-3" 243 517 basechar 0
AnchorPoint: "Anchor-2" -46 0 basechar 0
LayerCount: 2
Fore
SplineSet
19.5 -161.5 m 128,-1,1
 0 -158 0 -158 -8.5 -154.5 c 128,-1,2
 -17 -151 -17 -151 -19 -150 c 2,3,-1
 -8 -72 l 1,4,-1
 44 -73 l 2,5,6
 99 -76 99 -76 122 -60 c 128,-1,7
 145 -44 145 -44 158 -20 c 2,8,-1
 176 17 l 1,9,-1
 46 517 l 1,10,-1
 167 517 l 1,11,-1
 252 152 l 1,12,-1
 441 517 l 1,13,-1
 560 517 l 1,14,-1
 271 -19 l 2,15,16
 225 -102 225 -102 177.5 -133.5 c 128,-1,17
 130 -165 130 -165 68 -165 c 0,18,0
 39 -165 39 -165 19.5 -161.5 c 128,-1,1
473 649 m 1,19,-1
 204 578 l 1,20,-1
 194 633 l 1,21,-1
 457 733 l 1,22,-1
 473 649 l 1,19,-1
EndSplineSet
EndChar

StartChar: thorn
Encoding: 254 254 191
Width: 600
GlyphClass: 2
Flags: W
LayerCount: 2
Fore
SplineSet
210 449 m 1,0,1
 248 485 248 485 286 506 c 128,-1,2
 324 527 324 527 381 527 c 0,3,4
 440 527 440 527 482.5 497.5 c 128,-1,5
 525 468 525 468 543.5 409 c 128,-1,6
 562 350 562 350 550 264 c 0,7,8
 531 131 531 131 462.5 60.5 c 128,-1,9
 394 -10 394 -10 297 -10 c 0,10,11
 219 -10 219 -10 171 40 c 0,12,13
 164 47 164 47 159 47 c 0,14,15
 155 47 155 47 153 34 c 2,16,-1
 125 -161 l 1,17,-1
 3 -161 l 1,18,-1
 128 723 l 1,19,-1
 249 723 l 1,20,-1
 210 449 l 1,0,1
267 70 m 0,21,22
 329 70 329 70 370.5 118 c 128,-1,23
 412 166 412 166 426 265 c 0,24,25
 439 360 439 360 410.5 403.5 c 128,-1,26
 382 447 382 447 323 447 c 0,27,28
 292 447 292 447 264 433 c 128,-1,29
 236 419 236 419 218.5 397.5 c 128,-1,30
 201 376 201 376 198 354 c 2,31,-1
 166 125 l 1,32,33
 208 70 208 70 267 70 c 0,21,22
EndSplineSet
EndChar

StartChar: ydieresis
Encoding: 255 255 192
Width: 551
GlyphClass: 2
Flags: W
AnchorPoint: "Anchor-5" -46 0 basechar 0
AnchorPoint: "Anchor-4" -46 0 basechar 0
AnchorPoint: "Anchor-3" 243 517 basechar 0
AnchorPoint: "Anchor-2" -46 0 basechar 0
LayerCount: 2
Fore
SplineSet
19.5 -161.5 m 128,-1,1
 0 -158 0 -158 -8.5 -154.5 c 128,-1,2
 -17 -151 -17 -151 -19 -150 c 2,3,-1
 -8 -72 l 1,4,-1
 44 -73 l 2,5,6
 99 -76 99 -76 122 -60 c 128,-1,7
 145 -44 145 -44 158 -20 c 2,8,-1
 176 17 l 1,9,-1
 46 517 l 1,10,-1
 167 517 l 1,11,-1
 252 152 l 1,12,-1
 441 517 l 1,13,-1
 560 517 l 1,14,-1
 271 -19 l 2,15,16
 225 -102 225 -102 177.5 -133.5 c 128,-1,17
 130 -165 130 -165 68 -165 c 0,18,0
 39 -165 39 -165 19.5 -161.5 c 128,-1,1
295 605 m 1,19,-1
 185 605 l 1,20,-1
 202 723 l 1,21,-1
 312 723 l 1,22,-1
 295 605 l 1,19,-1
471 605 m 1,23,-1
 360 605 l 1,24,-1
 377 723 l 1,25,-1
 488 723 l 1,26,-1
 471 605 l 1,23,-1
EndSplineSet
EndChar

StartChar: Amacron
Encoding: 256 256 193
Width: 705
GlyphClass: 2
Flags: W
AnchorPoint: "Anchor-5" -46 0 basechar 0
AnchorPoint: "Anchor-4" -46 0 basechar 0
AnchorPoint: "Anchor-3" 315 723 basechar 0
AnchorPoint: "Anchor-2" 629 10 basechar 0
LayerCount: 2
Fore
SplineSet
343 723 m 1,0,-1
 475 723 l 1,1,-1
 633 0 l 1,2,-1
 510 0 l 1,3,-1
 471 181 l 1,4,-1
 195 181 l 1,5,-1
 104 0 l 1,6,-1
 -19 0 l 1,7,-1
 343 723 l 1,0,-1
457 290 m 1,8,-1
 393 605 l 1,9,-1
 239 290 l 1,10,-1
 457 290 l 1,8,-1
596 840 m 1,11,-1
 269 840 l 1,12,-1
 280 920 l 1,13,-1
 607 920 l 1,14,-1
 596 840 l 1,11,-1
EndSplineSet
EndChar

StartChar: amacron
Encoding: 257 257 194
Width: 567
GlyphClass: 2
Flags: W
AnchorPoint: "Anchor-5" -46 0 basechar 0
AnchorPoint: "Anchor-4" -46 0 basechar 0
AnchorPoint: "Anchor-3" 237 517 basechar 0
AnchorPoint: "Anchor-2" 431 12 basechar 0
LayerCount: 2
Fore
SplineSet
361 0 m 1,0,-1
 368 49 l 1,1,2
 328 17 328 17 290.5 3.5 c 128,-1,3
 253 -10 253 -10 213 -10 c 0,4,5
 149 -10 149 -10 103.5 21 c 128,-1,6
 58 52 58 52 39 113.5 c 128,-1,7
 20 175 20 175 32 264 c 0,8,9
 44 350 44 350 80.5 409 c 128,-1,10
 117 468 117 468 168.5 497.5 c 128,-1,11
 220 527 220 527 280 527 c 0,12,13
 331 527 331 527 364.5 508 c 128,-1,14
 398 489 398 489 426 460 c 1,15,-1
 434 517 l 1,16,-1
 556 517 l 1,17,-1
 482 0 l 1,18,-1
 361 0 l 1,0,-1
387 188 m 1,19,-1
 404 307 l 2,20,21
 412 366 412 366 386 404 c 128,-1,22
 360 442 360 442 309 442 c 0,23,24
 254 442 254 442 211 397 c 128,-1,25
 168 352 168 352 156 264 c 128,-1,26
 144 176 144 176 173.5 125 c 128,-1,27
 203 74 203 74 261 74 c 0,28,29
 334 74 334 74 387 188 c 1,19,-1
489 634 m 1,30,-1
 162 634 l 1,31,-1
 173 714 l 1,32,-1
 500 714 l 1,33,-1
 489 634 l 1,30,-1
EndSplineSet
EndChar

StartChar: Abreve
Encoding: 258 258 195
Width: 705
GlyphClass: 2
Flags: W
AnchorPoint: "Anchor-5" -46 0 basechar 0
AnchorPoint: "Anchor-4" -46 0 basechar 0
AnchorPoint: "Anchor-3" 315 723 basechar 0
AnchorPoint: "Anchor-2" 629 10 basechar 0
LayerCount: 2
Fore
SplineSet
343 723 m 1,0,-1
 475 723 l 1,1,-1
 633 0 l 1,2,-1
 510 0 l 1,3,-1
 471 181 l 1,4,-1
 195 181 l 1,5,-1
 104 0 l 1,6,-1
 -19 0 l 1,7,-1
 343 723 l 1,0,-1
457 290 m 1,8,-1
 393 605 l 1,9,-1
 239 290 l 1,10,-1
 457 290 l 1,8,-1
539.5 843 m 128,-1,12
 491 810 491 810 430 810 c 0,13,14
 368 810 368 810 328.5 842.5 c 128,-1,15
 289 875 289 875 283 929 c 1,16,-1
 361 929 l 1,17,18
 371 906 371 906 389.5 890.5 c 128,-1,19
 408 875 408 875 439 875 c 0,20,21
 466 875 466 875 491.5 891 c 128,-1,22
 517 907 517 907 532 929 c 1,23,-1
 612 929 l 1,24,11
 588 876 588 876 539.5 843 c 128,-1,12
EndSplineSet
EndChar

StartChar: abreve
Encoding: 259 259 196
Width: 567
GlyphClass: 2
Flags: W
AnchorPoint: "Anchor-5" -46 0 basechar 0
AnchorPoint: "Anchor-4" -46 0 basechar 0
AnchorPoint: "Anchor-3" 237 517 basechar 0
AnchorPoint: "Anchor-2" 431 12 basechar 0
LayerCount: 2
Fore
SplineSet
361 0 m 1,0,-1
 368 49 l 1,1,2
 328 17 328 17 290.5 3.5 c 128,-1,3
 253 -10 253 -10 213 -10 c 0,4,5
 149 -10 149 -10 103.5 21 c 128,-1,6
 58 52 58 52 39 113.5 c 128,-1,7
 20 175 20 175 32 264 c 0,8,9
 44 350 44 350 80.5 409 c 128,-1,10
 117 468 117 468 168.5 497.5 c 128,-1,11
 220 527 220 527 280 527 c 0,12,13
 331 527 331 527 364.5 508 c 128,-1,14
 398 489 398 489 426 460 c 1,15,-1
 434 517 l 1,16,-1
 556 517 l 1,17,-1
 482 0 l 1,18,-1
 361 0 l 1,0,-1
387 188 m 1,19,-1
 404 307 l 2,20,21
 412 366 412 366 386 404 c 128,-1,22
 360 442 360 442 309 442 c 0,23,24
 254 442 254 442 211 397 c 128,-1,25
 168 352 168 352 156 264 c 128,-1,26
 144 176 144 176 173.5 125 c 128,-1,27
 203 74 203 74 261 74 c 0,28,29
 334 74 334 74 387 188 c 1,19,-1
432.5 637 m 128,-1,31
 384 604 384 604 323 604 c 0,32,33
 261 604 261 604 221.5 636.5 c 128,-1,34
 182 669 182 669 176 723 c 1,35,-1
 254 723 l 1,36,37
 264 700 264 700 282.5 684.5 c 128,-1,38
 301 669 301 669 332 669 c 0,39,40
 359 669 359 669 384.5 685 c 128,-1,41
 410 701 410 701 425 723 c 1,42,-1
 505 723 l 1,43,30
 481 670 481 670 432.5 637 c 128,-1,31
EndSplineSet
EndChar

StartChar: Aogonek
Encoding: 260 260 197
Width: 705
GlyphClass: 2
Flags: W
AnchorPoint: "Anchor-5" -46 0 basechar 0
AnchorPoint: "Anchor-4" -46 0 basechar 0
AnchorPoint: "Anchor-3" 315 723 basechar 0
AnchorPoint: "Anchor-2" 629 10 basechar 0
LayerCount: 2
Fore
SplineSet
343 723 m 1,0,-1
 475 723 l 1,1,-1
 633 0 l 1,2,-1
 510 0 l 1,3,-1
 471 181 l 1,4,-1
 195 181 l 1,5,-1
 104 0 l 1,6,-1
 -19 0 l 1,7,-1
 343 723 l 1,0,-1
457 290 m 1,8,-1
 393 605 l 1,9,-1
 239 290 l 1,10,-1
 457 290 l 1,8,-1
475 -34 m 128,-1,12
 500 -11 500 -11 558 7 c 1,13,-1
 644 3 l 1,14,15
 589 -17 589 -17 565.5 -34.5 c 128,-1,16
 542 -52 542 -52 539 -74 c 0,17,18
 537 -91 537 -91 545 -99.5 c 128,-1,19
 553 -108 553 -108 575 -108 c 0,20,21
 608 -108 608 -108 636 -94 c 0,22,23
 639 -92 639 -92 644 -92 c 128,-1,24
 649 -92 649 -92 648 -101 c 2,25,-1
 643 -137 l 2,26,27
 642 -146 642 -146 633 -150 c 0,28,29
 619 -157 619 -157 593 -162.5 c 128,-1,30
 567 -168 567 -168 539 -168 c 0,31,32
 489 -168 489 -168 464.5 -147 c 128,-1,33
 440 -126 440 -126 446 -87 c 0,34,11
 450 -57 450 -57 475 -34 c 128,-1,12
EndSplineSet
EndChar

StartChar: aogonek
Encoding: 261 261 198
Width: 567
GlyphClass: 2
Flags: W
AnchorPoint: "Anchor-5" -46 0 basechar 0
AnchorPoint: "Anchor-4" -46 0 basechar 0
AnchorPoint: "Anchor-3" 237 517 basechar 0
AnchorPoint: "Anchor-2" 431 12 basechar 0
LayerCount: 2
Fore
SplineSet
361 0 m 1,0,-1
 368 49 l 1,1,2
 328 17 328 17 290.5 3.5 c 128,-1,3
 253 -10 253 -10 213 -10 c 0,4,5
 149 -10 149 -10 103.5 21 c 128,-1,6
 58 52 58 52 39 113.5 c 128,-1,7
 20 175 20 175 32 264 c 0,8,9
 44 350 44 350 80.5 409 c 128,-1,10
 117 468 117 468 168.5 497.5 c 128,-1,11
 220 527 220 527 280 527 c 0,12,13
 331 527 331 527 364.5 508 c 128,-1,14
 398 489 398 489 426 460 c 1,15,-1
 434 517 l 1,16,-1
 556 517 l 1,17,-1
 482 0 l 1,18,-1
 361 0 l 1,0,-1
387 188 m 1,19,-1
 404 307 l 2,20,21
 412 366 412 366 386 404 c 128,-1,22
 360 442 360 442 309 442 c 0,23,24
 254 442 254 442 211 397 c 128,-1,25
 168 352 168 352 156 264 c 128,-1,26
 144 176 144 176 173.5 125 c 128,-1,27
 203 74 203 74 261 74 c 0,28,29
 334 74 334 74 387 188 c 1,19,-1
277 -32 m 128,-1,31
 302 -9 302 -9 360 9 c 1,32,-1
 446 5 l 1,33,34
 391 -15 391 -15 367.5 -32.5 c 128,-1,35
 344 -50 344 -50 341 -72 c 0,36,37
 339 -89 339 -89 347 -97.5 c 128,-1,38
 355 -106 355 -106 377 -106 c 0,39,40
 410 -106 410 -106 438 -92 c 0,41,42
 441 -90 441 -90 446 -90 c 128,-1,43
 451 -90 451 -90 450 -99 c 2,44,-1
 445 -135 l 2,45,46
 444 -144 444 -144 435 -148 c 0,47,48
 421 -155 421 -155 395 -160.5 c 128,-1,49
 369 -166 369 -166 341 -166 c 0,50,51
 291 -166 291 -166 266.5 -145 c 128,-1,52
 242 -124 242 -124 248 -85 c 0,53,30
 252 -55 252 -55 277 -32 c 128,-1,31
EndSplineSet
EndChar

StartChar: Cacute
Encoding: 262 262 199
Width: 698
GlyphClass: 2
Flags: W
AnchorPoint: "Anchor-5" -46 0 basechar 0
AnchorPoint: "Anchor-4" 321 0 basechar 0
AnchorPoint: "Anchor-3" 321 723 basechar 0
AnchorPoint: "Anchor-2" -46 0 basechar 0
LayerCount: 2
Fore
SplineSet
557 702.5 m 128,-1,1
 615 672 615 672 646 619 c 128,-1,2
 677 566 677 566 675 500 c 1,3,-1
 547 497 l 1,4,5
 544 559 544 559 507.5 595 c 128,-1,6
 471 631 471 631 403 631 c 0,7,8
 224 631 224 631 186 364 c 0,9,10
 167 228 167 228 204 160 c 128,-1,11
 241 92 241 92 331 92 c 0,12,13
 391 92 391 92 439 130 c 128,-1,14
 487 168 487 168 507 230 c 1,15,-1
 635 225 l 1,16,17
 607 121 607 121 527 55.5 c 128,-1,18
 447 -10 447 -10 320 -10 c 0,19,20
 222 -10 222 -10 156 36 c 128,-1,21
 90 82 90 82 63 167 c 128,-1,22
 36 252 36 252 52 365 c 128,-1,23
 68 478 68 478 118 561 c 128,-1,24
 168 644 168 644 245 688.5 c 128,-1,25
 322 733 322 733 420 733 c 0,26,0
 499 733 499 733 557 702.5 c 128,-1,1
580 855 m 1,27,-1
 311 784 l 1,28,-1
 301 839 l 1,29,-1
 564 939 l 1,30,-1
 580 855 l 1,27,-1
EndSplineSet
EndChar

StartChar: cacute
Encoding: 263 263 200
Width: 536
GlyphClass: 2
Flags: W
AnchorPoint: "Anchor-5" -46 0 basechar 0
AnchorPoint: "Anchor-4" 238 0 basechar 0
AnchorPoint: "Anchor-3" 238 517 basechar 0
AnchorPoint: "Anchor-2" -46 0 basechar 0
LayerCount: 2
Fore
SplineSet
442.5 480 m 128,-1,1
 488 433 488 433 496 357 c 1,2,-1
 396 347 l 1,3,4
 376 392 376 392 357.5 412.5 c 128,-1,5
 339 433 339 433 302 433 c 0,6,7
 241 433 241 433 199 386 c 128,-1,8
 157 339 157 339 145 258 c 0,9,10
 133 176 133 176 163 127.5 c 128,-1,11
 193 79 193 79 254 79 c 0,12,13
 294 79 294 79 322 102.5 c 128,-1,14
 350 126 350 126 376 168 c 1,15,-1
 470 158 l 1,16,17
 442 83 442 83 381.5 36.5 c 128,-1,18
 321 -10 321 -10 238 -10 c 0,19,20
 166 -10 166 -10 115 23.5 c 128,-1,21
 64 57 64 57 42 117.5 c 128,-1,22
 20 178 20 178 31 256 c 0,23,24
 42 335 42 335 81 396.5 c 128,-1,25
 120 458 120 458 180.5 492.5 c 128,-1,26
 241 527 241 527 313 527 c 0,27,0
 397 527 397 527 442.5 480 c 128,-1,1
468 649 m 1,28,-1
 199 578 l 1,29,-1
 189 633 l 1,30,-1
 452 733 l 1,31,-1
 468 649 l 1,28,-1
EndSplineSet
EndChar

StartChar: Ccircumflex
Encoding: 264 264 201
Width: 698
GlyphClass: 2
Flags: W
AnchorPoint: "Anchor-5" -46 0 basechar 0
AnchorPoint: "Anchor-4" 321 0 basechar 0
AnchorPoint: "Anchor-3" 321 723 basechar 0
AnchorPoint: "Anchor-2" -46 0 basechar 0
LayerCount: 2
Fore
SplineSet
557 702.5 m 128,-1,1
 615 672 615 672 646 619 c 128,-1,2
 677 566 677 566 675 500 c 1,3,-1
 547 497 l 1,4,5
 544 559 544 559 507.5 595 c 128,-1,6
 471 631 471 631 403 631 c 0,7,8
 224 631 224 631 186 364 c 0,9,10
 167 228 167 228 204 160 c 128,-1,11
 241 92 241 92 331 92 c 0,12,13
 391 92 391 92 439 130 c 128,-1,14
 487 168 487 168 507 230 c 1,15,-1
 635 225 l 1,16,17
 607 121 607 121 527 55.5 c 128,-1,18
 447 -10 447 -10 320 -10 c 0,19,20
 222 -10 222 -10 156 36 c 128,-1,21
 90 82 90 82 63 167 c 128,-1,22
 36 252 36 252 52 365 c 128,-1,23
 68 478 68 478 118 561 c 128,-1,24
 168 644 168 644 245 688.5 c 128,-1,25
 322 733 322 733 420 733 c 0,26,0
 499 733 499 733 557 702.5 c 128,-1,1
445 880 m 1,27,-1
 361 809 l 1,28,-1
 264 809 l 1,29,-1
 410 934 l 1,30,-1
 495 934 l 1,31,-1
 604 809 l 1,32,-1
 502 809 l 1,33,-1
 445 880 l 1,27,-1
EndSplineSet
EndChar

StartChar: ccircumflex
Encoding: 265 265 202
Width: 536
GlyphClass: 2
Flags: W
AnchorPoint: "Anchor-5" -46 0 basechar 0
AnchorPoint: "Anchor-4" 238 0 basechar 0
AnchorPoint: "Anchor-3" 238 517 basechar 0
AnchorPoint: "Anchor-2" -46 0 basechar 0
LayerCount: 2
Fore
SplineSet
442.5 480 m 128,-1,1
 488 433 488 433 496 357 c 1,2,-1
 396 347 l 1,3,4
 376 392 376 392 357.5 412.5 c 128,-1,5
 339 433 339 433 302 433 c 0,6,7
 241 433 241 433 199 386 c 128,-1,8
 157 339 157 339 145 258 c 0,9,10
 133 176 133 176 163 127.5 c 128,-1,11
 193 79 193 79 254 79 c 0,12,13
 294 79 294 79 322 102.5 c 128,-1,14
 350 126 350 126 376 168 c 1,15,-1
 470 158 l 1,16,17
 442 83 442 83 381.5 36.5 c 128,-1,18
 321 -10 321 -10 238 -10 c 0,19,20
 166 -10 166 -10 115 23.5 c 128,-1,21
 64 57 64 57 42 117.5 c 128,-1,22
 20 178 20 178 31 256 c 0,23,24
 42 335 42 335 81 396.5 c 128,-1,25
 120 458 120 458 180.5 492.5 c 128,-1,26
 241 527 241 527 313 527 c 0,27,0
 397 527 397 527 442.5 480 c 128,-1,1
333 674 m 1,28,-1
 249 603 l 1,29,-1
 152 603 l 1,30,-1
 298 728 l 1,31,-1
 383 728 l 1,32,-1
 492 603 l 1,33,-1
 390 603 l 1,34,-1
 333 674 l 1,28,-1
EndSplineSet
EndChar

StartChar: Cdotaccent
Encoding: 266 266 203
Width: 698
GlyphClass: 2
Flags: W
AnchorPoint: "Anchor-5" -46 0 basechar 0
AnchorPoint: "Anchor-4" 321 0 basechar 0
AnchorPoint: "Anchor-3" 321 723 basechar 0
AnchorPoint: "Anchor-2" -46 0 basechar 0
LayerCount: 2
Fore
SplineSet
557 702.5 m 128,-1,1
 615 672 615 672 646 619 c 128,-1,2
 677 566 677 566 675 500 c 1,3,-1
 547 497 l 1,4,5
 544 559 544 559 507.5 595 c 128,-1,6
 471 631 471 631 403 631 c 0,7,8
 224 631 224 631 186 364 c 0,9,10
 167 228 167 228 204 160 c 128,-1,11
 241 92 241 92 331 92 c 0,12,13
 391 92 391 92 439 130 c 128,-1,14
 487 168 487 168 507 230 c 1,15,-1
 635 225 l 1,16,17
 607 121 607 121 527 55.5 c 128,-1,18
 447 -10 447 -10 320 -10 c 0,19,20
 222 -10 222 -10 156 36 c 128,-1,21
 90 82 90 82 63 167 c 128,-1,22
 36 252 36 252 52 365 c 128,-1,23
 68 478 68 478 118 561 c 128,-1,24
 168 644 168 644 245 688.5 c 128,-1,25
 322 733 322 733 420 733 c 0,26,0
 499 733 499 733 557 702.5 c 128,-1,1
497 798 m 1,27,-1
 371 798 l 1,28,-1
 390 929 l 1,29,-1
 516 929 l 1,30,-1
 497 798 l 1,27,-1
EndSplineSet
EndChar

StartChar: cdotaccent
Encoding: 267 267 204
Width: 536
GlyphClass: 2
Flags: W
AnchorPoint: "Anchor-5" -46 0 basechar 0
AnchorPoint: "Anchor-4" 238 0 basechar 0
AnchorPoint: "Anchor-3" 238 517 basechar 0
AnchorPoint: "Anchor-2" -46 0 basechar 0
LayerCount: 2
Fore
SplineSet
442.5 480 m 128,-1,1
 488 433 488 433 496 357 c 1,2,-1
 396 347 l 1,3,4
 376 392 376 392 357.5 412.5 c 128,-1,5
 339 433 339 433 302 433 c 0,6,7
 241 433 241 433 199 386 c 128,-1,8
 157 339 157 339 145 258 c 0,9,10
 133 176 133 176 163 127.5 c 128,-1,11
 193 79 193 79 254 79 c 0,12,13
 294 79 294 79 322 102.5 c 128,-1,14
 350 126 350 126 376 168 c 1,15,-1
 470 158 l 1,16,17
 442 83 442 83 381.5 36.5 c 128,-1,18
 321 -10 321 -10 238 -10 c 0,19,20
 166 -10 166 -10 115 23.5 c 128,-1,21
 64 57 64 57 42 117.5 c 128,-1,22
 20 178 20 178 31 256 c 0,23,24
 42 335 42 335 81 396.5 c 128,-1,25
 120 458 120 458 180.5 492.5 c 128,-1,26
 241 527 241 527 313 527 c 0,27,0
 397 527 397 527 442.5 480 c 128,-1,1
385 592 m 1,28,-1
 259 592 l 1,29,-1
 278 723 l 1,30,-1
 404 723 l 1,31,-1
 385 592 l 1,28,-1
EndSplineSet
EndChar

StartChar: Ccaron
Encoding: 268 268 205
Width: 698
GlyphClass: 2
Flags: W
AnchorPoint: "Anchor-5" -46 0 basechar 0
AnchorPoint: "Anchor-4" 321 0 basechar 0
AnchorPoint: "Anchor-3" 321 723 basechar 0
AnchorPoint: "Anchor-2" -46 0 basechar 0
LayerCount: 2
Fore
SplineSet
557 702.5 m 128,-1,1
 615 672 615 672 646 619 c 128,-1,2
 677 566 677 566 675 500 c 1,3,-1
 547 497 l 1,4,5
 544 559 544 559 507.5 595 c 128,-1,6
 471 631 471 631 403 631 c 0,7,8
 224 631 224 631 186 364 c 0,9,10
 167 228 167 228 204 160 c 128,-1,11
 241 92 241 92 331 92 c 0,12,13
 391 92 391 92 439 130 c 128,-1,14
 487 168 487 168 507 230 c 1,15,-1
 635 225 l 1,16,17
 607 121 607 121 527 55.5 c 128,-1,18
 447 -10 447 -10 320 -10 c 0,19,20
 222 -10 222 -10 156 36 c 128,-1,21
 90 82 90 82 63 167 c 128,-1,22
 36 252 36 252 52 365 c 128,-1,23
 68 478 68 478 118 561 c 128,-1,24
 168 644 168 644 245 688.5 c 128,-1,25
 322 733 322 733 420 733 c 0,26,0
 499 733 499 733 557 702.5 c 128,-1,1
621 930 m 1,27,-1
 477 803 l 1,28,-1
 392 803 l 1,29,-1
 281 930 l 1,30,-1
 378 930 l 1,31,-1
 442 858 l 1,32,-1
 519 930 l 1,33,-1
 621 930 l 1,27,-1
EndSplineSet
EndChar

StartChar: ccaron
Encoding: 269 269 206
Width: 536
GlyphClass: 2
Flags: W
AnchorPoint: "Anchor-5" -46 0 basechar 0
AnchorPoint: "Anchor-4" 238 0 basechar 0
AnchorPoint: "Anchor-3" 238 517 basechar 0
AnchorPoint: "Anchor-2" -46 0 basechar 0
LayerCount: 2
Fore
SplineSet
442.5 480 m 128,-1,1
 488 433 488 433 496 357 c 1,2,-1
 396 347 l 1,3,4
 376 392 376 392 357.5 412.5 c 128,-1,5
 339 433 339 433 302 433 c 0,6,7
 241 433 241 433 199 386 c 128,-1,8
 157 339 157 339 145 258 c 0,9,10
 133 176 133 176 163 127.5 c 128,-1,11
 193 79 193 79 254 79 c 0,12,13
 294 79 294 79 322 102.5 c 128,-1,14
 350 126 350 126 376 168 c 1,15,-1
 470 158 l 1,16,17
 442 83 442 83 381.5 36.5 c 128,-1,18
 321 -10 321 -10 238 -10 c 0,19,20
 166 -10 166 -10 115 23.5 c 128,-1,21
 64 57 64 57 42 117.5 c 128,-1,22
 20 178 20 178 31 256 c 0,23,24
 42 335 42 335 81 396.5 c 128,-1,25
 120 458 120 458 180.5 492.5 c 128,-1,26
 241 527 241 527 313 527 c 0,27,0
 397 527 397 527 442.5 480 c 128,-1,1
509 724 m 1,28,-1
 365 597 l 1,29,-1
 280 597 l 1,30,-1
 169 724 l 1,31,-1
 266 724 l 1,32,-1
 330 652 l 1,33,-1
 407 724 l 1,34,-1
 509 724 l 1,28,-1
EndSplineSet
EndChar

StartChar: Dcaron
Encoding: 270 270 207
Width: 702
GlyphClass: 2
Flags: W
AnchorPoint: "Anchor-5" -46 0 basechar 0
AnchorPoint: "Anchor-4" -46 0 basechar 0
AnchorPoint: "Anchor-3" 301 723 basechar 0
AnchorPoint: "Anchor-2" -46 0 basechar 0
LayerCount: 2
Fore
SplineSet
335 722 m 0,0,1
 527 718 527 718 605.5 627 c 128,-1,2
 684 536 684 536 660 365 c 0,3,4
 635 188 635 188 526.5 94 c 128,-1,5
 418 0 418 0 226 0 c 2,6,-1
 39 0 l 1,7,-1
 141 723 l 1,8,9
 273 723 273 723 335 722 c 0,0,1
177 101 m 1,10,-1
 242 101 l 2,11,12
 361 101 361 101 437 163.5 c 128,-1,13
 513 226 513 226 532 365 c 0,14,15
 551 501 551 501 496 562 c 128,-1,16
 441 623 441 623 319 623 c 2,17,-1
 251 623 l 1,18,-1
 177 101 l 1,10,-1
601 930 m 1,19,-1
 457 803 l 1,20,-1
 372 803 l 1,21,-1
 261 930 l 1,22,-1
 358 930 l 1,23,-1
 422 858 l 1,24,-1
 499 930 l 1,25,-1
 601 930 l 1,19,-1
EndSplineSet
EndChar

StartChar: dcaron
Encoding: 271 271 208
Width: 595
GlyphClass: 2
Flags: W
AnchorPoint: "Anchor-5" 542 614 basechar 0
AnchorPoint: "Anchor-4" 245 0 basechar 0
AnchorPoint: "Anchor-3" -46 0 basechar 0
AnchorPoint: "Anchor-2" -46 0 basechar 0
LayerCount: 2
Fore
SplineSet
61 60 m 128,-1,1
 13 130 13 130 31 256 c 0,2,3
 49 381 49 381 114.5 454 c 128,-1,4
 180 527 180 527 280 527 c 0,5,6
 372 527 372 527 420 460 c 1,7,-1
 459 743 l 1,8,-1
 581 743 l 1,9,-1
 477 0 l 1,10,-1
 387 0 l 1,11,-1
 389 72 l 1,12,13
 362 41 362 41 316.5 15.5 c 128,-1,14
 271 -10 271 -10 210 -10 c 0,15,0
 109 -10 109 -10 61 60 c 128,-1,1
338 116.5 m 128,-1,17
 377 153 377 153 384 205 c 2,18,-1
 403 345 l 1,19,20
 385 436 385 436 302 436 c 0,21,22
 244 436 244 436 203.5 392 c 128,-1,23
 163 348 163 348 150 259 c 0,24,25
 137 168 137 168 165 124 c 128,-1,26
 193 80 193 80 250 80 c 0,27,16
 299 80 299 80 338 116.5 c 128,-1,17
518 410.5 m 128,-1,29
 516 414 516 414 518 418 c 2,30,-1
 557 490 l 1,31,-1
 560 499 l 2,32,33
 561 504 561 504 554 505 c 2,34,-1
 547 507 l 2,35,36
 539 508 539 508 536.5 510 c 128,-1,37
 534 512 534 512 535 518 c 2,38,-1
 547 603 l 2,39,40
 549 614 549 614 558 614 c 2,41,-1
 629 614 l 2,42,43
 638 614 638 614 636 605 c 2,44,-1
 623 507 l 2,45,46
 623 504 623 504 621.5 502.5 c 128,-1,47
 620 501 620 501 620 500 c 2,48,-1
 573 418 l 2,49,50
 570 412 570 412 565 409.5 c 128,-1,51
 560 407 560 407 550 407 c 2,52,-1
 524 407 l 2,53,28
 520 407 520 407 518 410.5 c 128,-1,29
EndSplineSet
EndChar

StartChar: Dcroat
Encoding: 272 272 209
Width: 719
GlyphClass: 2
Flags: W
AnchorPoint: "Anchor-5" -46 0 basechar 0
AnchorPoint: "Anchor-4" -46 0 basechar 0
AnchorPoint: "Anchor-3" 318 723 basechar 0
AnchorPoint: "Anchor-2" -46 0 basechar 0
LayerCount: 2
Fore
SplineSet
623 627 m 128,-1,1
 701 536 701 536 677 365 c 0,2,3
 652 188 652 188 543.5 94 c 128,-1,4
 435 0 435 0 243 0 c 2,5,-1
 56 0 l 1,6,-1
 100 313 l 1,7,-1
 48 313 l 2,8,9
 38 313 38 313 34.5 317 c 128,-1,10
 31 321 31 321 33 331 c 2,11,-1
 41 389 l 2,12,13
 43 405 43 405 56 405 c 2,14,-1
 113 405 l 1,15,-1
 158 723 l 1,16,17
 291 723 291 723 352 722 c 0,18,0
 545 718 545 718 623 627 c 128,-1,1
454 163.5 m 128,-1,20
 530 226 530 226 549 365 c 0,21,22
 568 501 568 501 513 562 c 128,-1,23
 458 623 458 623 336 623 c 2,24,-1
 268 623 l 1,25,-1
 237 405 l 1,26,-1
 382 405 l 2,27,28
 394 405 394 405 392 391 c 2,29,-1
 384 333 l 2,30,31
 382 322 382 322 376.5 317.5 c 128,-1,32
 371 313 371 313 359 313 c 2,33,-1
 224 313 l 1,34,-1
 194 101 l 1,35,-1
 259 101 l 2,36,19
 378 101 378 101 454 163.5 c 128,-1,20
EndSplineSet
EndChar

StartChar: dcroat
Encoding: 273 273 210
Width: 605
GlyphClass: 2
Flags: W
AnchorPoint: "Anchor-5" 542 614 basechar 0
AnchorPoint: "Anchor-4" 245 0 basechar 0
AnchorPoint: "Anchor-3" -46 0 basechar 0
AnchorPoint: "Anchor-2" -46 0 basechar 0
LayerCount: 2
Fore
SplineSet
614 587 m 1,0,-1
 559 587 l 1,1,-1
 477 0 l 1,2,-1
 387 0 l 1,3,-1
 389 72 l 1,4,5
 362 41 362 41 316.5 15.5 c 128,-1,6
 271 -10 271 -10 210 -10 c 0,7,8
 109 -10 109 -10 61 60 c 128,-1,9
 13 130 13 130 31 256 c 0,10,11
 49 381 49 381 114.5 454 c 128,-1,12
 180 527 180 527 280 527 c 0,13,14
 372 527 372 527 420 460 c 1,15,-1
 437 587 l 1,16,-1
 290 587 l 1,17,-1
 300 658 l 1,18,-1
 447 658 l 1,19,-1
 459 743 l 1,20,-1
 581 743 l 1,21,-1
 569 658 l 1,22,-1
 624 658 l 1,23,-1
 614 587 l 1,0,-1
403 345 m 1,24,25
 385 436 385 436 302 436 c 0,26,27
 244 436 244 436 203.5 392 c 128,-1,28
 163 348 163 348 150 259 c 0,29,30
 137 168 137 168 165 124 c 128,-1,31
 193 80 193 80 250 80 c 0,32,33
 299 80 299 80 338 116.5 c 128,-1,34
 377 153 377 153 384 205 c 2,35,-1
 403 345 l 1,24,25
EndSplineSet
EndChar

StartChar: Emacron
Encoding: 274 274 211
Width: 630
GlyphClass: 2
Flags: W
AnchorPoint: "Anchor-5" -46 0 basechar 0
AnchorPoint: "Anchor-4" 294 0 basechar 0
AnchorPoint: "Anchor-3" 285 723 basechar 0
AnchorPoint: "Anchor-2" 520 10 basechar 0
LayerCount: 2
Fore
SplineSet
141 723 m 1,0,-1
 619 723 l 1,1,-1
 604 619 l 1,2,-1
 249 619 l 1,3,-1
 220 416 l 1,4,-1
 533 416 l 1,5,-1
 519 313 l 1,6,-1
 205 313 l 1,7,-1
 176 106 l 1,8,-1
 539 105 l 1,9,-1
 524 0 l 1,10,-1
 39 0 l 1,11,-1
 141 723 l 1,0,-1
566 840 m 1,12,-1
 239 840 l 1,13,-1
 250 920 l 1,14,-1
 577 920 l 1,15,-1
 566 840 l 1,12,-1
EndSplineSet
EndChar

StartChar: emacron
Encoding: 275 275 212
Width: 559
GlyphClass: 2
Flags: W
AnchorPoint: "Anchor-5" -46 0 basechar 0
AnchorPoint: "Anchor-4" 237 0 basechar 0
AnchorPoint: "Anchor-3" 239 517 basechar 0
AnchorPoint: "Anchor-2" 351 22 basechar 0
LayerCount: 2
Fore
SplineSet
167 122 m 128,-1,1
 195 81 195 81 256 81 c 0,2,3
 299 81 299 81 330 98 c 128,-1,4
 361 115 361 115 380 151 c 1,5,-1
 488 143 l 1,6,7
 463 73 463 73 395 31.5 c 128,-1,8
 327 -10 327 -10 247 -10 c 0,9,10
 173 -10 173 -10 120 22 c 128,-1,11
 67 54 67 54 43 113.5 c 128,-1,12
 19 173 19 173 31 253 c 0,13,14
 42 333 42 333 79.5 395 c 128,-1,15
 117 457 117 457 177 492 c 128,-1,16
 237 527 237 527 313 527 c 0,17,18
 424 527 424 527 475 456.5 c 128,-1,19
 526 386 526 386 510 267 c 2,20,-1
 504 230 l 1,21,-1
 148 230 l 1,22,0
 139 163 139 163 167 122 c 128,-1,1
401 306 m 1,23,24
 409 365 409 365 383.5 402 c 128,-1,25
 358 439 358 439 300 439 c 0,26,27
 243 439 243 439 204.5 399 c 128,-1,28
 166 359 166 359 159 306 c 1,29,-1
 401 306 l 1,23,24
491 634 m 1,30,-1
 164 634 l 1,31,-1
 175 714 l 1,32,-1
 502 714 l 1,33,-1
 491 634 l 1,30,-1
EndSplineSet
EndChar

StartChar: Ebreve
Encoding: 276 276 213
Width: 630
GlyphClass: 2
Flags: W
AnchorPoint: "Anchor-5" -46 0 basechar 0
AnchorPoint: "Anchor-4" 294 0 basechar 0
AnchorPoint: "Anchor-3" 285 723 basechar 0
AnchorPoint: "Anchor-2" 520 10 basechar 0
LayerCount: 2
Fore
SplineSet
141 723 m 1,0,-1
 619 723 l 1,1,-1
 604 619 l 1,2,-1
 249 619 l 1,3,-1
 220 416 l 1,4,-1
 533 416 l 1,5,-1
 519 313 l 1,6,-1
 205 313 l 1,7,-1
 176 106 l 1,8,-1
 539 105 l 1,9,-1
 524 0 l 1,10,-1
 39 0 l 1,11,-1
 141 723 l 1,0,-1
509.5 843 m 128,-1,13
 461 810 461 810 400 810 c 0,14,15
 338 810 338 810 298.5 842.5 c 128,-1,16
 259 875 259 875 253 929 c 1,17,-1
 331 929 l 1,18,19
 341 906 341 906 359.5 890.5 c 128,-1,20
 378 875 378 875 409 875 c 0,21,22
 436 875 436 875 461.5 891 c 128,-1,23
 487 907 487 907 502 929 c 1,24,-1
 582 929 l 1,25,12
 558 876 558 876 509.5 843 c 128,-1,13
EndSplineSet
EndChar

StartChar: ebreve
Encoding: 277 277 214
Width: 559
GlyphClass: 2
Flags: W
AnchorPoint: "Anchor-5" -46 0 basechar 0
AnchorPoint: "Anchor-4" 237 0 basechar 0
AnchorPoint: "Anchor-3" 239 517 basechar 0
AnchorPoint: "Anchor-2" 351 22 basechar 0
LayerCount: 2
Fore
SplineSet
167 122 m 128,-1,1
 195 81 195 81 256 81 c 0,2,3
 299 81 299 81 330 98 c 128,-1,4
 361 115 361 115 380 151 c 1,5,-1
 488 143 l 1,6,7
 463 73 463 73 395 31.5 c 128,-1,8
 327 -10 327 -10 247 -10 c 0,9,10
 173 -10 173 -10 120 22 c 128,-1,11
 67 54 67 54 43 113.5 c 128,-1,12
 19 173 19 173 31 253 c 0,13,14
 42 333 42 333 79.5 395 c 128,-1,15
 117 457 117 457 177 492 c 128,-1,16
 237 527 237 527 313 527 c 0,17,18
 424 527 424 527 475 456.5 c 128,-1,19
 526 386 526 386 510 267 c 2,20,-1
 504 230 l 1,21,-1
 148 230 l 1,22,0
 139 163 139 163 167 122 c 128,-1,1
401 306 m 1,23,24
 409 365 409 365 383.5 402 c 128,-1,25
 358 439 358 439 300 439 c 0,26,27
 243 439 243 439 204.5 399 c 128,-1,28
 166 359 166 359 159 306 c 1,29,-1
 401 306 l 1,23,24
434.5 637 m 128,-1,31
 386 604 386 604 325 604 c 0,32,33
 263 604 263 604 223.5 636.5 c 128,-1,34
 184 669 184 669 178 723 c 1,35,-1
 256 723 l 1,36,37
 266 700 266 700 284.5 684.5 c 128,-1,38
 303 669 303 669 334 669 c 0,39,40
 361 669 361 669 386.5 685 c 128,-1,41
 412 701 412 701 427 723 c 1,42,-1
 507 723 l 1,43,30
 483 670 483 670 434.5 637 c 128,-1,31
EndSplineSet
EndChar

StartChar: Edotaccent
Encoding: 278 278 215
Width: 630
GlyphClass: 2
Flags: W
AnchorPoint: "Anchor-5" -46 0 basechar 0
AnchorPoint: "Anchor-4" 294 0 basechar 0
AnchorPoint: "Anchor-3" 285 723 basechar 0
AnchorPoint: "Anchor-2" 520 10 basechar 0
LayerCount: 2
Fore
SplineSet
141 723 m 1,0,-1
 619 723 l 1,1,-1
 604 619 l 1,2,-1
 249 619 l 1,3,-1
 220 416 l 1,4,-1
 533 416 l 1,5,-1
 519 313 l 1,6,-1
 205 313 l 1,7,-1
 176 106 l 1,8,-1
 539 105 l 1,9,-1
 524 0 l 1,10,-1
 39 0 l 1,11,-1
 141 723 l 1,0,-1
461 798 m 1,12,-1
 335 798 l 1,13,-1
 354 929 l 1,14,-1
 480 929 l 1,15,-1
 461 798 l 1,12,-1
EndSplineSet
EndChar

StartChar: edotaccent
Encoding: 279 279 216
Width: 559
GlyphClass: 2
Flags: W
AnchorPoint: "Anchor-5" -46 0 basechar 0
AnchorPoint: "Anchor-4" 237 0 basechar 0
AnchorPoint: "Anchor-3" 239 517 basechar 0
AnchorPoint: "Anchor-2" 351 22 basechar 0
LayerCount: 2
Fore
SplineSet
167 122 m 128,-1,1
 195 81 195 81 256 81 c 0,2,3
 299 81 299 81 330 98 c 128,-1,4
 361 115 361 115 380 151 c 1,5,-1
 488 143 l 1,6,7
 463 73 463 73 395 31.5 c 128,-1,8
 327 -10 327 -10 247 -10 c 0,9,10
 173 -10 173 -10 120 22 c 128,-1,11
 67 54 67 54 43 113.5 c 128,-1,12
 19 173 19 173 31 253 c 0,13,14
 42 333 42 333 79.5 395 c 128,-1,15
 117 457 117 457 177 492 c 128,-1,16
 237 527 237 527 313 527 c 0,17,18
 424 527 424 527 475 456.5 c 128,-1,19
 526 386 526 386 510 267 c 2,20,-1
 504 230 l 1,21,-1
 148 230 l 1,22,0
 139 163 139 163 167 122 c 128,-1,1
401 306 m 1,23,24
 409 365 409 365 383.5 402 c 128,-1,25
 358 439 358 439 300 439 c 0,26,27
 243 439 243 439 204.5 399 c 128,-1,28
 166 359 166 359 159 306 c 1,29,-1
 401 306 l 1,23,24
386 592 m 1,30,-1
 260 592 l 1,31,-1
 279 723 l 1,32,-1
 405 723 l 1,33,-1
 386 592 l 1,30,-1
EndSplineSet
EndChar

StartChar: Eogonek
Encoding: 280 280 217
Width: 630
GlyphClass: 2
Flags: W
AnchorPoint: "Anchor-5" -46 0 basechar 0
AnchorPoint: "Anchor-4" 294 0 basechar 0
AnchorPoint: "Anchor-3" 285 723 basechar 0
AnchorPoint: "Anchor-2" 520 10 basechar 0
LayerCount: 2
Fore
SplineSet
141 723 m 1,0,-1
 619 723 l 1,1,-1
 604 619 l 1,2,-1
 249 619 l 1,3,-1
 220 416 l 1,4,-1
 533 416 l 1,5,-1
 519 313 l 1,6,-1
 205 313 l 1,7,-1
 176 106 l 1,8,-1
 539 105 l 1,9,-1
 524 0 l 1,10,-1
 39 0 l 1,11,-1
 141 723 l 1,0,-1
366 -34 m 128,-1,13
 391 -11 391 -11 449 7 c 1,14,-1
 535 3 l 1,15,16
 480 -17 480 -17 456.5 -34.5 c 128,-1,17
 433 -52 433 -52 430 -74 c 0,18,19
 428 -91 428 -91 436 -99.5 c 128,-1,20
 444 -108 444 -108 466 -108 c 0,21,22
 499 -108 499 -108 527 -94 c 0,23,24
 530 -92 530 -92 535 -92 c 128,-1,25
 540 -92 540 -92 539 -101 c 2,26,-1
 534 -137 l 2,27,28
 533 -146 533 -146 524 -150 c 0,29,30
 510 -157 510 -157 484 -162.5 c 128,-1,31
 458 -168 458 -168 430 -168 c 0,32,33
 380 -168 380 -168 355.5 -147 c 128,-1,34
 331 -126 331 -126 337 -87 c 0,35,12
 341 -57 341 -57 366 -34 c 128,-1,13
EndSplineSet
EndChar

StartChar: eogonek
Encoding: 281 281 218
Width: 559
GlyphClass: 2
Flags: W
AnchorPoint: "Anchor-5" -46 0 basechar 0
AnchorPoint: "Anchor-4" 237 0 basechar 0
AnchorPoint: "Anchor-3" 239 517 basechar 0
AnchorPoint: "Anchor-2" 351 22 basechar 0
LayerCount: 2
Fore
SplineSet
167 122 m 128,-1,1
 195 81 195 81 256 81 c 0,2,3
 299 81 299 81 330 98 c 128,-1,4
 361 115 361 115 380 151 c 1,5,-1
 488 143 l 1,6,7
 463 73 463 73 395 31.5 c 128,-1,8
 327 -10 327 -10 247 -10 c 0,9,10
 173 -10 173 -10 120 22 c 128,-1,11
 67 54 67 54 43 113.5 c 128,-1,12
 19 173 19 173 31 253 c 0,13,14
 42 333 42 333 79.5 395 c 128,-1,15
 117 457 117 457 177 492 c 128,-1,16
 237 527 237 527 313 527 c 0,17,18
 424 527 424 527 475 456.5 c 128,-1,19
 526 386 526 386 510 267 c 2,20,-1
 504 230 l 1,21,-1
 148 230 l 1,22,0
 139 163 139 163 167 122 c 128,-1,1
401 306 m 1,23,24
 409 365 409 365 383.5 402 c 128,-1,25
 358 439 358 439 300 439 c 0,26,27
 243 439 243 439 204.5 399 c 128,-1,28
 166 359 166 359 159 306 c 1,29,-1
 401 306 l 1,23,24
199 -22 m 128,-1,31
 224 1 224 1 282 19 c 1,32,-1
 368 15 l 1,33,34
 313 -5 313 -5 289.5 -22.5 c 128,-1,35
 266 -40 266 -40 263 -62 c 0,36,37
 261 -79 261 -79 269 -87.5 c 128,-1,38
 277 -96 277 -96 299 -96 c 0,39,40
 332 -96 332 -96 360 -82 c 0,41,42
 363 -80 363 -80 368 -80 c 128,-1,43
 373 -80 373 -80 372 -89 c 2,44,-1
 367 -125 l 2,45,46
 366 -134 366 -134 357 -138 c 0,47,48
 343 -145 343 -145 317 -150.5 c 128,-1,49
 291 -156 291 -156 263 -156 c 0,50,51
 213 -156 213 -156 188.5 -135 c 128,-1,52
 164 -114 164 -114 170 -75 c 0,53,30
 174 -45 174 -45 199 -22 c 128,-1,31
EndSplineSet
EndChar

StartChar: Ecaron
Encoding: 282 282 219
Width: 630
GlyphClass: 2
Flags: W
AnchorPoint: "Anchor-5" -46 0 basechar 0
AnchorPoint: "Anchor-4" 294 0 basechar 0
AnchorPoint: "Anchor-3" 285 723 basechar 0
AnchorPoint: "Anchor-2" 520 10 basechar 0
LayerCount: 2
Fore
SplineSet
141 723 m 1,0,-1
 619 723 l 1,1,-1
 604 619 l 1,2,-1
 249 619 l 1,3,-1
 220 416 l 1,4,-1
 533 416 l 1,5,-1
 519 313 l 1,6,-1
 205 313 l 1,7,-1
 176 106 l 1,8,-1
 539 105 l 1,9,-1
 524 0 l 1,10,-1
 39 0 l 1,11,-1
 141 723 l 1,0,-1
585 930 m 1,12,-1
 441 803 l 1,13,-1
 356 803 l 1,14,-1
 245 930 l 1,15,-1
 342 930 l 1,16,-1
 406 858 l 1,17,-1
 483 930 l 1,18,-1
 585 930 l 1,12,-1
EndSplineSet
EndChar

StartChar: ecaron
Encoding: 283 283 220
Width: 559
GlyphClass: 2
Flags: W
AnchorPoint: "Anchor-5" -46 0 basechar 0
AnchorPoint: "Anchor-4" 237 0 basechar 0
AnchorPoint: "Anchor-3" 239 517 basechar 0
AnchorPoint: "Anchor-2" 351 22 basechar 0
LayerCount: 2
Fore
SplineSet
167 122 m 128,-1,1
 195 81 195 81 256 81 c 0,2,3
 299 81 299 81 330 98 c 128,-1,4
 361 115 361 115 380 151 c 1,5,-1
 488 143 l 1,6,7
 463 73 463 73 395 31.5 c 128,-1,8
 327 -10 327 -10 247 -10 c 0,9,10
 173 -10 173 -10 120 22 c 128,-1,11
 67 54 67 54 43 113.5 c 128,-1,12
 19 173 19 173 31 253 c 0,13,14
 42 333 42 333 79.5 395 c 128,-1,15
 117 457 117 457 177 492 c 128,-1,16
 237 527 237 527 313 527 c 0,17,18
 424 527 424 527 475 456.5 c 128,-1,19
 526 386 526 386 510 267 c 2,20,-1
 504 230 l 1,21,-1
 148 230 l 1,22,0
 139 163 139 163 167 122 c 128,-1,1
401 306 m 1,23,24
 409 365 409 365 383.5 402 c 128,-1,25
 358 439 358 439 300 439 c 0,26,27
 243 439 243 439 204.5 399 c 128,-1,28
 166 359 166 359 159 306 c 1,29,-1
 401 306 l 1,23,24
510 724 m 1,30,-1
 366 597 l 1,31,-1
 281 597 l 1,32,-1
 170 724 l 1,33,-1
 267 724 l 1,34,-1
 331 652 l 1,35,-1
 408 724 l 1,36,-1
 510 724 l 1,30,-1
EndSplineSet
EndChar

StartChar: Gcircumflex
Encoding: 284 284 221
Width: 741
GlyphClass: 2
Flags: W
AnchorPoint: "Anchor-5" -46 0 basechar 0
AnchorPoint: "Anchor-4" 322 0 basechar 0
AnchorPoint: "Anchor-3" 319 723 basechar 0
AnchorPoint: "Anchor-2" -46 0 basechar 0
LayerCount: 2
Fore
SplineSet
155.5 35.5 m 128,-1,1
 90 81 90 81 63 164 c 128,-1,2
 36 247 36 247 51 359 c 0,3,4
 67 473 67 473 119.5 557.5 c 128,-1,5
 172 642 172 642 251.5 687.5 c 128,-1,6
 331 733 331 733 428 733 c 0,7,8
 505 733 505 733 564.5 700.5 c 128,-1,9
 624 668 624 668 654.5 614.5 c 128,-1,10
 685 561 685 561 679 501 c 1,11,-1
 550 497 l 1,12,13
 547 554 547 554 509.5 591 c 128,-1,14
 472 628 472 628 410 628 c 0,15,16
 323 628 323 628 263 561.5 c 128,-1,17
 203 495 203 495 184 365 c 0,18,19
 165 227 165 227 209 162.5 c 128,-1,20
 253 98 253 98 340 98 c 0,21,22
 388 98 388 98 426.5 119.5 c 128,-1,23
 465 141 465 141 489 173 c 128,-1,24
 513 205 513 205 520 237 c 2,25,-1
 533 291 l 1,26,-1
 371 291 l 1,27,-1
 383 377 l 1,28,-1
 672 375 l 1,29,-1
 619 0 l 1,30,-1
 533 0 l 1,31,-1
 547 102 l 1,32,33
 506 52 506 52 451 21 c 128,-1,34
 396 -10 396 -10 317 -10 c 0,35,0
 221 -10 221 -10 155.5 35.5 c 128,-1,1
443 880 m 1,36,-1
 359 809 l 1,37,-1
 262 809 l 1,38,-1
 408 934 l 1,39,-1
 493 934 l 1,40,-1
 602 809 l 1,41,-1
 500 809 l 1,42,-1
 443 880 l 1,36,-1
EndSplineSet
EndChar

StartChar: gcircumflex
Encoding: 285 285 222
Width: 618
GlyphClass: 2
Flags: W
AnchorPoint: "Anchor-5" -46 0 basechar 0
AnchorPoint: "Anchor-4" -46 0 basechar 0
AnchorPoint: "Anchor-3" 258 517 basechar 0
AnchorPoint: "Anchor-2" -46 0 basechar 0
LayerCount: 2
Fore
SplineSet
35 -135.5 m 128,-1,1
 -30 -100 -30 -100 -22 -40 c 0,2,3
 -16 0 -16 0 14 22 c 128,-1,4
 44 44 44 44 66 53 c 128,-1,5
 88 62 88 62 92 64 c 1,6,7
 89 66 89 66 74 75 c 128,-1,8
 59 84 59 84 49.5 100 c 128,-1,9
 40 116 40 116 43 136 c 0,10,11
 47 163 47 163 75.5 185 c 128,-1,12
 104 207 104 207 153 216 c 1,13,14
 60 265 60 265 74 362 c 0,15,16
 85 438 85 438 156.5 481.5 c 128,-1,17
 228 525 228 525 332 525 c 0,18,19
 381 525 381 525 414 514 c 128,-1,20
 447 503 447 503 476 482 c 1,21,-1
 627 540 l 1,22,-1
 612 440 l 1,23,-1
 520 424 l 1,24,25
 524 412 524 412 525.5 393.5 c 128,-1,26
 527 375 527 375 525 363 c 0,27,28
 519 318 519 318 488 279.5 c 128,-1,29
 457 241 457 241 403 218 c 128,-1,30
 349 195 349 195 276 195 c 0,31,32
 256 195 256 195 235 197 c 0,33,34
 165 194 165 194 161 169 c 0,35,36
 159 157 159 157 178.5 152 c 128,-1,37
 198 147 198 147 251 143 c 2,38,-1
 360 137 l 2,39,40
 449 131 449 131 488.5 93 c 128,-1,41
 528 55 528 55 519 -7 c 0,42,43
 508 -83 508 -83 433 -127 c 128,-1,44
 358 -171 358 -171 230 -171 c 0,45,0
 100 -171 100 -171 35 -135.5 c 128,-1,1
372 291 m 128,-1,47
 403 315 403 315 409 359 c 0,48,49
 415 404 415 404 390.5 430.5 c 128,-1,50
 366 457 366 457 316 457 c 128,-1,51
 266 457 266 457 233.5 430.5 c 128,-1,52
 201 404 201 404 194 359 c 0,53,54
 188 316 188 316 213.5 291.5 c 128,-1,55
 239 267 239 267 290 267 c 128,-1,46
 341 267 341 267 372 291 c 128,-1,47
361 -82 m 128,-1,57
 394 -65 394 -65 399 -29 c 0,58,59
 407 29 407 29 323 35 c 2,60,-1
 193 44 l 2,61,62
 161 46 161 46 132 24.5 c 128,-1,63
 103 3 103 3 99 -26 c 0,64,65
 94 -64 94 -64 134.5 -81.5 c 128,-1,66
 175 -99 175 -99 260 -99 c 0,67,56
 328 -99 328 -99 361 -82 c 128,-1,57
353 674 m 1,68,-1
 269 603 l 1,69,-1
 172 603 l 1,70,-1
 318 728 l 1,71,-1
 403 728 l 1,72,-1
 512 603 l 1,73,-1
 410 603 l 1,74,-1
 353 674 l 1,68,-1
EndSplineSet
EndChar

StartChar: Gbreve
Encoding: 286 286 223
Width: 741
GlyphClass: 2
Flags: W
AnchorPoint: "Anchor-5" -46 0 basechar 0
AnchorPoint: "Anchor-4" 322 0 basechar 0
AnchorPoint: "Anchor-3" 319 723 basechar 0
AnchorPoint: "Anchor-2" -46 0 basechar 0
LayerCount: 2
Fore
SplineSet
155.5 35.5 m 128,-1,1
 90 81 90 81 63 164 c 128,-1,2
 36 247 36 247 51 359 c 0,3,4
 67 473 67 473 119.5 557.5 c 128,-1,5
 172 642 172 642 251.5 687.5 c 128,-1,6
 331 733 331 733 428 733 c 0,7,8
 505 733 505 733 564.5 700.5 c 128,-1,9
 624 668 624 668 654.5 614.5 c 128,-1,10
 685 561 685 561 679 501 c 1,11,-1
 550 497 l 1,12,13
 547 554 547 554 509.5 591 c 128,-1,14
 472 628 472 628 410 628 c 0,15,16
 323 628 323 628 263 561.5 c 128,-1,17
 203 495 203 495 184 365 c 0,18,19
 165 227 165 227 209 162.5 c 128,-1,20
 253 98 253 98 340 98 c 0,21,22
 388 98 388 98 426.5 119.5 c 128,-1,23
 465 141 465 141 489 173 c 128,-1,24
 513 205 513 205 520 237 c 2,25,-1
 533 291 l 1,26,-1
 371 291 l 1,27,-1
 383 377 l 1,28,-1
 672 375 l 1,29,-1
 619 0 l 1,30,-1
 533 0 l 1,31,-1
 547 102 l 1,32,33
 506 52 506 52 451 21 c 128,-1,34
 396 -10 396 -10 317 -10 c 0,35,0
 221 -10 221 -10 155.5 35.5 c 128,-1,1
543.5 843 m 128,-1,37
 495 810 495 810 434 810 c 0,38,39
 372 810 372 810 332.5 842.5 c 128,-1,40
 293 875 293 875 287 929 c 1,41,-1
 365 929 l 1,42,43
 375 906 375 906 393.5 890.5 c 128,-1,44
 412 875 412 875 443 875 c 0,45,46
 470 875 470 875 495.5 891 c 128,-1,47
 521 907 521 907 536 929 c 1,48,-1
 616 929 l 1,49,36
 592 876 592 876 543.5 843 c 128,-1,37
EndSplineSet
EndChar

StartChar: gbreve
Encoding: 287 287 224
Width: 618
GlyphClass: 2
Flags: W
AnchorPoint: "Anchor-5" -46 0 basechar 0
AnchorPoint: "Anchor-4" -46 0 basechar 0
AnchorPoint: "Anchor-3" 258 517 basechar 0
AnchorPoint: "Anchor-2" -46 0 basechar 0
LayerCount: 2
Fore
SplineSet
35 -135.5 m 128,-1,1
 -30 -100 -30 -100 -22 -40 c 0,2,3
 -16 0 -16 0 14 22 c 128,-1,4
 44 44 44 44 66 53 c 128,-1,5
 88 62 88 62 92 64 c 1,6,7
 89 66 89 66 74 75 c 128,-1,8
 59 84 59 84 49.5 100 c 128,-1,9
 40 116 40 116 43 136 c 0,10,11
 47 163 47 163 75.5 185 c 128,-1,12
 104 207 104 207 153 216 c 1,13,14
 60 265 60 265 74 362 c 0,15,16
 85 438 85 438 156.5 481.5 c 128,-1,17
 228 525 228 525 332 525 c 0,18,19
 381 525 381 525 414 514 c 128,-1,20
 447 503 447 503 476 482 c 1,21,-1
 627 540 l 1,22,-1
 612 440 l 1,23,-1
 520 424 l 1,24,25
 524 412 524 412 525.5 393.5 c 128,-1,26
 527 375 527 375 525 363 c 0,27,28
 519 318 519 318 488 279.5 c 128,-1,29
 457 241 457 241 403 218 c 128,-1,30
 349 195 349 195 276 195 c 0,31,32
 256 195 256 195 235 197 c 0,33,34
 165 194 165 194 161 169 c 0,35,36
 159 157 159 157 178.5 152 c 128,-1,37
 198 147 198 147 251 143 c 2,38,-1
 360 137 l 2,39,40
 449 131 449 131 488.5 93 c 128,-1,41
 528 55 528 55 519 -7 c 0,42,43
 508 -83 508 -83 433 -127 c 128,-1,44
 358 -171 358 -171 230 -171 c 0,45,0
 100 -171 100 -171 35 -135.5 c 128,-1,1
372 291 m 128,-1,47
 403 315 403 315 409 359 c 0,48,49
 415 404 415 404 390.5 430.5 c 128,-1,50
 366 457 366 457 316 457 c 128,-1,51
 266 457 266 457 233.5 430.5 c 128,-1,52
 201 404 201 404 194 359 c 0,53,54
 188 316 188 316 213.5 291.5 c 128,-1,55
 239 267 239 267 290 267 c 128,-1,46
 341 267 341 267 372 291 c 128,-1,47
361 -82 m 128,-1,57
 394 -65 394 -65 399 -29 c 0,58,59
 407 29 407 29 323 35 c 2,60,-1
 193 44 l 2,61,62
 161 46 161 46 132 24.5 c 128,-1,63
 103 3 103 3 99 -26 c 0,64,65
 94 -64 94 -64 134.5 -81.5 c 128,-1,66
 175 -99 175 -99 260 -99 c 0,67,56
 328 -99 328 -99 361 -82 c 128,-1,57
453.5 637 m 128,-1,69
 405 604 405 604 344 604 c 0,70,71
 282 604 282 604 242.5 636.5 c 128,-1,72
 203 669 203 669 197 723 c 1,73,-1
 275 723 l 1,74,75
 285 700 285 700 303.5 684.5 c 128,-1,76
 322 669 322 669 353 669 c 0,77,78
 380 669 380 669 405.5 685 c 128,-1,79
 431 701 431 701 446 723 c 1,80,-1
 526 723 l 1,81,68
 502 670 502 670 453.5 637 c 128,-1,69
EndSplineSet
EndChar

